<?xml version="1.0" encoding="UTF-8"?>
<svg width="26px" height="26px" viewBox="0 0 26 26" version="1.1" xmlns="http://www.w3.org/2000/svg" xmlns:xlink="http://www.w3.org/1999/xlink">
    <!-- Generator: Sketch 53.1 (72631) - https://sketchapp.com -->
    <title>musica-searcher</title>
    <desc>Created with Sketch.</desc>
    <g id="Page-1" stroke="none" stroke-width="1" fill="none" fill-rule="evenodd">
        <g id="Inital-Screen---I-live" transform="translate(-31.000000, -254.000000)" fill="#445870" fill-rule="nonzero">
            <g id="musica-searcher" transform="translate(31.000000, 254.000000)">
                <path d="M25.3636901,22.2909968 L19.7153233,16.6427339 C19.6853047,16.6127153 19.6500927,16.5917335 19.6187238,16.5637924 C20.7301368,14.8778724 21.3788072,12.859775 21.3788072,10.6895075 C21.3788072,4.78582729 16.59298,0 10.6894036,0 C4.78582729,0 0,4.78582729 0,10.6894036 C0,16.5928761 4.78572342,21.3788072 10.6892998,21.3788072 C12.8596711,21.3788072 14.8776647,20.7301368 16.5635846,19.6187238 C16.5915258,19.6499888 16.6124037,19.6852009 16.6424223,19.7152194 L22.290893,25.3636901 C23.13941,26.2121033 24.5150692,26.2121033 25.3636901,25.3636901 C26.2121033,24.5151731 26.2121033,23.1395139 25.3636901,22.2909968 Z M10.6894036,17.6731279 C6.83228131,17.6731279 3.70557544,14.5464221 3.70557544,10.6894036 C3.70557544,6.83228131 6.83238518,3.70557544 10.6894036,3.70557544 C14.5463182,3.70557544 17.6731279,6.83238518 17.6731279,10.6894036 C17.6731279,14.5464221 14.5463182,17.6731279 10.6894036,17.6731279 Z" id="Shape"></path>
            </g>
        </g>
    </g>
</svg>