<?xml version="1.0" encoding="UTF-8"?>
<svg width="49px" height="49px" viewBox="0 0 49 49" version="1.1" xmlns="http://www.w3.org/2000/svg" xmlns:xlink="http://www.w3.org/1999/xlink">
    <!-- Generator: Sketch 53.1 (72631) - https://sketchapp.com -->
    <title>Group 3</title>
    <desc>Created with Sketch.</desc>
    <g id="Page-1" stroke="none" stroke-width="1" fill="none" fill-rule="evenodd">
        <g id="Intial-Screen-Copy-5" transform="translate(-19.000000, -410.000000)">
            <g id="Group-3" transform="translate(19.000000, 410.000000)">
                <circle id="Oval" fill="#2082DC" cx="24.5" cy="24.5" r="24.5"></circle>
                <path d="M17.5281492,50.921883 C17.1530676,50.8981382 16.832,50.8137608 16.5649367,50.6687485 C16.2978734,50.5237361 16.0447797,50.293919 15.8056479,49.9792902 C15.7791673,49.9308725 15.6795037,49.8038168 15.5066541,49.5981191 C15.3338045,49.3924214 15.2484289,49.1321075 15.2505246,48.8171693 C15.2521367,48.5749093 15.3343179,48.3083241 15.4970708,48.0174058 L16.1107762,46.417724 C16.1114211,46.3208199 16.2068424,46.0784432 16.3970432,45.6905865 C16.5872439,45.3027298 16.7231111,45.023963 16.8046487,44.8542779 C16.8595445,44.6604011 17.0088532,44.3755607 17.2525795,43.9997483 C17.4963057,43.6239359 17.6453727,43.375434 17.6997848,43.2542352 C17.7810001,43.1330021 17.896201,42.9390508 18.0453911,42.6723757 C18.1945812,42.4057006 18.3499861,42.2116978 18.5116105,42.0903616 C18.5124165,41.9692316 18.533244,41.8601904 18.5740934,41.7632348 C18.6149428,41.6662792 18.6489297,41.5935593 18.6760552,41.5450729 C18.6768613,41.4239429 18.7725647,41.1391713 18.9631685,40.6907496 C19.1537722,40.2423278 19.4111783,39.824109 19.7353943,39.4360804 L20.2645802,38.4542618 C20.5087094,38.0178844 20.6310947,37.7512476 20.6317395,37.6543436 C20.6325455,37.5332136 22.9947279,34.9864886 23.0212085,35.0349063 C23.0748146,35.0348375 23.277769,34.743872 23.6300778,34.1620011 L24.6458271,32.5618037 C25.4032446,31.5191231 26.4915223,30.0944832 27.9106928,28.2878413 C29.3298633,26.4811993 30.201221,25.4323319 30.5247922,25.1412074 C30.7669869,24.995542 31.1025037,24.9224355 31.5313526,24.9218856 C31.9333984,24.9213701 32.2947103,24.9996394 32.6152991,25.1566961 C32.9358879,25.3137527 33.1220153,25.5375993 33.1736869,25.8282427 C33.2256809,26.0704341 33.2512745,26.252092 33.2504685,26.3732221 C33.2451486,27.1726803 32.8785571,27.8878008 32.1506832,28.5186049 C32.014411,28.8579409 31.500808,29.5126863 30.6098588,30.4828607 C29.906531,31.4527946 29.4736584,32.0589856 29.311228,32.3014519 C28.9879792,32.5441244 28.6363206,33.0290841 28.2562415,33.7563455 C28.1479008,33.926065 27.999519,34.0716079 27.8110916,34.1929785 C27.6226642,34.3143491 27.4615258,34.3630066 27.3276718,34.3389525 C27.3273493,34.3874045 27.2932818,34.4722372 27.2254681,34.5934531 C27.1576544,34.7146691 27.1235063,34.8116146 27.1230227,34.8842927 C27.1222166,35.0054227 27.0544039,35.1266368 26.9195826,35.2479387 L26.6769055,35.466281 C26.4348719,35.5877204 26.3132121,35.7453417 26.3119225,35.9391498 L25.4167863,37.5391925 C25.0392866,37.8788377 24.6611074,38.3214369 24.2822374,38.8670032 C23.9033675,39.4125695 23.6049514,39.9519682 23.3869804,40.4852153 C23.0345104,41.0913123 22.6018796,41.6611648 22.089075,42.19479 C22.0619495,42.2432764 22.0278014,42.3402219 21.9866295,42.4856295 C21.9454577,42.6310371 21.8844263,42.7401298 21.8035335,42.812911 C21.7489601,42.9583357 21.5447967,43.4309936 21.1910371,44.2308986 C20.6462706,45.5397904 20.3602484,46.2305821 20.3329617,46.3032945 C20.305675,46.3760069 20.2096894,46.7031734 20.0450021,47.2848038 C19.9905899,47.4060026 19.8950074,47.672605 19.7582515,48.0846189 C19.3523367,48.6665586 19.0278031,49.1030327 18.7846411,49.3940541 C18.7576769,49.4183144 18.6765838,49.5213765 18.5413594,49.7032434 C18.4061351,49.8851103 18.3381209,50.0366065 18.3373149,50.1577366 C18.2026547,50.2548124 18.0542326,50.4064117 17.892044,50.612539 C17.7298554,50.8186663 17.6085583,50.9217799 17.5281492,50.921883 Z" id="Path" fill="#FFFFFF" transform="translate(24.250487, 37.921883) rotate(47.000000) translate(-24.250487, -37.921883) "></path>
                <path d="M18.0169927,11.4555282 C18.0100324,11.4489554 18.1475003,11.169622 18.4293985,10.6175232 C18.7656393,9.95899436 19.1267814,9.36515136 19.5128356,8.8359764 C19.8988898,8.30680143 20.2413522,8.04221792 20.5402329,8.04221792 C20.8640203,8.04221792 21.2376156,8.16569022 21.6610299,8.41263854 C22.0844442,8.65958686 22.4518129,9.02412414 22.7631469,9.50626134 C23.074481,9.98839853 23.2301457,10.558723 23.2301457,11.2172518 C23.2301457,11.4994785 23.2176925,11.7229046 23.1927858,11.8875368 L22.8191868,14.2864513 L22.6323873,15.0625707 C22.3085999,16.6148173 21.822926,18.7432446 21.1753512,21.4479167 C20.6024965,23.8468432 20.3160735,25.2932331 20.3160735,25.7871297 C20.3160735,25.928243 20.3409798,26.0399561 20.3907933,26.1222722 C20.4406067,26.2045883 20.5028726,26.2457457 20.5775928,26.2457457 C20.6274062,26.2457457 20.751938,26.1693105 20.9511918,26.0164377 C21.1504456,25.863565 21.32479,25.6342592 21.4742304,25.3285137 L21.9599091,24.6229506 L22.5950274,23.7409967 C23.2924157,22.8237601 24.1516848,21.5831574 25.1728605,20.0191514 C26.1940362,18.4551454 27.8503086,15.7681528 30.1417273,11.9580931 C30.614955,11.2995642 31.0010035,10.7233601 31.2998842,10.2294635 C31.6983918,9.61797243 32.0844402,9.04176834 32.4580411,8.50083393 C32.831642,7.95989952 33.118065,7.61888077 33.3173188,7.47776744 C33.566386,7.28961634 33.8777154,7.1955422 34.2513163,7.1955422 C34.6249172,7.21906109 35.0171922,7.34841303 35.4281532,7.58360191 C35.8391141,7.81879078 36.187803,8.14805026 36.4742304,8.57139024 C36.7606577,8.99473021 36.9038692,9.45334163 36.9038692,9.94723827 C36.9038692,10.5116916 36.7232982,11.5465071 36.3621507,13.0517159 C36.0010032,14.5569247 35.5838218,16.0150738 35.110594,17.4262071 C35.0109671,17.9201037 34.6996377,19.0842712 34.1765965,20.9187444 C33.7780889,22.2828398 33.4854393,23.3646924 33.2986388,24.1643346 C33.1118384,24.9639768 33.0184396,25.6107365 33.0184396,26.1046331 L33.0184396,26.3868584 C32.6448387,27.0218683 32.4580411,28.2918692 32.4580411,30.1968991 C32.3584142,30.9730223 32.1716166,31.5786246 31.8976426,32.013724 C31.6236686,32.4488234 31.3995114,32.6663699 31.2251644,32.6663699 L31.1130847,32.6310917 C30.9885511,32.6310917 30.8702459,32.6840084 30.7581656,32.7898434 C30.6460854,32.8956784 30.4904207,32.9485951 30.2911669,32.9485951 C29.6684987,32.9485951 29.2637705,32.7369283 29.0769701,32.3135883 C28.8901697,31.8902484 28.7967709,31.3140443 28.7967709,30.5849588 C28.7967709,30.1616188 28.809224,29.8088408 28.8341308,29.5266141 C28.9088509,28.915123 29.7058542,25.7283616 31.2251644,19.9662342 C32.4206872,15.4506078 33.0184396,13.0869951 33.0184396,12.8753251 L32.495401,13.7220008 C31.9972665,14.6157185 31.3746077,15.6622933 30.627406,16.8617566 L28.0122129,21.4831948 C27.6884255,21.9065348 27.4206822,22.3181092 27.2089751,22.7179303 C26.9972679,23.1177513 26.8789628,23.3529367 26.854056,23.4234934 C26.5551753,23.9879467 25.9574229,24.7993361 25.0607808,25.857686 C24.7619001,26.2104693 24.5875557,26.4338954 24.5377422,26.527971 C24.4132086,26.7866787 24.014707,27.2394105 23.3422254,27.8861799 C22.6697438,28.5329493 21.9599128,29.1209127 21.2127111,29.6500877 C20.4655093,30.1792626 19.8428506,30.4438461 19.3447161,30.4438461 C18.6722345,30.4438461 18.0682555,30.1381052 17.5327609,29.5266141 C16.9972663,28.915123 16.729523,28.1742892 16.729523,27.3040904 C16.729523,26.6690804 16.8540548,25.6107464 17.103122,24.1290565 C17.5016296,22.5062532 17.9250376,20.8599558 18.3733586,19.1901148 C18.8216797,17.5202738 19.1330091,16.4266619 19.3073562,15.9092464 C19.3820763,15.6975764 19.4194359,15.4623911 19.4194359,15.2036833 C19.4194359,15.0390511 19.3945295,14.9332177 19.3447161,14.8861799 C19.3198093,14.8861799 19.2886764,14.9096985 19.2513163,14.9567362 C19.2139562,15.003774 19.1703701,15.0625703 19.1205567,15.133127 C18.7469558,15.6975803 18.1616565,16.6853588 17.3646413,18.096492 C16.5676261,19.5076252 15.708357,21.1656819 14.7868082,23.0707118 C11.2251466,29.2561792 9.18282577,32.6310889 8.65978455,33.1955422 C8.28618368,33.1955422 7.90013524,32.9662365 7.50162764,32.5076182 C7.10312004,32.0489999 6.90386923,31.4786754 6.90386923,30.7966277 C6.90386923,30.2556933 7.04085416,29.7265262 7.31482814,29.2091107 C7.81296263,28.2213175 8.31108966,27.4216873 8.80922415,26.8101962 C8.98357123,26.5750073 9.11432957,26.3750998 9.20150311,26.2104676 C9.28867664,26.0458354 9.34471593,25.8224093 9.36962266,25.5401826 C9.7183168,25.1168427 10.1790843,24.3524903 10.751939,23.2471026 C11.7233012,21.7654127 13.1056037,19.4841148 14.8988879,16.4031406 C15.1479552,15.9798006 15.6398556,15.1448926 16.374604,13.8983916 C17.1093524,12.6518906 17.6012528,11.9110567 17.85032,11.6758678 L18.0169927,11.4555282 L18.0169927,11.4555282 Z" id="Path" fill="#FFFFFF" transform="translate(21.903869, 20.195542) rotate(-6.000000) translate(-21.903869, -20.195542) "></path>
            </g>
        </g>
    </g>
</svg>