<?xml version="1.0" encoding="UTF-8"?>
<svg width="335px" height="55px" viewBox="0 0 335 55" version="1.1" xmlns="http://www.w3.org/2000/svg" xmlns:xlink="http://www.w3.org/1999/xlink">
    <!-- Generator: Sketch 53.1 (72631) - https://sketchapp.com -->
    <title>Group 3</title>
    <desc>Created with Sketch.</desc>
    <g id="Page-1" stroke="none" stroke-width="1" fill="none" fill-rule="evenodd">
        <g id="Initial-Screen---Here-for---Focus" transform="translate(-15.000000, -53.000000)" fill="#2082DC">
            <g id="Group-3" transform="translate(15.000000, 53.000000)">
                <g id="Group-2">
                    <path d="M5,0 L76,0 C78.7614237,-5.07265313e-16 81,2.23857625 81,5 L81,50 C81,52.7614237 78.7614237,55 76,55 L5,55 C2.23857625,55 3.38176876e-16,52.7614237 0,50 L0,5 C-3.38176876e-16,2.23857625 2.23857625,5.07265313e-16 5,0 Z M21.026219,11.6929667 C20.7791369,12.4534634 20.6604774,12.8373428 20.6702383,12.8446118 L20.5049305,13.1574954 C20.2408587,13.5037802 19.7693901,14.5439176 19.0905108,16.2779387 C18.4116315,18.0119599 17.9572066,19.1733688 17.7272225,19.7622004 C16.077302,24.0442331 14.7885526,27.2242772 13.8609355,29.302428 C13.3558334,30.8265233 12.9269604,31.891591 12.5743036,32.497663 C12.5947671,32.8657933 12.5662433,33.1635109 12.4887316,33.3908248 C12.4112198,33.6181387 12.2864321,33.8984686 12.1143647,34.231823 C11.6117867,35.1063025 11.1433035,36.2233122 10.7089011,37.5828853 C10.4652926,38.2973003 10.3924906,39.0031583 10.4904928,39.7004803 C10.6140608,40.5797123 10.9627292,41.2804407 11.5365085,41.8026865 C12.1102878,42.3249322 12.6271808,42.5537257 13.0872031,42.4890737 C13.6289711,41.6709207 15.5322825,36.966878 18.7971943,28.3768043 C19.5867777,25.7615435 20.3444195,23.4754349 21.0701424,21.51841 C21.7958653,19.561385 22.3375982,18.1867471 22.6953573,17.3944548 C22.7439107,17.2948795 22.7869269,17.2115422 22.8244072,17.1444403 C22.8618875,17.0773384 22.8959613,17.0416329 22.9266294,17.0373228 C22.9964876,17.0893392 23.0463294,17.2214597 23.0761562,17.4336881 C23.1230268,17.7671899 23.1196343,18.076834 23.0659785,18.3626295 C22.9450427,19.059804 22.7598285,20.5234618 22.5103303,22.7536468 C22.2608321,24.9838317 22.0377445,27.1793553 21.8410607,29.3402833 C21.80282,31.2934404 21.8412221,32.6792959 21.9562682,33.4978913 C22.1139239,34.6196702 22.5778201,35.5283506 23.3479704,36.2239599 C24.1181208,36.9195692 24.9172041,37.2091827 25.7452442,37.0928093 C26.3586073,37.0066067 27.0773644,36.5577789 27.9015373,35.7463122 C28.7257101,34.9348456 29.4932168,34.0540615 30.2040804,33.1039335 C30.9149439,32.1538055 31.3236046,31.501225 31.4300748,31.1461726 C31.4743672,31.0162789 31.6485625,30.6980885 31.9526658,30.1915917 C32.8649759,28.6721015 33.4539994,27.5226927 33.719754,26.7433308 C33.7376393,26.6480657 33.8407018,26.3244139 34.0289447,25.7723659 C34.2171875,25.220318 34.4722994,24.6434217 34.794288,24.0416597 L37.1771523,17.6315731 C37.8798877,15.9560336 38.4569698,14.4991358 38.9084162,13.260836 L39.3990502,12.0788688 C39.4373989,12.3517339 39.1295949,15.5021236 38.475629,21.5301324 C37.6488083,29.2210453 37.2447944,33.4670418 37.263575,34.2682492 C37.2840385,34.6363795 37.3326182,35.0933029 37.4093155,35.6390332 C37.5414055,36.5789019 37.7608014,37.3055276 38.06751,37.8189319 C38.3742185,38.3323361 38.9109166,38.5351587 39.6776204,38.4274055 C39.9229656,38.3929244 40.1050517,38.2977713 40.223884,38.1419431 C40.3427164,37.986115 40.4788009,37.897427 40.6321416,37.8758763 L40.7765391,37.9019581 C40.9912161,37.8717872 41.227812,37.5525562 41.4863338,36.9442553 C41.7448556,36.3359545 41.8651451,35.5229433 41.8472058,34.5051973 C41.5020676,32.0494112 41.5019866,30.3799195 41.8469628,29.4966722 L41.7958315,29.1328539 C41.7063512,28.4961686 41.7041802,27.6462638 41.7893185,26.583114 C41.8744568,25.5199643 42.0388007,24.074698 42.2823552,22.2472718 C42.594031,19.791928 42.7664625,18.2373165 42.7996549,17.5833907 C43.1266918,15.6823974 43.3761997,13.7304946 43.5481861,11.7276235 C43.7201725,9.72475239 43.7550336,8.35951716 43.6527704,7.63187682 C43.5632901,6.99519153 43.3038633,6.42877548 42.8744822,5.9326117 C42.445101,5.43644792 41.9561007,5.0723383 41.4074666,4.84027194 C40.8588324,4.60820557 40.3523813,4.50934066 39.888098,4.54367423 C39.4280757,4.60832614 39.0617732,4.7834735 38.7891794,5.06912156 C38.5694,5.28551266 38.2785046,5.77468783 37.9164845,6.53666174 C37.5544644,7.29863564 37.1835073,8.10822999 36.803602,8.96546906 C36.5250644,9.65387589 36.1541073,10.4634702 35.6907194,11.3942764 C33.5595259,16.7023804 32.0069324,20.4528188 31.0328923,22.6457042 C30.0588523,24.8385895 29.2255795,26.5865555 28.5330489,27.8896546 L27.9108004,29.1364947 L27.4406027,30.1300876 C27.3119863,30.5500869 27.1388563,30.8758568 26.9212073,31.1074071 C26.7035584,31.3389574 26.5640679,31.4590408 26.5027316,31.4676611 C26.4107271,31.4805915 26.3266013,31.4383103 26.2503516,31.3408164 C26.1741019,31.2433224 26.123195,31.1036225 26.0976292,30.9217124 C26.0081489,30.2850271 26.0987819,28.370911 26.3695309,25.1793066 C26.6768918,21.5806333 26.8893001,18.7528178 27.0067624,16.6957752 L27.0961612,15.662949 L27.1215648,12.5058414 C27.1224062,12.2893029 27.0972615,11.9991279 27.0461299,11.6353077 C26.9268229,10.786394 26.6318229,10.078123 26.1611212,9.51047344 C25.6904195,8.94282392 25.1720271,8.53647001 24.6059283,8.29139954 C24.0398296,8.04632906 23.5574445,7.95181107 23.1587585,8.00784273 C22.7907407,8.05956427 22.416995,8.45990393 22.0375104,9.20887372 C21.6580258,9.95784352 21.320932,10.7858662 21.026219,11.6929667 Z M54.8312165,35.6446935 C54.9113156,35.6334364 55.0150638,35.4998693 55.1424643,35.2439883 C55.2698649,34.9881074 55.3925954,34.795879 55.5106597,34.6672975 C55.491367,34.530023 55.5339997,34.3490516 55.6385591,34.124378 C55.7431185,33.8997043 55.8068178,33.7717657 55.829659,33.7405585 C56.0236537,33.3773282 56.2745924,32.8381195 56.5824828,32.1229161 C56.6503861,31.637421 56.7013903,31.3222885 56.735497,31.1775092 C56.8030903,30.4960775 56.8444483,30.1123088 56.8595724,30.0261917 C56.8746965,29.9400746 57.0450724,29.1182224 57.3707051,27.5606103 C57.5904693,26.6058177 57.7154736,26.0423128 57.7457218,25.8700786 C57.8142452,25.7764567 57.8569554,25.6444688 57.8738537,25.4741109 C57.8907521,25.3037529 57.9086923,25.1892446 57.9276749,25.1305824 C58.350081,24.4552792 58.6865953,23.7500615 58.9372277,23.0149081 C59.0659374,22.3808813 59.2737784,21.7287433 59.5607569,21.0584747 C59.8477354,20.3882061 60.1511081,19.8346291 60.4708841,19.3977271 L61.0973071,17.4618848 C61.0664388,17.2422457 61.1615055,17.046906 61.3825099,16.87586 L61.5880792,16.5949958 C61.7022849,16.4389594 61.7497407,16.2923061 61.7304481,16.1550317 C61.7188725,16.072667 61.7368127,15.9581586 61.7842692,15.8115032 C61.8317257,15.6648477 61.8515952,15.5640666 61.8438781,15.5091568 C61.981235,15.5178498 62.1337137,15.4404268 62.3013188,15.2768855 C62.4689239,15.1133443 62.5926191,14.9279796 62.672408,14.7207857 C62.9304475,13.8446054 63.2003686,13.2467354 63.4821794,12.9271577 C63.6037921,12.6300944 63.9345187,11.883695 64.474369,10.687937 C65.201117,9.46591227 65.6042244,8.65334685 65.6837033,8.25021637 C66.3042728,7.4350745 66.550888,6.57451074 66.4235564,5.66849928 C66.4042637,5.53122482 66.3486259,5.32906855 66.2566412,5.06202441 C66.1569394,4.74007049 65.9343536,4.51238291 65.588877,4.37895485 C65.2434004,4.24552679 64.8704201,4.2069563 64.4699249,4.26324223 C64.0427301,4.32328055 63.7205645,4.45254822 63.5034186,4.65104913 C63.2293249,5.02553659 62.5351523,6.33395581 61.4208799,8.57634605 C60.3066076,10.8187363 59.4586471,12.5827187 58.8769731,13.8683461 L58.1304021,15.8210741 C57.8759111,16.5287726 57.7219682,16.886369 57.6685689,16.8938738 C57.6341521,16.8427164 57.5260803,16.6549284 57.3443503,16.3305042 C57.1626202,16.00608 56.8670334,15.452691 56.4575809,14.6703206 C56.3427551,14.4344837 56.19938,14.2376589 56.0274513,14.0798403 C55.8555226,13.9220217 55.740931,13.8331387 55.6836731,13.8131885 L55.5857461,13.4069958 L55.5683828,13.2834494 C55.3316342,13.1487392 55.037322,12.7981475 54.6854375,12.2316638 C54.3875724,12.0495486 54.2117879,11.8642779 54.1580784,11.675846 C54.0886248,11.181658 53.9373002,10.7829739 53.7041001,10.479782 C53.4480588,10.2077973 53.2186431,9.88308098 53.0158461,9.50562321 C52.8130492,9.12816544 52.7037802,8.78656357 52.688036,8.48080735 C52.3667097,7.93802616 52.1600573,7.53311957 52.0680727,7.26607543 C51.9152816,7.14756295 51.7501423,6.45685453 51.5726497,5.19392947 C51.5227988,5.03295251 51.3109013,4.92974818 50.9369508,4.88431339 C50.5630003,4.83887859 50.3721694,4.78870706 50.3644523,4.73379727 C50.2113512,4.41934814 49.9345572,4.29026847 49.534062,4.3465544 C49.3204646,4.37657356 49.1012377,4.4633774 48.8763747,4.60696853 C48.6515118,4.75055965 48.4724888,4.92970184 48.3393005,5.14440046 C48.183271,5.39030636 48.1573468,5.88389296 48.2615272,6.62517507 C48.354132,7.28409249 48.5212006,7.98852815 48.7627379,8.73850317 C48.9814341,9.51968547 49.607024,10.6776201 50.6395264,12.2123418 C50.6739431,12.2634992 50.7553156,12.4550395 50.8836463,12.7869685 C51.011977,13.1188975 51.1277657,13.3615944 51.231016,13.5150666 C52.2483942,15.1359054 53.1796392,16.5798448 54.0247787,17.8469284 C54.8699182,19.1140119 55.3516679,19.7812212 55.4700422,19.8485763 C55.6189747,19.9396339 55.7030861,20.0537982 55.7223787,20.1910726 C55.7378129,20.3008922 55.6601094,20.619777 55.4892659,21.1477366 L55.1248946,22.3328256 C54.866235,22.8171326 54.6791505,23.3263696 54.5636357,23.8605519 C54.4481208,24.3947342 54.4000104,24.7304575 54.4193031,24.867732 C54.4003205,24.9263941 54.3785218,25.013448 54.3539064,25.1288962 C54.329291,25.2443443 54.3266297,25.3707038 54.3459224,25.5079782 C54.205017,25.6677671 54.0823639,25.9089788 53.9779596,26.2316208 C53.8735552,26.5542628 53.7909511,26.7898461 53.7301447,26.9383778 C53.696038,27.083157 53.5887414,27.3852033 53.4082516,27.8445257 C53.2277617,28.3038481 53.1262528,28.6470761 53.1037217,28.87422 C53.0506324,29.0776615 52.9615085,29.4121497 52.8363473,29.8776947 C52.7111861,30.3432398 52.6563234,30.6309178 52.6717575,30.7407374 L52.3256797,32.6371797 C52.211784,32.9891528 52.1741294,33.3024091 52.2127148,33.576958 C52.2628757,33.9338716 52.391127,34.2168122 52.5974724,34.4257882 C52.8038178,34.6347642 52.9241971,34.764829 52.9586139,34.8159864 C53.2490719,35.1391284 53.5393706,35.3642988 53.8295185,35.4915042 C54.1196665,35.6187096 54.4535625,35.6697722 54.8312165,35.6446935 Z M21.2700762,49.1485476 C21.2964524,49.2046818 21.5006059,49.2127155 21.8825428,49.1726489 C22.2644798,49.1325822 22.5548792,49.123484 22.7537499,49.1453539 C22.9473878,49.0557451 23.2114115,48.9905135 23.5458287,48.9496572 C23.880246,48.908801 24.0712116,48.8887679 24.1187312,48.8895576 C24.6625909,48.8428989 25.4651803,48.7448454 26.5265234,48.5953939 C27.2288528,48.3842808 27.6856216,48.2526332 27.8968437,48.2004472 C28.8790583,47.8825931 29.4326447,47.7061417 29.5576195,47.6710878 C29.6825943,47.6360339 30.8786294,47.3217378 33.1457605,46.7281903 C34.5380679,46.38002 35.359184,46.1708842 35.6091337,46.1007763 C35.7516927,46.1031452 35.9457461,46.0645985 36.1912997,45.985135 C36.4368533,45.9056714 36.6027513,45.8573743 36.6889985,45.8402422 C37.7080548,45.8014799 38.7588104,45.6797025 39.841297,45.4749065 C40.7636405,45.2303187 41.7220277,45.0373877 42.7164874,44.8961074 C43.7109471,44.7548272 44.5408021,44.6897155 45.2060773,44.7007704 L48.0522222,44.1354126 C48.3620429,43.9920384 48.6533322,43.9597487 48.9260987,44.0385425 L49.3537735,44.0456491 C49.5913718,44.0495973 49.8069866,44.0067676 50.0006246,43.9171587 C50.1168073,43.8633934 50.2827053,43.8150963 50.4983234,43.7722659 C50.7139415,43.7294356 50.860476,43.6900992 50.9379312,43.6542557 C50.9431639,43.7657345 51.0733695,43.8421582 51.3285519,43.8835292 C51.5837344,43.9249001 51.864452,43.9202823 52.1707134,43.8696755 C53.4556301,43.593982 54.3444654,43.4787966 54.8372461,43.5241157 C55.2772744,43.4571664 56.3861205,43.3085068 58.1638178,43.0781324 C60.0030596,42.9787378 61.2157356,42.8503686 61.8018822,42.6930208 C63.0461853,42.7322626 64.3073232,42.4561785 65.5853336,41.86476 C65.7789716,41.7751512 66.0606322,41.6220288 66.430324,41.4053882 C66.8774709,41.1529042 67.1741522,40.8561524 67.3203767,40.5151241 C67.4666013,40.1740957 67.4737729,39.8632507 67.3418919,39.5825797 C67.2012188,39.2831972 66.9751386,39.1030727 66.6636445,39.0422007 C66.0934086,39.0327251 64.1349256,39.2043964 60.7881367,39.5572197 C57.4413478,39.910043 54.8122607,40.2098086 52.9007964,40.4565255 L50.0150875,40.9376824 C48.9713285,41.1245567 48.4406648,41.1992813 48.4230807,41.1618585 C48.4917438,41.1073035 43.6560659,41.3518403 43.462428,41.4414492 C43.3075176,41.5131363 42.8419568,41.6260728 42.0657316,41.780262 L40.3258276,42.1412196 C39.6006814,42.2034311 38.8491171,42.3348214 38.0711122,42.5353943 C37.2931074,42.7359673 36.8072932,42.881056 36.6136553,42.9706648 C36.5274081,42.987797 36.4002371,43.0181726 36.2321386,43.0617926 C36.0640402,43.1054125 35.8831747,43.172026 35.6895368,43.2616348 C35.4431464,43.2389753 35.0827767,43.2747583 34.6084169,43.3689851 C34.134057,43.4632119 33.7868752,43.5270616 33.5668611,43.5605363 C33.355639,43.6127223 32.9103315,43.6935065 32.2309253,43.8028914 C31.551519,43.9122762 31.0481211,44.0199427 30.7207162,44.125894 C30.4232469,44.1952122 29.9339266,44.3077539 29.2527407,44.4635224 C28.5715548,44.6192909 28.153513,44.733017 27.9986026,44.8047041 L25.244774,45.5665307 C24.7272905,45.6693235 24.2749176,45.8103267 23.8876417,45.9895444 C23.384183,46.2225274 22.9964415,46.4759947 22.7244054,46.7499539 C22.4523693,47.023913 22.2820223,47.1881676 22.2133592,47.2427226 C21.7890291,47.6441082 21.5046459,47.9921182 21.3602011,48.2867628 C21.2157562,48.5814075 21.1857149,48.8686662 21.2700762,49.1485476 Z" id="Combined-Shape"></path>
                    <path d="M96.3859649,4 L102,4 L102,23 L96.3859649,23 L96.3859649,15.9971429 L91.6140351,15.9971429 L91.6140351,23 L86,23 L86,4 L91.6140351,4 L91.6140351,10.7314286 L96.3859649,10.7314286 L96.3859649,4 Z M108.967742,17.6704545 C109.392791,18.5542973 110.296008,18.9962121 111.677419,18.9962121 C112.492098,18.9962121 113.244778,18.7133867 113.935484,18.1477273 L117.149905,20.8522727 C115.821625,22.2840981 113.944351,23 111.518027,23 C109.251096,23 107.431379,22.341547 106.058824,21.0246212 C104.686268,19.7076954 104,18.050515 104,16.0530303 C104,14.0378687 104.668558,12.3585926 106.005693,11.0151515 C107.342828,9.67171045 109.029718,9 111.066414,9 C113.085399,9 114.745724,9.65845301 116.047438,10.9753788 C117.349153,12.2923046 118,13.949485 118,15.9469697 C118,16.5303059 117.929159,17.1047952 117.787476,17.6704545 L108.967742,17.6704545 Z M109,15 L114,15 C113.662697,13.66666 112.859133,13 111.589286,13 C110.299597,13 109.43651,13.66666 109,15 Z M128.936131,9.37121212 L134,9.37121212 L134,22.6287879 L128.936131,22.6287879 L128.936131,21.4356061 C128.060215,22.4785406 126.837599,23 125.268248,23 C123.425173,23 121.919714,22.3371278 120.751825,21.0113636 C119.583936,19.6855994 119,18.0151616 119,16 C119,13.9848384 119.583936,12.3144006 120.751825,10.9886364 C121.919714,9.66287216 123.425173,9 125.268248,9 C126.837599,9 128.060215,9.52145943 128.936131,10.5643939 L128.936131,9.37121212 Z M124.674157,17.2819149 C125.142324,17.7606407 125.750933,18 126.5,18 C127.249067,18 127.852994,17.7606407 128.311798,17.2819149 C128.770602,16.8031891 129,16.2092234 129,15.5 C129,14.7907766 128.770602,14.1968109 128.311798,13.7180851 C127.852994,13.2393593 127.249067,13 126.5,13 C125.750933,13 125.147006,13.2393593 124.688202,13.7180851 C124.229398,14.1968109 124,14.7907766 124,15.5 C124,16.2092234 124.224717,16.8031891 124.674157,17.2819149 Z M136,23 L136,3 L141,3 L141,23 L136,23 Z M153,14.3052862 L150.083333,14.3052862 L150.083333,17.1438017 C150.083333,17.5818464 150.194443,17.9059946 150.416667,18.1162561 C150.63889,18.3265175 150.96759,18.4447878 151.402778,18.4710705 C151.837965,18.4973532 152.370367,18.4929728 153,18.4579292 L153,22.8208327 C150.092578,23.2063121 148.023154,22.9697715 146.791667,22.1112039 C145.560179,21.2526362 144.944444,19.6844597 144.944444,17.4066272 L144.944444,14.3052862 L143,14.3052862 L143,9.67955716 L144.944444,9.67955716 L144.944444,7.44554031 L150.083333,6 L150.083333,9.67955716 L153,9.67955716 L153,14.3052862 Z M162.932,9.04857143 C164.462674,9.04857143 165.689995,9.55975679 166.614,10.5821429 C167.538005,11.6045289 168,13.1290375 168,15.1557143 L168,23 L162.82,23 L162.82,15.6985714 C162.82,14.4861844 162.241339,13.88 161.084,13.88 C160.467997,13.88 159.996668,14.0699981 159.67,14.45 C159.343332,14.8300019 159.18,15.3547586 159.18,16.0242857 L159.18,23 L154,23 L154,4 L159.18,4 L159.18,10.7585714 C160.038671,9.61856573 161.289325,9.04857143 162.932,9.04857143 Z M90.4891089,50 L85,31 L91.0990099,31 L93.7326733,41.45 L96.8653465,31 L101.134653,31 L104.267327,41.45 L106.90099,31 L113,31 L107.510891,50 L102.049505,50 L99,39.8485714 L95.950495,50 L90.4891089,50 Z M122.936131,36.3712121 L128,36.3712121 L128,49.6287879 L122.936131,49.6287879 L122.936131,48.4356061 C122.060215,49.4785406 120.837599,50 119.268248,50 C117.425173,50 115.919714,49.3371278 114.751825,48.0113636 C113.583936,46.6855994 113,45.0151616 113,43 C113,40.9848384 113.583936,39.3144006 114.751825,37.9886364 C115.919714,36.6628722 117.425173,36 119.268248,36 C120.837599,36 122.060215,36.5214594 122.936131,37.5643939 L122.936131,36.3712121 Z M118.674157,44.2819149 C119.142324,44.7606407 119.750933,45 120.5,45 C121.249067,45 121.852994,44.7606407 122.311798,44.2819149 C122.770602,43.8031891 123,43.2092234 123,42.5 C123,41.7907766 122.770602,41.1968109 122.311798,40.7180851 C121.852994,40.2393593 121.249067,40 120.5,40 C119.750933,40 119.147006,40.2393593 118.688202,40.7180851 C118.229398,41.1968109 118,41.7907766 118,42.5 C118,43.2092234 118.224717,43.8031891 118.674157,44.2819149 Z M139.105263,36 L145,36 L140.22807,49.53525 C139.535669,51.506325 138.459656,52.9303601 137,53.8073981 C135.540344,54.684436 133.612877,55.077741 131.217544,54.9873247 L131.217544,50.2404935 C132.171935,50.2404935 132.901752,50.1726823 133.407018,50.0370579 C133.912283,49.9014335 134.314618,49.6527924 134.614035,49.2911273 L129,36 L134.894737,36 L137.392982,43.2423081 L139.105263,36 Z" id="HealthWay" fill-rule="nonzero"></path>
                </g>
                <path d="M186,2.84217094e-14 L257,2.84217094e-14 C259.761424,2.79144441e-14 262,2.23857625 262,5 L262,48.3647059 C262,51.1261296 259.761424,53.3647059 257,53.3647059 L186,53.3647059 C183.238576,53.3647059 181,51.1261296 181,48.3647059 L181,5 C181,2.23857625 183.238576,2.89289747e-14 186,2.84217094e-14 Z M202.270076,47.6872325 C202.296452,47.7416977 202.500606,47.7494925 202.882543,47.7106172 C203.26448,47.6717418 203.554879,47.6629141 203.75375,47.6841338 C203.947388,47.5971892 204.211411,47.5338972 204.545829,47.4942557 C204.880246,47.4546141 205.071212,47.4351768 205.118731,47.4359429 C205.662591,47.3906716 206.46518,47.2955334 207.526523,47.1505255 C208.228853,46.9456893 208.685622,46.817956 208.896844,46.7673216 C209.879058,46.4589181 210.432645,46.2877131 210.557619,46.2537014 C210.682594,46.2196898 211.878629,45.9147386 214.145761,45.3388387 C215.538068,45.0010205 216.359184,44.7981028 216.609134,44.7300795 C216.751693,44.7323779 216.945746,44.6949773 217.1913,44.6178764 C217.436853,44.5407755 217.602751,44.4939144 217.688999,44.4772917 C218.708055,44.4396819 219.75881,44.3215253 220.841297,44.1228184 C221.763641,43.8855028 222.722028,43.6983081 223.716487,43.5612285 C224.710947,43.4241489 225.540802,43.3609732 226.206077,43.3716993 L229.052222,42.8231511 C229.362043,42.6840398 229.653332,42.6527102 229.926099,42.7291612 L230.353773,42.7360566 C230.591372,42.7398873 230.806987,42.6983311 231.000625,42.6113865 C231.116807,42.5592198 231.282705,42.5123587 231.498323,42.4708018 C231.713942,42.4292449 231.860476,42.3910781 231.937931,42.3563003 C231.943164,42.4644645 232.07337,42.538616 232.328552,42.5787569 C232.583734,42.6188978 232.864452,42.6144172 233.170713,42.5653151 C234.45563,42.2978187 235.344465,42.186058 235.837246,42.2300297 C236.277274,42.1650709 237.386121,42.0208314 239.163818,41.7973066 C241.00306,41.7008673 242.215736,41.5763149 242.801882,41.4236454 C244.046185,41.4617205 245.307323,41.193845 246.585334,40.620011 C246.778972,40.5330665 247.060632,40.3844968 247.430324,40.1742976 C247.877471,39.9293205 248.174152,39.641392 248.320377,39.3105033 C248.466601,38.9796146 248.473773,38.6780118 248.341892,38.4056858 C248.201219,38.1152048 247.975139,37.9404359 247.663644,37.8813738 C247.093409,37.8721799 245.134926,38.038747 241.788137,38.3810799 C238.441348,38.7234129 235.812261,39.0142656 233.900796,39.253647 L231.015087,39.7204978 C229.971328,39.9018158 229.440665,39.9743187 229.423081,39.9380086 C229.491744,39.8850757 224.656066,40.1223418 224.462428,40.2092863 C224.307518,40.278842 223.841957,40.3884205 223.065732,40.5380254 L221.325828,40.8882507 C220.600681,40.9486125 219.849117,41.0760962 219.071112,41.2707056 C218.293107,41.465315 217.807293,41.6060898 217.613655,41.6930344 C217.527408,41.7096571 217.400237,41.7391296 217.232139,41.7814526 C217.06404,41.8237757 216.883175,41.8884085 216.689537,41.9753531 C216.443146,41.9533672 216.082777,41.9880864 215.608417,42.0795115 C215.134057,42.1709367 214.786875,42.232888 214.566861,42.2653674 C214.355639,42.3160018 213.910332,42.3943841 213.230925,42.5005166 C212.551519,42.6066492 212.048121,42.7111144 211.720716,42.8139156 C211.423247,42.8811728 210.933927,42.9903683 210.252741,43.1415054 C209.571555,43.2926425 209.153513,43.4029872 208.998603,43.4725429 L206.244774,44.2117183 C205.72729,44.3114548 205.274918,44.4482656 204.887642,44.6221547 C204.384183,44.8482105 203.996441,45.0941416 203.724405,45.3599552 C203.452369,45.6257689 203.282022,45.7851398 203.213359,45.8380727 C202.789029,46.2275241 202.504646,46.5651867 202.360201,46.8510708 C202.215756,47.1369549 202.185715,47.4156727 202.270076,47.6872325 Z M202.493479,12.2088383 L202.317389,12.5000271 C202.042146,12.820014 201.534101,13.7902296 200.793238,15.4107031 C200.052375,17.0311766 199.556433,18.1165415 199.305396,18.6668303 C197.502163,22.6692132 196.100153,25.6397876 195.099322,27.5786425 C194.53888,29.0055183 194.072048,30.0005077 193.69881,30.5636403 C193.704569,30.9123043 193.664576,31.1930083 193.578831,31.4057608 C193.493086,31.6185134 193.358419,31.8800628 193.174826,32.1904168 C192.642494,33.0031171 192.134376,34.0461037 191.650456,35.319408 C191.380971,35.9880589 191.281026,36.6534335 191.350618,37.3155518 C191.438363,38.1503966 191.756132,38.822802 192.303934,39.3327882 C192.851736,39.8427744 193.354754,40.073682 193.813004,40.0255179 C194.381938,39.2671822 196.452818,34.872909 200.025707,26.8425664 C200.910975,24.3919538 201.751625,22.2516721 202.547683,20.421657 C203.34374,18.591642 203.934577,17.3071187 204.32021,16.5680486 C204.372233,16.4752634 204.41813,16.3976761 204.457904,16.3352842 C204.497677,16.2728923 204.532839,16.2400913 204.563389,16.2368804 C204.63054,16.288034 204.674705,16.4143661 204.695885,16.6158804 C204.729168,16.9325456 204.7136,17.2252352 204.649182,17.4939577 C204.501897,18.1497648 204.260722,19.5285113 203.925647,21.6302386 C203.590572,23.7319658 203.283027,25.8016633 203.003001,27.8393932 C202.888121,29.6851309 202.871528,30.9966147 202.953222,31.773884 C203.065174,32.8390309 203.48889,33.7113144 204.224384,34.3907608 C204.959878,35.0702072 205.740038,35.3665784 206.564889,35.2798831 C207.175889,35.2156644 207.905589,34.8115348 208.754011,34.0674823 C209.602433,33.3234298 210.397454,32.5122365 211.139097,31.6338781 C211.88074,30.7555196 212.311289,30.1499895 212.430756,29.8172696 C212.479754,29.6956967 212.664857,29.3997409 212.986071,28.9293934 C213.949714,27.5183509 214.578518,26.448127 214.872501,25.7186897 C214.893974,25.6291155 215.008828,25.3259906 215.217066,24.8093059 C215.425304,24.2926211 215.700762,23.754326 216.04345,23.1944043 L218.656635,17.2004927 C219.418824,15.6359893 220.047921,14.2746813 220.543944,13.1165281 L221.076566,12.0127448 C221.103798,12.2718346 220.674688,15.2420216 219.789224,20.9233949 C218.666974,28.1722612 218.099366,32.1756915 218.086384,32.9338059 C218.092143,33.2824698 218.122253,33.7158851 218.176716,34.2340646 C218.270513,35.1264849 218.459203,35.8197334 218.742791,36.313831 C219.026379,36.8079285 219.55004,37.0148374 220.313791,36.934564 C220.558191,36.9088765 220.742318,36.824037 220.866177,36.6800429 C220.990037,36.5360488 221.128339,36.4560256 221.281089,36.439971 L221.423102,36.4687032 C221.636952,36.4462267 221.883911,36.151046 222.163985,35.5831523 C222.44406,35.0152586 222.59527,34.2499034 222.617622,33.2870638 C222.372539,30.9552559 222.438275,29.376659 222.814831,28.5512256 L222.778522,28.2057743 C222.714982,27.6012316 222.746337,26.7975394 222.872588,25.7946738 C222.998839,24.7918083 223.218615,23.4298636 223.531924,21.708799 C223.937469,19.3959247 224.169567,17.9308162 224.228228,17.3134297 C224.627135,15.5251568 224.951249,13.6865606 225.200578,11.7975859 C225.449908,9.9086112 225.538262,8.61869017 225.465645,7.92778413 C225.402105,7.32324134 225.167445,6.7803512 224.761657,6.29909743 C224.355869,5.81784366 223.885815,5.45977361 223.351483,5.22487653 C222.817151,4.98997946 222.319354,4.88222068 221.858078,4.90159697 C221.399828,4.94976101 221.030061,5.10504639 220.748766,5.36745777 C220.522521,5.56587177 220.215073,6.02021312 219.826414,6.73049546 C219.437755,7.44077779 219.038366,8.1958359 218.628234,8.99569242 C218.325174,9.63876645 217.925785,10.3938246 217.430055,11.2608894 C215.109619,16.2199113 213.423756,19.7223867 212.372416,21.7684206 C211.321075,23.8144545 210.426719,25.4437612 209.689322,26.6563898 L209.023764,27.8178035 L208.518813,28.7440447 C208.374847,29.1375511 208.1905,29.4407037 207.965767,29.6535116 C207.741034,29.8663194 207.59812,29.9759327 207.53702,29.9823545 C207.44537,29.9919873 207.363701,29.9496368 207.292011,29.8553015 C207.220321,29.7609662 207.175399,29.6274374 207.157245,29.4547108 C207.093705,28.8501681 207.258946,27.0428227 207.652974,24.0326204 C208.099317,20.6385446 208.42121,17.9706798 208.618663,16.028946 L208.747939,15.0548731 L208.897566,12.0703732 C208.906936,11.865648 208.893467,11.5905631 208.857158,11.24511 C208.772438,10.439053 208.508131,9.76102852 208.064229,9.21101631 C207.620326,8.66100409 207.122822,8.26216123 206.571702,8.01447575 C206.020582,7.76679026 205.546454,7.66382015 205.149304,7.70556232 C204.782703,7.74409355 204.396686,8.11210061 203.991239,8.80959454 C203.585792,9.50708847 203.219222,10.2805262 202.891517,11.1299309 C202.616775,11.8420565 202.484096,12.2016903 202.493479,12.2088383 Z M227.158582,34.9974503 L228.787292,35.9078884 L229.798735,34.279298 C230.266969,33.4555857 230.719512,32.4132059 231.156377,31.1521273 C231.593243,29.8910487 231.796402,29.1152383 231.765863,28.8246727 C231.789192,28.768807 231.856815,28.648197 231.968736,28.4628391 C232.080656,28.2774812 232.217706,28.1228678 232.379889,27.9989942 C232.37156,27.919749 232.500561,27.619096 232.766895,27.0970263 C233.033229,26.5749566 233.195834,26.177299 233.254715,25.9040418 C233.490779,25.3718001 233.779878,24.9274644 234.122021,24.5710214 C234.464164,24.2145784 234.765198,24.0226997 235.025131,23.9953796 C235.502234,23.8116997 236.66109,23.5163071 238.501734,23.1091927 C240.342377,22.7020784 241.551496,22.4681691 242.129125,22.4074578 L242.688146,22.3086423 L243.108702,28.393634 L243.211947,30.6261476 L243.260243,31.5023934 C243.282454,31.7137138 243.323828,31.8295443 243.384368,31.8498882 C243.444907,31.8702322 243.491005,31.8920935 243.522663,31.915473 C243.605412,32.1471374 243.94462,32.3184603 244.540295,32.4294469 C245.135971,32.5404335 245.722614,32.5655708 246.300244,32.5048595 C246.82011,32.4502193 247.158353,32.3345491 247.314984,32.1578454 L247.262523,31.2419772 L247.233372,30.9646205 C247.168398,30.6242603 247.097043,30.0842776 247.019306,29.344656 C246.866608,27.8918279 246.775009,26.3257742 246.744507,24.6464478 C246.714006,22.9671214 246.702128,20.6315545 246.708875,17.639677 C246.74057,16.2742958 246.737273,14.9927323 246.698982,13.794948 C246.679008,13.0492553 246.679856,12.5016838 246.701527,12.1522169 C246.698248,10.1762538 246.653576,8.77885983 246.56751,7.95999308 C246.503654,7.35244679 246.404248,6.96229793 246.269288,6.78953479 C245.913841,6.18592908 245.233488,5.616482 244.228209,5.08117648 C243.222929,4.54587096 242.272641,4.32527275 241.377316,4.41937524 C241.117382,4.44669531 240.818017,4.58498578 240.479209,4.83425078 C240.140401,5.08351578 239.846029,5.40822662 239.596083,5.80839305 C238.233604,7.84778249 236.981387,10.1025594 235.839394,12.5727914 C234.654638,14.9139837 233.824126,16.5969851 233.347833,17.6218459 C232.87154,18.6467067 232.487315,19.5750802 232.195146,20.4069942 C231.927424,20.9158565 231.545849,21.3832649 231.050411,21.8092336 C230.554972,22.2352024 230.2681,22.4923588 230.189784,22.5807107 C229.749892,22.8406001 229.54383,23.1026162 229.571593,23.3667668 C229.582699,23.472427 229.605468,23.5501532 229.639902,23.5999478 C229.748179,24.630135 229.295203,26.2934855 228.280959,28.5900494 C227.881594,29.5133509 227.613316,30.1557965 227.47612,30.5174056 C226.980663,31.6377547 226.635874,32.4551574 226.441744,32.9696382 C226.247614,33.4841191 226.164431,33.8734289 226.192195,34.1375795 C226.214405,34.3488999 226.297434,34.5137653 226.441282,34.6321806 C226.58513,34.7505958 226.824228,34.8723512 227.158582,34.9974503 Z" id="Combined-Shape"></path>
                <path d="M233.811878,20.0384154 C234.011637,20.0128636 234.411148,19.9553729 235.010425,19.8659416 C235.609702,19.7765102 236.137628,19.7190195 236.59422,19.6934677 C237.963996,19.386846 238.905702,19.2335374 239.419368,19.2335374 C239.704738,19.2335374 239.904494,19.2590888 240.018642,19.3101924 C240.104253,19.4123997 240.196997,19.4826661 240.296876,19.5209938 C240.396756,19.5593216 240.460963,19.5784851 240.4895,19.5784851 C240.546574,19.3740706 240.774866,17.9815178 241.174384,15.4007848 C241.573902,12.8200518 241.773658,11.2358632 241.773658,10.6481715 C241.773658,10.2393425 241.75939,9.88801041 241.730853,9.59416457 C241.702316,9.30031873 241.673779,9.11507088 241.645242,9.03841544 C241.388409,9.03841544 240.80341,9.64526187 239.890226,10.8589729 C238.977042,12.072684 238.092409,13.4460733 237.236299,14.979182 C236.579949,16.0268063 236.123364,16.5506106 235.866531,16.5506106 C235.666772,16.7294732 235.238723,17.3299318 234.582373,18.3520043 C233.926022,19.3740768 233.669193,19.9362082 233.811878,20.0384154 Z" id="Path" transform="translate(237.773658, 14.538415) rotate(-6.000000) translate(-237.773658, -14.538415) "></path>
                <text id="Santé-Façon" font-family="Gilroy-Heavy" font-size="25" font-weight="600">
                    <tspan x="266" y="22">Santé</tspan>
                    <tspan x="266" y="47">Façon</tspan>
                </text>
            </g>
        </g>
    </g>
</svg>