<?xml version="1.0" encoding="UTF-8"?>
<svg width="235px" height="38px" viewBox="0 0 235 38" version="1.1" xmlns="http://www.w3.org/2000/svg" xmlns:xlink="http://www.w3.org/1999/xlink">
    <!-- Generator: Sketch 53.1 (72631) - https://sketchapp.com -->
    <title>Group 3</title>
    <desc>Created with Sketch.</desc>
    <g id="Page-1" stroke="none" stroke-width="1" fill="none" fill-rule="evenodd">
        <g id="Inital-Screen---I-live-Copy-3" transform="translate(-12.000000, -8.000000)" fill="#FFFFFF">
            <g id="Group-3" transform="translate(12.000000, 8.000000)">
                <g id="Group-2">
                    <path d="M5,0 L51,-8.8817842e-16 C53.7614237,3.50983023e-15 56,2.23857625 56,5 L56,33 C56,35.7614237 53.7614237,38 51,38 L5,38 C2.23857625,38 3.38176876e-16,35.7614237 0,33 L0,5 C-3.38176876e-16,2.23857625 2.23857625,-1.26909153e-15 5,-1.77635684e-15 Z M14.5374243,8.07975986 C14.3665572,8.60521586 14.2844983,8.8704523 14.291246,8.87547401 L14.1769412,9.0916611 C13.9943539,9.33093173 13.6683401,10.0496103 13.19889,11.2477184 C12.72944,12.4458265 12.4152018,13.2482927 12.256166,13.6551411 C11.1152296,16.6137757 10.2240568,18.8110045 9.58262079,20.2468932 C9.23332448,21.299949 8.93675753,22.0358498 8.69291102,22.4546175 C8.70703563,22.708964 8.68729734,22.9146642 8.63369556,23.0717242 C8.58009379,23.2287842 8.49380454,23.4224768 8.37482522,23.652808 C8.0273142,24.2570325 7.70335955,25.0288233 7.40295157,25.9682035 C7.23448884,26.4618206 7.18411355,26.9495149 7.25182417,27.431301 C7.33719843,28.0387705 7.57820675,28.5228946 7.97485635,28.883688 C8.37150595,29.2444813 8.72884544,29.4025268 9.04688554,29.3578292 C9.42148712,28.7925192 10.7376312,25.5422946 12.9953572,19.607058 C13.541397,17.8000789 14.0653336,16.2205189 14.5671828,14.8683307 C15.0690319,13.5161424 15.4436436,12.5663471 15.6910292,12.0189162 C15.7246027,11.9501148 15.7543471,11.8925329 15.7802632,11.8461687 C15.8061793,11.7998045 15.8297384,11.7751328 15.8509411,11.772153 C15.8992343,11.8080877 15.9336842,11.899369 15.9542917,12.0459996 C15.9866751,12.276419 15.9843105,12.4903578 15.947198,12.6878223 C15.8635459,13.1695201 15.7354076,14.1807988 15.5627793,15.7216886 C15.3901509,17.2625785 15.2357836,18.7795186 15.0996726,20.2725544 C15.0731141,21.6220278 15.0995777,22.5795376 15.1790641,23.1451126 C15.2879898,23.9201598 15.6086479,24.5479546 16.1410478,25.0285157 C16.6734477,25.5090769 17.2258755,25.7091266 17.7983476,25.6286709 C18.2224011,25.5690741 18.7193412,25.2589265 19.2891827,24.6982187 C19.8590243,24.137511 20.389694,23.5289141 20.8812078,22.8724098 C21.3727216,22.2159055 21.6552893,21.7650008 21.7289194,21.5196821 C21.7595489,21.4299335 21.8799984,21.2100793 22.0902714,20.8601129 C22.7210903,19.8102136 23.1283825,19.0160302 23.31216,18.4775388 C23.3245308,18.4117173 23.3958031,18.1880942 23.5259788,17.8066628 C23.6561545,17.4252313 23.8325617,17.0266276 24.0552055,16.6108397 L25.7029938,12.1818494 C26.188933,11.0241459 26.5879885,10.0175136 26.9001723,9.1619223 L27.2394449,8.34524973 C27.2659403,8.53377472 27.0529453,10.7104541 26.6004535,14.875353 C26.0283558,20.1891927 25.7487783,23.1228522 25.7617127,23.6764195 C25.7758373,23.930766 25.8093946,24.2464595 25.8623855,24.6235095 C25.9536476,25.2728733 26.1052819,25.7748983 26.3172929,26.1295995 C26.5293038,26.4843007 26.9003372,26.6244012 27.430404,26.5499051 C27.6000254,26.5260664 27.7259164,26.4603121 27.8080807,26.3526404 C27.890245,26.2449686 27.9843324,26.183684 28.0903457,26.1687848 L28.1901732,26.1867962 C28.3385919,26.1659374 28.5021821,25.9453603 28.6809486,25.5250584 C28.8597151,25.1047566 28.9429274,24.5430252 28.9305881,23.8398475 C28.692129,22.1431226 28.6921763,20.9896411 28.93073,20.3793685 L28.8954029,20.1280031 C28.8335801,19.6881114 28.8321318,19.1008972 28.8910579,18.3663429 C28.949984,17.6317885 29.0636925,16.6332182 29.2321867,15.3706018 C29.4478155,13.6741419 29.5671221,12.6000225 29.5901101,12.1482115 C29.8163245,10.8347612 29.9889424,9.48614129 30.107969,8.1023114 C30.2269956,6.7184815 30.2511812,5.77521404 30.1805267,5.27248072 C30.1187039,4.83258906 29.9393844,4.44125819 29.6425628,4.09847638 C29.3457411,3.75569456 29.0076936,3.50415501 28.6284101,3.34385017 C28.2491266,3.18354534 27.898998,3.11526914 27.578014,3.13901954 C27.2599739,3.18371716 27.00672,3.30475225 26.8182448,3.50212844 C26.6662871,3.6516505 26.4651465,3.98964833 26.214817,4.51613205 C25.9644875,5.04261577 25.7079765,5.60200186 25.4452761,6.19430709 C25.2526668,6.66995684 24.9961557,7.22934293 24.6757353,7.87248212 C23.2020076,11.5400775 22.1283911,14.1314181 21.4548535,15.6465819 C20.7813159,17.1617456 20.2051252,18.369498 19.726264,19.2698752 L19.2959957,20.1313777 L18.9708634,20.8178978 C18.8819186,21.1080907 18.7622051,21.3331817 18.6117193,21.4931773 C18.4612335,21.653173 18.3647894,21.7361494 18.3223841,21.7421091 C18.258776,21.7510486 18.2006183,21.721841 18.1479092,21.6544855 C18.0952001,21.5871299 18.0600142,21.4906118 18.0423506,21.3649285 C17.9805278,20.9250369 18.0433053,19.6025344 18.2306849,17.3973814 C18.4434013,14.910975 18.5904247,12.9571738 18.6717594,11.5359193 L18.7336291,10.8223157 L18.7513872,8.64101237 C18.7519823,8.49140197 18.7346165,8.29091645 18.6992892,8.03954979 C18.6168589,7.45302758 18.4129547,6.9636888 18.0875705,6.57151877 C17.7621863,6.17934874 17.4038212,5.89862367 17.0124644,5.72933515 C16.6211075,5.56004662 16.2876168,5.49477231 16.011982,5.53351025 C15.7575499,5.56926835 15.4991364,5.84589326 15.2367336,6.36339329 C14.9743308,6.88089333 14.74123,7.45300979 14.5374243,8.07975986 Z M37.9070047,24.6263424 C37.9623818,24.6185597 38.0341163,24.5262694 38.1222104,24.3494688 C38.2103045,24.1726682 38.2951661,24.0398466 38.3767977,23.951 C38.3634682,23.8561559 38.3929535,23.7311169 38.4652545,23.5758794 C38.5375555,23.4206419 38.5816019,23.3322429 38.597395,23.3106798 C38.7315356,23.0597056 38.9050553,22.6871412 39.1179593,22.1929754 C39.1649343,21.857534 39.2002155,21.6398002 39.2238041,21.5397675 C39.2705768,21.06895 39.2991935,20.8037948 39.3096548,20.7442941 C39.3201162,20.6847933 39.4379562,20.1169504 39.6631786,19.0407484 C39.8151715,18.3810516 39.901628,17.9917083 39.9225507,17.8727068 C39.9699301,17.8080175 39.999466,17.7168221 40.0111592,17.5991177 C40.0228523,17.4814133 40.0352624,17.4022963 40.0483896,17.3617644 C40.3404616,16.8951593 40.5731541,16.4078911 40.7464742,15.8999449 C40.8354968,15.4618766 40.9792279,15.01129 41.1776717,14.5481718 C41.3761156,14.0850535 41.5858863,13.7025585 41.8069903,13.4006754 L42.2401872,12.0631288 C42.21886,11.9113781 42.2845964,11.7764086 42.4373983,11.6582161 L42.5795358,11.4641494 C42.6585015,11.3563339 42.6913191,11.2550057 42.6779897,11.1601615 C42.669992,11.103255 42.682402,11.024138 42.7152201,10.9228082 C42.7480382,10.8214784 42.7617812,10.7518457 42.7564494,10.7139081 C42.8514105,10.7199057 42.9568313,10.6664033 43.0727151,10.5533994 C43.1885989,10.4403955 43.2741269,10.312316 43.3293018,10.1691572 C43.5077514,9.56377267 43.6943982,9.15067693 43.8892476,8.9298576 C43.9733429,8.72460376 44.2020367,8.20888265 44.5753358,7.3826788 C45.0778481,6.5383152 45.3565865,5.97687436 45.4115591,5.69833943 C45.8406398,5.13510501 46.0111903,4.54051095 45.9232157,3.91453939 C45.9098863,3.81969522 45.8714336,3.6800253 45.8078566,3.49552545 C45.7389477,3.27308792 45.5850772,3.1157883 45.3462405,3.02362185 C45.1074037,2.93145541 44.8495464,2.90482945 44.5726609,2.94374317 C44.2773163,2.98525115 44.0545794,3.07458442 43.9044434,3.21174566 C43.7149257,3.47050266 43.234929,4.37455572 42.4644388,5.92393197 C41.6939486,7.47330821 41.1076026,8.69212748 40.7053831,9.58042634 L40.1891209,10.929647 C40.013135,11.4186243 39.9066845,11.6657035 39.8697665,11.670892 C39.8459756,11.6355485 39.7712719,11.5058092 39.645653,11.28167 C39.5200341,11.0575308 39.3157146,10.6752028 39.0326884,10.1346744 C38.9533182,9.97173768 38.8542081,9.8357568 38.735355,9.72672774 C38.616502,9.61769868 38.5372847,9.5562949 38.4977007,9.54251456 L38.4300241,9.26187482 L38.4180276,9.17651549 C38.2543599,9.08345646 38.0509091,8.84124464 37.8076691,8.44987276 C37.6017515,8.32406456 37.4802344,8.19606859 37.4431141,8.06588099 C37.395128,7.72444196 37.2905345,7.44899344 37.1293305,7.23952716 C36.9523333,7.05162396 36.793747,6.82728586 36.6535669,6.56650612 C36.5133867,6.30572638 36.4378648,6.06971433 36.426999,5.8584629 C36.2048838,5.4834656 36.0620399,5.20372122 35.9984629,5.01922137 C35.8928382,4.93734843 35.778712,4.46013592 35.6560808,3.58756951 C35.6216263,3.47635075 35.4751375,3.40505816 35.2166099,3.37368959 C34.9580823,3.34232102 34.8261545,3.30766842 34.8208227,3.26973075 C34.7149958,3.05248173 34.5236425,2.96331541 34.2467569,3.00222914 C34.0990846,3.02298313 33.9475169,3.08297101 33.7920492,3.18219458 C33.6365814,3.28141816 33.5128029,3.40520176 33.42071,3.55354909 C33.3128239,3.72345951 33.2948707,4.06448888 33.3668499,4.57664742 C33.4308314,5.03189946 33.5462905,5.51859625 33.7132308,6.03675238 C33.8643779,6.5764716 34.2968074,7.37647053 35.0105323,8.43677318 C35.0343231,8.4721166 35.0905681,8.60445017 35.1792689,8.83377786 C35.2679697,9.06310555 35.3480052,9.23078202 35.4193776,9.33681228 C36.1226411,10.4566157 36.7663674,11.4542015 37.3505756,12.3295998 C37.9347838,13.204998 38.2677999,13.665955 38.3496337,13.7124845 C38.4525925,13.7753886 38.5107357,13.8542615 38.5240652,13.9491057 C38.5347288,14.0249811 38.4809888,14.2453091 38.3628436,14.6100963 L38.1108624,15.4289179 C37.9320083,15.7635502 37.8026361,16.1154027 37.7227419,16.4844859 C37.6428478,16.8535691 37.6095659,17.0855293 37.6228954,17.1803735 C37.6097681,17.2209054 37.5946923,17.2810538 37.5776673,17.3608205 C37.5606423,17.4405872 37.5587946,17.5278914 37.5721241,17.6227355 C37.4746993,17.7331452 37.3898883,17.8998103 37.3176885,18.1227358 C37.2454886,18.3456614 37.1883657,18.5084352 37.1463181,18.6110621 C37.1227295,18.7110948 37.0485314,18.9197906 36.9237214,19.2371558 C36.7989115,19.5545209 36.7287121,19.7916696 36.7131212,19.9486087 C36.6764054,20.0891733 36.6147689,20.3202827 36.52821,20.6419438 C36.4416511,20.9636049 36.403704,21.1623701 36.4143676,21.2382455 L36.1749896,22.5485526 C36.0962261,22.7917441 36.0701742,23.0081808 36.0968332,23.1978692 C36.1314898,23.444464 36.2201387,23.6399447 36.3627826,23.7843172 C36.5054265,23.9286897 36.5886425,24.0185463 36.6124334,24.0538897 C36.8132213,24.2771364 37.0139052,24.4326926 37.2144909,24.5205631 C37.4150767,24.6084336 37.6459123,24.6436931 37.9070047,24.6263424 Z M14.7052379,33.9571784 C14.7234733,33.995962 14.8646164,34.0015125 15.1286716,33.9738301 C15.3927267,33.9461477 15.5934967,33.9398617 15.7309876,33.9549718 C15.8648607,33.8930602 16.0473956,33.8479911 16.2785976,33.8197632 C16.5097997,33.7915352 16.6418253,33.7776942 16.6746784,33.7782398 C17.0506801,33.7460029 17.6055567,33.6782568 18.3393248,33.5749994 C18.8248859,33.4291395 19.1406767,33.3381829 19.2867068,33.3021271 C19.9657687,33.0825188 20.3484951,32.960607 20.4348974,32.9363879 C20.5212998,32.9121689 21.3481882,32.6950189 22.9155875,32.2849314 C23.8781704,32.0443775 24.4458556,31.8998836 24.6186603,31.8514455 C24.7172196,31.8530822 24.85138,31.8264499 25.0211455,31.7715478 C25.1909109,31.7166457 25.3056058,31.6832768 25.3652336,31.6714401 C26.0697663,31.6446588 26.7962146,31.5605217 27.5446004,31.4190263 C28.18227,31.2500384 28.8448587,31.1167406 29.5323864,31.0191288 C30.2199141,30.921517 30.793641,30.8765307 31.2535843,30.8841686 L33.2212894,30.4935578 C33.4354864,30.3944993 33.6368716,30.37219 33.825451,30.4266293 L34.1211273,30.4315394 C34.2853928,30.4342672 34.4344599,30.4046758 34.568333,30.3427642 C34.6486569,30.3056173 34.7633518,30.2722483 34.9124211,30.2426565 C35.0614904,30.2130646 35.1627982,30.1858867 35.2163475,30.1611221 C35.2199652,30.2381438 35.3099839,30.2909457 35.4864063,30.3195292 C35.6628287,30.3481128 35.8569051,30.3449223 36.0686414,30.3099576 C36.9569788,30.1194785 37.5714822,30.0398958 37.9121701,30.0712072 C38.2163872,30.0249513 38.9829969,29.922241 40.2120222,29.7630733 C41.4835968,29.6944007 42.3219901,29.6057092 42.7272272,29.4969962 C43.5874862,29.5241087 44.4593839,29.3333597 45.3429467,28.9247433 C45.4768199,28.8628317 45.6715482,28.7570381 45.9271376,28.6073592 C46.2362762,28.4329156 46.4413892,28.2278871 46.5424827,27.9922675 C46.6435762,27.756648 46.6485344,27.5418823 46.5573574,27.3479641 C46.4601019,27.1411181 46.3037995,27.0166684 46.0884456,26.9746114 C45.6942084,26.9680646 44.3401955,27.0866739 42.0263661,27.3304427 C39.7125367,27.5742115 37.8948963,27.7813223 36.5733901,27.9517812 L34.5783321,28.2842169 C33.8567209,28.4133301 33.4898424,28.464958 33.4776854,28.4391022 C33.5251562,28.4014097 30.1819715,28.5703624 30.0480983,28.632274 C29.9409998,28.6818033 29.6191306,28.7598321 29.0824811,28.8663629 L27.8795845,29.1157517 C27.3782489,29.1587342 26.8586489,29.2495129 26.320769,29.3880906 C25.782889,29.5266683 25.4470176,29.6269114 25.3131444,29.688823 C25.2535167,29.7006597 25.165596,29.7216465 25.0493798,29.751784 C24.9331636,29.7819214 24.8081208,29.8279452 24.6742476,29.8898568 C24.5039037,29.8742011 24.2547592,29.8989239 23.9268067,29.9640261 C23.5988542,30.0291282 23.3588273,30.0732426 23.2067188,30.0963705 C23.0606887,30.1324263 22.7528218,30.1882409 22.2831088,30.2638159 C21.8133959,30.3393908 21.4653676,30.4137786 21.2390137,30.4869813 C21.0333559,30.5348739 20.6950604,30.61263 20.224117,30.7202519 C19.7531737,30.8278737 19.4641571,30.9064481 19.3570586,30.9559774 L17.4531771,31.4823303 C17.0954107,31.5533508 16.7826591,31.6507711 16.5149128,31.7745943 C16.1668426,31.9355644 15.8987744,32.1106872 15.7107,32.2999681 C15.5226257,32.489249 15.4048549,32.602734 15.3573841,32.6404265 C15.0640201,32.9177475 14.8674095,33.1581907 14.7675464,33.3617634 C14.6676833,33.5653361 14.646914,33.7638058 14.7052379,33.9571784 Z" id="Combined-Shape"></path>
                    <path d="M66.9564574,2.69230769 L70.8795181,2.69230769 L70.8795181,15.8461538 L66.9564574,15.8461538 L66.9564574,10.998022 L63.6218558,10.998022 L63.6218558,15.8461538 L59.6987952,15.8461538 L59.6987952,2.69230769 L63.6218558,2.69230769 L63.6218558,7.35252747 L66.9564574,7.35252747 L66.9564574,2.69230769 Z M75.7485426,12.1564685 C76.0455651,12.7683597 76.6767287,13.0743007 77.6420521,13.0743007 C78.2113454,13.0743007 78.737315,12.8784985 79.2199767,12.4868881 L81.4661988,14.3592657 C80.5380032,15.3505294 79.2261731,15.8461538 77.5306692,15.8461538 C75.9465487,15.8461538 74.6749398,15.3903018 73.7158044,14.4785839 C72.756669,13.5668661 72.2771084,12.4195873 72.2771084,11.0367133 C72.2771084,9.64160142 72.7442932,8.47902563 73.6786768,7.54895105 C74.6130603,6.61887647 75.791851,6.15384615 77.2150842,6.15384615 C78.6259415,6.15384615 79.7861686,6.60969824 80.6958003,7.52141608 C81.605432,8.43313393 82.060241,9.58041267 82.060241,10.9632867 C82.060241,11.3671349 82.0107379,11.7648582 81.9117304,12.1564685 L75.7485426,12.1564685 Z M75.7710843,10.3076923 L79.2650602,10.3076923 C79.0293543,9.38461077 78.4678281,8.92307692 77.5804647,8.92307692 C76.6792363,8.92307692 76.0761155,9.38461077 75.7710843,10.3076923 Z M89.7023569,6.41083916 L93.2409639,6.41083916 L93.2409639,15.5891608 L89.7023569,15.5891608 L89.7023569,14.7631119 C89.0902704,15.4851435 88.2359126,15.8461538 87.1392578,15.8461538 C85.8513259,15.8461538 84.7993181,15.3872424 83.9832029,14.4694056 C83.1670876,13.5515688 82.7590361,12.3951119 82.7590361,11 C82.7590361,9.60488813 83.1670876,8.44843116 83.9832029,7.53059441 C84.7993181,6.61275765 85.8513259,6.15384615 87.1392578,6.15384615 C88.2359126,6.15384615 89.0902704,6.51485653 89.7023569,7.23688811 L89.7023569,6.41083916 Z M86.7241099,11.8874795 C87.0512629,12.2189051 87.4765553,12.3846154 88,12.3846154 C88.5234447,12.3846154 88.9454657,12.2189051 89.2660755,11.8874795 C89.5866854,11.556054 89.746988,11.144847 89.746988,10.6538462 C89.746988,10.1628453 89.5866854,9.75163832 89.2660755,9.42021277 C88.9454657,9.08878721 88.5234447,8.92307692 88,8.92307692 C87.4765553,8.92307692 87.0545343,9.08878721 86.7339245,9.42021277 C86.4133146,9.75163832 86.253012,10.1628453 86.253012,10.6538462 C86.253012,11.144847 86.4100431,11.556054 86.7241099,11.8874795 Z M94.6385542,15.8461538 L94.6385542,2 L98.1325301,2 L98.1325301,15.8461538 L94.6385542,15.8461538 Z M106.518072,9.82673657 L104.47992,9.82673657 L104.47992,11.7918627 C104.47992,12.0951244 104.557563,12.3195347 104.712851,12.4651004 C104.86814,12.610666 105.097834,12.6925454 105.401941,12.7107411 C105.706048,12.7289368 106.078088,12.7259043 106.518072,12.7016433 L106.518072,15.722115 C104.48638,15.9889853 103.040277,15.8252264 102.179719,15.2308334 C101.319161,14.6364405 100.888889,13.5507798 100.888889,11.9738188 L100.888889,9.82673657 L99.5301205,9.82673657 L99.5301205,6.6243088 L100.888889,6.6243088 L100.888889,5.07768176 L104.47992,4.07692308 L104.47992,6.6243088 L106.518072,6.6243088 L106.518072,9.82673657 Z M113.458506,6.18747253 C114.528134,6.18747253 115.38578,6.54137009 116.03147,7.24917582 C116.67716,7.95698156 117,9.01241057 117,10.4154945 L117,15.8461538 L113.380241,15.8461538 L113.380241,10.7913187 C113.380241,9.95197383 112.975876,9.53230769 112.167133,9.53230769 C111.736673,9.53230769 111.40731,9.66384484 111.179036,9.92692308 C110.950762,10.1900013 110.836627,10.5532944 110.836627,11.0168132 L110.836627,15.8461538 L107.216867,15.8461538 L107.216867,2.69230769 L110.836627,2.69230769 L110.836627,7.37131868 C111.436662,6.58208397 112.310613,6.18747253 113.458506,6.18747253 Z M62.8357629,34.5384615 L59,21.3846154 L63.2619587,21.3846154 L65.10235,28.6192308 L67.291447,21.3846154 L70.2748181,21.3846154 L72.4639151,28.6192308 L74.3043063,21.3846154 L78.5662651,21.3846154 L74.7305022,34.5384615 L70.9141119,34.5384615 L68.7831325,27.5105495 L66.6521532,34.5384615 L62.8357629,34.5384615 Z M85.5095858,25.1031469 L89.0481928,25.1031469 L89.0481928,34.2814685 L85.5095858,34.2814685 L85.5095858,33.4554196 C84.8974994,34.1774512 84.0431415,34.5384615 82.9464867,34.5384615 C81.6585548,34.5384615 80.606547,34.07955 79.7904318,33.1617133 C78.9743166,32.2438765 78.5662651,31.0874196 78.5662651,29.6923077 C78.5662651,28.2971958 78.9743166,27.1407389 79.7904318,26.2229021 C80.606547,25.3050653 81.6585548,24.8461538 82.9464867,24.8461538 C84.0431415,24.8461538 84.8974994,25.2071642 85.5095858,25.9291958 L85.5095858,25.1031469 Z M82.5313388,30.5797872 C82.8584918,30.9112128 83.2837842,31.0769231 83.8072289,31.0769231 C84.3306736,31.0769231 84.7526946,30.9112128 85.0733045,30.5797872 C85.3939143,30.2483617 85.5542169,29.8371547 85.5542169,29.3461538 C85.5542169,28.855153 85.3939143,28.443946 85.0733045,28.1125205 C84.7526946,27.7810949 84.3306736,27.6153846 83.8072289,27.6153846 C83.2837842,27.6153846 82.8617633,27.7810949 82.5411534,28.1125205 C82.2205435,28.443946 82.060241,28.855153 82.060241,29.3461538 C82.060241,29.8371547 82.217272,30.2483617 82.5313388,30.5797872 Z M96.8084971,24.8461538 L100.927711,24.8461538 L97.5931093,34.2167116 C97.1092627,35.5813019 96.3573503,36.5671724 95.3373494,37.1743525 C94.3173485,37.7815326 92.9704445,38.0538207 91.2965969,37.9912248 L91.2965969,34.704957 C91.9635206,34.704957 92.4735133,34.6580108 92.8265906,34.564117 C93.1796678,34.4702232 93.4608177,34.2980871 93.6700486,34.0477035 L89.746988,24.8461538 L93.8662016,24.8461538 L95.6119636,29.8600595 L96.8084971,24.8461538 Z" id="HealthWay" fill-rule="nonzero"></path>
                </g>
                <g id="Group" transform="translate(126.000000, 0.000000)">
                    <path d="M5,0 L52,0 C54.7614237,-5.07265313e-16 57,2.23857625 57,5 L57,31.5647059 C57,34.3261296 54.7614237,36.5647059 52,36.5647059 L5,36.5647059 C2.23857625,36.5647059 3.38176876e-16,34.3261296 0,31.5647059 L0,5 C-3.38176876e-16,2.23857625 2.23857625,2.28362215e-15 5,1.77635684e-15 Z M14.9678314,32.6745852 C14.9863925,32.711904 15.130056,32.7172449 15.3988264,32.6906081 C15.6675969,32.6639712 15.871952,32.6579226 16.0118981,32.672462 C16.1481618,32.6128889 16.3339562,32.5695221 16.5692869,32.5423604 C16.8046175,32.5151986 16.9390007,32.5018804 16.9724405,32.5024053 C17.3551566,32.4713861 17.9199417,32.4061988 18.6668128,32.3068415 C19.1610445,32.1664909 19.4824745,32.0789698 19.6311122,32.0442759 C20.3223003,31.8329624 20.7118611,31.7156553 20.7998063,31.692351 C20.8877516,31.6690467 21.7294059,31.4600987 23.3247945,31.0655006 C24.3045663,30.8340326 24.8823888,30.6949964 25.0582793,30.6483878 C25.1585985,30.6499626 25.2951546,30.6243363 25.4679516,30.5715079 C25.6407486,30.5186795 25.7574916,30.486571 25.8181841,30.4751813 C26.5352978,30.4494117 27.2747184,30.3684525 28.0364683,30.2323015 C28.6855248,30.0696964 29.3599454,29.9414333 30.0597504,29.8475084 C30.7595554,29.7535835 31.3435274,29.7102964 31.811684,29.7176458 L33.8145267,29.3417887 C34.0325487,29.2464717 34.23753,29.2250051 34.4294769,29.2773882 L34.7304332,29.2821128 C34.897632,29.2847376 35.049361,29.2562639 35.1856247,29.1966908 C35.2673829,29.1609469 35.384126,29.1288383 35.5358572,29.1003642 C35.6875885,29.07189 35.7907053,29.0457387 35.8452108,29.0219095 C35.8488931,29.096022 35.9405193,29.1468295 36.1200921,29.1743334 C36.2996649,29.2018374 36.497207,29.1987674 36.7127243,29.1651233 C37.6169249,28.9818387 38.2424016,28.905262 38.5891732,28.9353907 C38.8988227,28.8908819 39.6791219,28.7920511 40.930094,28.6388953 C42.2243753,28.5728165 43.0777399,28.487475 43.4902134,28.3828682 C44.3658341,28.4089566 45.2533015,28.2254123 46.1526422,27.8322298 C46.2889059,27.7726566 46.4871116,27.6708589 46.747265,27.5268335 C47.061924,27.3589789 47.2706997,27.1616945 47.3735984,26.9349745 C47.4764972,26.7082544 47.4815439,26.5016007 47.3887388,26.315007 C47.2897466,26.1159737 47.1306531,25.9962246 46.9114535,25.9557561 C46.5101764,25.9494566 45.1319847,26.0635859 42.7768369,26.2981473 C40.4216892,26.5327088 38.5715908,26.7319968 37.2264864,26.8960174 L35.1958023,27.2158967 C34.4613052,27.3401331 34.0878753,27.3898109 34.0755012,27.3649318 C34.1238197,27.328663 30.7209353,27.4912342 30.5846715,27.5508073 C30.4756605,27.5984658 30.1480437,27.6735474 29.6018111,27.7760544 L28.3774342,28.0160236 C27.8671462,28.0573826 27.3382676,28.1447326 26.7907827,28.278076 C26.2432978,28.4114195 25.9014286,28.5078764 25.7651648,28.5674495 C25.7044723,28.5788391 25.6149817,28.5990332 25.4966902,28.6280324 C25.3783987,28.6570315 25.2511229,28.7013169 25.1148592,28.7608901 C24.9414734,28.7458257 24.6878799,28.7696147 24.3540711,28.8322579 C24.0202623,28.8949011 23.7759492,28.9373492 23.6211245,28.9596036 C23.4724867,28.9942975 23.1591222,29.0480039 22.6810215,29.1207244 C22.2029208,29.1934448 21.8486778,29.2650229 21.6182818,29.3354607 C21.4089515,29.3815443 21.064615,29.4563634 20.585262,29.5599204 C20.1059089,29.6634773 19.8117313,29.7390838 19.7027203,29.7867423 L17.7648409,30.2932144 C17.4006859,30.3615524 17.0823494,30.4552931 16.8098219,30.5744393 C16.4555362,30.7293294 16.1826811,30.8978378 15.9912483,31.0799693 C15.7998155,31.2621009 15.6799416,31.3712995 15.6316231,31.4075683 C15.3330205,31.6744146 15.132899,31.9057761 15.0312526,32.1016597 C14.9296062,32.2975432 14.908466,32.4885165 14.9678314,32.6745852 Z M15.1250407,8.46490222 L15.0011255,8.6667957 C14.807436,8.88865609 14.4499227,9.56134747 13.9285749,10.68489 C13.4072272,11.8084326 13.0582306,12.5609618 12.8815747,12.9425003 C11.6126333,15.7175211 10.6260333,17.7771455 9.92174514,19.1214353 C9.52736019,20.1107485 9.19884838,20.8006165 8.93619987,21.1910601 C8.94025219,21.4328035 8.91210922,21.6274275 8.85177011,21.7749378 C8.79143099,21.9224481 8.69666534,22.1037913 8.56747029,22.3189729 C8.19286647,22.8824522 7.83530167,23.6055988 7.49476516,24.4884344 C7.30512796,24.9520382 7.23479628,25.4133704 7.28376804,25.872445 C7.34551503,26.451278 7.56913021,26.9174851 7.95462029,27.27108 C8.34011036,27.6246749 8.69408629,27.7847729 9.01655868,27.7513787 C9.41691907,27.2255926 10.8742051,24.1788577 13.3884606,18.6110827 C14.0114267,16.9119697 14.6029953,15.4280222 15.163184,14.1591956 C15.7233727,12.890369 16.1391465,11.9997549 16.4105179,11.4873264 C16.4471266,11.4229946 16.4794249,11.3692 16.5074137,11.3259411 C16.5354026,11.2826821 16.5601457,11.2599399 16.5816439,11.2577136 C16.6288986,11.2931806 16.6599777,11.3807719 16.6748822,11.5204902 C16.6983034,11.7400476 16.6873484,11.9429816 16.6420168,12.1292983 C16.5383722,12.583997 16.3686559,13.5399401 16.1328627,14.9971561 C15.8970695,16.4543722 15.6806485,17.8893807 15.4835932,19.3022248 C15.4027516,20.5819525 15.3910753,21.4912596 15.4485639,22.0301731 C15.5273445,22.7686843 15.8255153,23.3734753 16.3430851,23.8445641 C16.8606549,24.315653 17.4096567,24.5211396 17.990107,24.4610301 C18.4200702,24.4165045 18.9335629,24.1363045 19.5306005,23.6204215 C20.1276381,23.1045385 20.6870971,22.542104 21.2089942,21.9331011 C21.7308914,21.3240982 22.0338701,20.9042586 22.1179397,20.6735698 C22.1524192,20.5892782 22.2826769,20.3840796 22.5087167,20.0579679 C23.1868361,19.0796326 23.6293277,18.3376013 23.8362046,17.8318517 C23.8513152,17.7697461 23.9321381,17.5595768 24.078676,17.2013375 C24.2252138,16.8430982 24.419055,16.4698755 24.6602054,16.0816582 L26.4991138,11.9258266 C27.035469,10.8410905 27.4781667,9.89723828 27.82722,9.09424178 L28.2020281,8.32894236 C28.2211909,8.50858022 27.9192249,10.567936 27.2961209,14.5070716 C26.5063888,19.5330162 26.1069612,22.3087632 26.0978261,22.8343958 C26.1018784,23.0761392 26.1230671,23.3766443 26.1613928,23.73592 C26.2273982,24.3546726 26.3601799,24.8353311 26.5597418,25.1779097 C26.7593037,25.5204883 27.1278061,25.663947 27.6652601,25.6082901 C27.8372454,25.5904799 27.9668162,25.5316571 28.0539765,25.4318199 C28.1411368,25.3319827 28.2384609,25.2764993 28.3459517,25.2653679 L28.4458867,25.2852892 C28.5963738,25.2697052 28.7701595,25.065044 28.9672489,24.6712994 C29.1643384,24.2775547 29.2707459,23.7469017 29.2864747,23.0793245 C29.114009,21.4625838 29.1602673,20.368076 29.4252511,19.7957682 L29.3997008,19.5562523 C29.3549874,19.1370973 29.377052,18.5798636 29.4658952,17.8845347 C29.5547384,17.1892057 29.7093959,16.244912 29.9298725,15.0516254 C30.2152557,13.4480122 30.3785845,12.4321907 30.4198638,12.0041306 C30.7005765,10.7642456 30.9286564,9.48946937 31.1041105,8.17976359 C31.2795646,6.87005781 31.3417402,5.97570119 31.2906392,5.49666691 C31.2459259,5.07751191 31.0807944,4.70110329 30.7952399,4.36742977 C30.5096853,4.03375624 30.1789072,3.78549118 29.8028955,3.62262714 C29.4268838,3.45976309 29.0765824,3.38504939 28.7519808,3.39848379 C28.4295084,3.43187795 28.1693021,3.53954385 27.9713542,3.72148472 C27.8121442,3.85905351 27.5957921,4.17406752 27.3222914,4.6665362 C27.0487908,5.15900488 26.7677391,5.6825185 26.4791279,6.23709274 C26.2658634,6.68296307 25.9848117,7.20647668 25.6359644,7.80764928 C24.0030652,11.2459482 22.8167173,13.674362 22.076885,15.0929636 C21.3370527,16.5115651 20.7076913,17.6412322 20.1887819,18.4819986 L19.7204264,19.2872558 L19.3650903,19.9294578 C19.263781,20.2022924 19.1340556,20.4124808 18.9759102,20.5600295 C18.8177648,20.7075782 18.7171954,20.7835777 18.6741991,20.7880302 C18.6097046,20.794709 18.5522339,20.7653456 18.5017854,20.699939 C18.4513369,20.6345324 18.4197254,20.5419512 18.4069502,20.4221926 C18.3622369,20.0030376 18.4785177,18.7499288 18.7557963,16.6628288 C19.0698897,14.3095729 19.2964072,12.4598298 19.4353557,11.1135439 L19.5263276,10.4381781 L19.6316204,8.36889856 C19.6382141,8.22695395 19.6287358,8.03622593 19.6031854,7.79670879 C19.5435676,7.23783546 19.3575736,6.76773252 19.0451979,6.38638587 C18.7328222,6.00503921 18.3827269,5.72850464 17.9949015,5.55677386 C17.6070761,5.38504307 17.2734304,5.31364955 16.9939543,5.34259116 C16.7359764,5.36930649 16.4643344,5.62446129 16.17902,6.10806323 C15.8937057,6.59166517 15.6357487,7.12792214 15.4051414,7.71685022 C15.2118043,8.21059693 15.118438,8.45994618 15.1250407,8.46490222 Z M32.481965,24.2652075 L33.6280944,24.8964526 L34.3398506,23.7672822 C34.6693487,23.1961678 34.9878048,22.4734419 35.2952285,21.599083 C35.6026523,20.724724 35.7456165,20.186822 35.7241257,19.9853606 C35.7405422,19.9466265 35.7881292,19.8630026 35.866888,19.7344861 C35.9456468,19.6059697 36.0420893,19.4987697 36.1562184,19.4128829 C36.1503572,19.3579388 36.2411354,19.1494835 36.4285555,18.7875105 C36.6159757,18.4255376 36.7304014,18.1498248 36.7718362,17.9603641 C36.9379555,17.5913384 37.1413958,17.2832618 37.3821631,17.0361248 C37.6229304,16.7889879 37.8347688,16.6559503 38.0176847,16.6370081 C38.353424,16.5096551 39.1689153,16.3048469 40.464183,16.0225774 C41.7594508,15.7403079 42.6103118,15.5781287 43.0167916,15.536035 L43.4101769,15.467522 L43.7061235,19.6865033 L43.7787774,21.2343991 L43.8127639,21.8419372 C43.8283936,21.9884546 43.8575089,22.0687647 43.9001106,22.08287 C43.9427123,22.0969753 43.9751515,22.1121328 43.9974292,22.1283427 C44.0556606,22.2889654 44.2943623,22.4077508 44.7135413,22.4847025 C45.1327203,22.5616542 45.5455435,22.5790829 45.9520233,22.5369892 C46.3178552,22.4991049 46.5558783,22.4189059 46.6661,22.2963897 L46.6291829,21.6613797 L46.608669,21.4690766 C46.5629467,21.2330906 46.5127343,20.8586977 46.4580302,20.3458869 C46.3505758,19.33858 46.2861174,18.2527689 46.2646533,17.0884211 C46.2431891,15.9240734 46.2348309,14.3047264 46.2395785,12.2303316 C46.2618829,11.2836552 46.2595625,10.3950932 46.2326173,9.56461895 C46.2185612,9.04759877 46.219158,8.66794432 46.2344076,8.42564422 C46.2321005,7.0556257 46.2006648,6.08675356 46.1400996,5.51899873 C46.0951641,5.09776128 46.0252115,4.82725462 45.9302395,4.70747066 C45.6801104,4.28896538 45.2013435,3.89414372 44.4939246,3.52299384 C43.7865056,3.15184395 43.1177843,2.99889392 42.4877406,3.06413914 C42.3048247,3.0830813 42.0941598,3.1789639 41.8557396,3.35178983 C41.6173194,3.52461577 41.4101685,3.74975148 41.2342806,4.02720373 C40.275499,5.4411984 39.3943091,7.00453028 38.5906845,8.71724626 C37.7569674,10.3404936 37.1725331,11.5073893 36.8373639,12.2179685 C36.5021947,12.9285478 36.231814,13.5722282 36.0262136,14.1490293 C35.8378166,14.5018449 35.5693012,14.8259189 35.2206594,15.121261 C34.8720176,15.416603 34.6701443,15.5949004 34.6150334,15.6561585 C34.3054793,15.8363508 34.160473,16.0180176 34.1800102,16.2011644 C34.187825,16.274423 34.2038479,16.3283139 34.2280794,16.3628386 C34.3042743,17.0771108 33.9855131,18.2303818 33.2717863,19.8226864 C32.990751,20.4628502 32.8019635,20.9082848 32.7054178,21.1590037 C32.3567627,21.9357889 32.1141336,22.5025287 31.9775235,22.8592399 C31.8409133,23.2159512 31.7823777,23.4858761 31.8019148,23.6690228 C31.8175446,23.8155402 31.8759718,23.9298483 31.9771984,24.0119506 C32.0784249,24.0940529 32.2466788,24.178471 32.481965,24.2652075 Z" id="Combined-Shape"></path>
                    <path d="M38.035629,14 C38.175294,13.9685047 38.454144,13.9011929 38.8721874,13.7980626 C39.2902307,13.6949323 39.6600875,13.6184881 39.9817689,13.5687277 C40.9296835,13.2638449 41.5856473,13.0931409 41.94968,13.0566108 C42.1519203,13.0363163 42.2953897,13.0393991 42.3800925,13.0658595 C42.4483777,13.1289275 42.5193387,13.1698762 42.5929778,13.1887068 C42.6666168,13.2075373 42.7135477,13.2159377 42.7337717,13.2139083 C42.7589936,13.0715366 42.8170565,12.1130597 42.9079623,10.3384488 C42.998868,8.56383794 43.0224328,7.4777242 42.9786575,7.08007502 C42.9482051,6.80344951 42.9119236,6.56674274 42.8698119,6.3699476 C42.8277002,6.17315246 42.7936779,6.04983783 42.767744,6 C42.5857277,6.01826507 42.2163432,6.47047807 41.6595795,7.35665255 C41.1028159,8.24282703 40.5781796,9.23501402 40.0856549,10.3332433 C39.6985363,11.0887736 39.4139731,11.4756654 39.2319567,11.4939305 C39.1037114,11.6291604 38.8450817,12.0658893 38.4560598,12.8041305 C38.0670379,13.5423717 37.9268957,13.9409909 38.035629,14 Z" id="Path"></path>
                    <path d="M66.1681416,15 C64.8230021,15 63.7020694,14.7404398 62.8053097,14.2213115 C61.9085501,13.7021832 61.3067862,13.0000044 61,12.1147541 L64.0265487,10.4918033 C64.4395301,11.4644857 65.1828855,11.9508197 66.2566372,11.9508197 C67.0590011,11.9508197 67.460177,11.7541003 67.460177,11.3606557 C67.460177,11.2513656 67.4306788,11.1530059 67.3716814,11.0655738 C67.3126841,10.9781416 67.2005908,10.9016397 67.0353982,10.8360656 C66.8702057,10.7704915 66.7256643,10.7185794 66.6017699,10.6803279 C66.4778755,10.6420763 66.2625384,10.5846998 65.9557522,10.5081967 C65.648966,10.4316936 65.4188798,10.3715849 65.2654867,10.3278689 C62.7993977,9.63934082 61.5663717,8.40984492 61.5663717,6.63934426 C61.5663717,5.59015869 61.9763971,4.72131492 62.7964602,4.03278689 C63.6165233,3.34425885 64.6932087,3 66.0265487,3 C67.0767014,3 68.017695,3.2295059 68.8495575,3.68852459 C69.6814201,4.14754328 70.2920335,4.80873885 70.6814159,5.67213115 L67.7433628,7.26229508 C67.4011782,6.45354787 66.8348122,6.04918033 66.0442478,6.04918033 C65.7374616,6.04918033 65.5044256,6.1065568 65.3451327,6.22131148 C65.1858399,6.33606615 65.1061947,6.48087344 65.1061947,6.6557377 C65.1061947,6.89617607 65.2448364,7.08196656 65.5221239,7.21311475 C65.7994114,7.34426295 66.3333294,7.51366016 67.1238938,7.72131148 C67.7138673,7.88524672 68.1976382,8.04098287 68.5752212,8.18852459 C68.9528042,8.33606631 69.3480805,8.54371451 69.7610619,8.81147541 C70.1740434,9.07923631 70.4837748,9.42349516 70.6902655,9.8442623 C70.8967562,10.2650294 71,10.75956 71,11.3278689 C71,12.4972736 70.566376,13.4016361 69.699115,14.0409836 C68.8318541,14.6803311 67.6548747,15 66.1681416,15 Z M77.6240876,6.23863636 L81,6.23863636 L81,14.7613636 L77.6240876,14.7613636 L77.6240876,13.9943182 C77.0401431,14.6647761 76.2250661,15 75.1788321,15 C73.9501155,15 72.9464759,14.5738679 72.1678832,13.7215909 C71.3892905,12.8693139 71,11.795461 71,10.5 C71,9.20453898 71.3892905,8.13068608 72.1678832,7.27840909 C72.9464759,6.4261321 73.9501155,6 75.1788321,6 C76.2250661,6 77.0401431,6.33522392 77.6240876,7.00568182 L77.6240876,6.23863636 Z M75.4044944,11.5691489 C75.6853947,11.8563844 76.0505596,12 76.5,12 C76.9494404,12 77.3117964,11.8563844 77.5870787,11.5691489 C77.8623609,11.2819135 78,10.925534 78,10.5 C78,10.074466 77.8623609,9.71808654 77.5870787,9.43085106 C77.3117964,9.14361559 76.9494404,9 76.5,9 C76.0505596,9 75.6882036,9.14361559 75.4129213,9.43085106 C75.1376391,9.71808654 75,10.074466 75,10.5 C75,10.925534 75.1348301,11.2819135 75.4044944,11.5691489 Z M87.742,6 C88.7260049,6 89.514997,6.32976324 90.109,6.98929961 C90.703003,7.64883598 91,8.63228918 91,9.93968872 L91,15 L87.67,15 L87.67,10.2898833 C87.67,9.50777819 87.2980037,9.11673152 86.554,9.11673152 C86.157998,9.11673152 85.855001,9.23929839 85.645,9.4844358 C85.4349989,9.72957321 85.33,10.0680912 85.33,10.5 L85.33,15 L82,15 L82,6.24513619 L85.33,6.24513619 L85.33,7.10311284 C85.8820028,6.3677006 86.6859947,6 87.742,6 Z M98,9.37400869 L96.25,9.37400869 L96.25,11.2106952 C96.25,11.4941359 96.316666,11.7038789 96.45,11.8399304 C96.583334,11.9759819 96.7805543,12.0525098 97.0416667,12.0695162 C97.3027791,12.0865227 97.6222203,12.0836883 98,12.061013 L98,14.8840682 C96.2555468,15.1334961 95.0138926,14.9804404 94.275,14.4248966 C93.5361074,13.8693528 93.1666667,12.8546504 93.1666667,11.3807588 L93.1666667,9.37400869 L92,9.37400869 L92,6.38088993 L93.1666667,6.38088993 L93.1666667,4.93534961 L96.25,4 L96.25,6.38088993 L98,6.38088993 L98,9.37400869 Z M107,3 L105,6 L102,6 L103.37931,3 L107,3 Z M102.193548,11.5738636 C102.466795,12.1420483 103.047434,12.4261364 103.935484,12.4261364 C104.459206,12.4261364 104.943072,12.24432 105.387097,11.8806818 L107.45351,13.6193182 C106.599616,14.5397773 105.392797,15 103.833017,15 C102.375704,15 101.205887,14.5767088 100.323529,13.7301136 C99.4411721,12.8835185 99,11.8181882 99,10.5340909 C99,9.23862989 99.429787,8.15909523 100.289374,7.29545455 C101.148961,6.43181386 102.23339,6 103.542694,6 C104.840614,6 105.907965,6.42329122 106.744782,7.26988636 C107.581598,8.11648151 108,9.18181176 108,10.4659091 C108,10.840911 107.95446,11.2102255 107.863378,11.5738636 L102.193548,11.5738636 Z M102,10 L105,10 C104.797618,9.33333 104.31548,9 103.553571,9 C102.779758,9 102.261906,9.33333 102,10 Z M69,23.3257143 L64.6781609,23.3257143 L64.6781609,24.8857143 L68.908046,24.8857143 L68.908046,28.2114286 L64.6781609,28.2114286 L64.6781609,32 L61,32 L61,20 L69,20 L69,23.3257143 Z M76.6240876,23.2386364 L80,23.2386364 L80,31.7613636 L76.6240876,31.7613636 L76.6240876,30.9943182 C76.0401431,31.6647761 75.2250661,32 74.1788321,32 C72.9501155,32 71.9464759,31.5738679 71.1678832,30.7215909 C70.3892905,29.8693139 70,28.795461 70,27.5 C70,26.204539 70.3892905,25.1306861 71.1678832,24.2784091 C71.9464759,23.4261321 72.9501155,23 74.1788321,23 C75.2250661,23 76.0401431,23.3352239 76.6240876,24.0056818 L76.6240876,23.2386364 Z M73.4044944,28.5691489 C73.6853947,28.8563844 74.0505596,29 74.5,29 C74.9494404,29 75.3117964,28.8563844 75.5870787,28.5691489 C75.8623609,28.2819135 76,27.925534 76,27.5 C76,27.074466 75.8623609,26.7180865 75.5870787,26.4308511 C75.3117964,26.1436156 74.9494404,26 74.5,26 C74.0505596,26 73.6882036,26.1436156 73.4129213,26.4308511 C73.1376391,26.7180865 73,27.074466 73,27.5 C73,27.925534 73.1348301,28.2819135 73.4044944,28.5691489 Z M85.8350101,29.1366971 C86.4627798,29.1366971 86.9094554,28.8853872 87.1750503,28.38276 L90,29.9607678 C89.3963753,31.0127783 88.4849156,31.7141081 87.2655936,32.0647782 L87.2655936,32.8187153 C87.9054358,33.0758734 88.2253521,33.5258934 88.2253521,34.1687887 C88.2253521,34.8233729 87.8571465,35.3084594 87.1207243,35.6240625 C86.3843022,35.9396657 85.2736493,36.056554 83.7887324,35.9747309 L83.7887324,33.975921 C84.9356194,34.0577441 85.5090543,33.9759223 85.5090543,33.7304531 C85.5090543,33.5551181 85.189138,33.4382298 84.5492958,33.3797847 L84.5492958,32.0998451 C83.4869162,31.842687 82.6297819,31.307923 81.9778672,30.4955371 C81.3259525,29.6831513 81,28.7275894 81,27.6288229 C81,26.3079653 81.4587479,25.2062931 82.3762575,24.3237732 C83.2937672,23.4412533 84.4466731,23 85.8350101,23 C86.7283747,23 87.546274,23.2074767 88.2887324,23.6224364 C89.0311908,24.0373961 89.6016077,24.5955377 90,25.296878 L87.1750503,26.8573524 C86.8732379,26.3664142 86.4265623,26.1209488 85.8350101,26.1209488 C85.4124727,26.1209488 85.0593576,26.264137 84.7756539,26.5505176 C84.4919503,26.8368982 84.3501006,27.1963297 84.3501006,27.6288229 C84.3501006,28.0613161 84.4919503,28.4207476 84.7756539,28.7071283 C85.0593576,28.9935089 85.4124727,29.1366971 85.8350101,29.1366971 Z M94.5,32 C93.2509231,32 92.1886661,31.5681861 91.313197,30.7045455 C90.437728,29.8409048 90,28.7727336 90,27.5 C90,26.2272664 90.4349399,25.1590952 91.3048327,24.2954545 C92.1747255,23.4318139 93.2397707,23 94.5,23 C95.7602293,23 96.8252745,23.4318139 97.6951673,24.2954545 C98.5650601,25.1590952 99,26.2272664 99,27.5 C99,28.7727336 98.5650601,29.8409048 97.6951673,30.7045455 C96.8252745,31.5681861 95.7602293,32 94.5,32 Z M93.4107143,28.5909091 C93.69643,28.8636377 94.0595216,29 94.5,29 C94.9404784,29 95.3005938,28.8607968 95.5803571,28.5823864 C95.8601204,28.3039759 96,27.943184 96,27.5 C96,27.056816 95.8601204,26.6960241 95.5803571,26.4176136 C95.3005938,26.1392032 94.9404784,26 94.5,26 C94.0595216,26 93.6994062,26.1392032 93.4196429,26.4176136 C93.1398796,26.6960241 93,27.056816 93,27.5 C93,27.943184 93.1369034,28.3068168 93.4107143,28.5909091 Z M105.742,23 C106.726005,23 107.514997,23.3297632 108.109,23.9892996 C108.703003,24.648836 109,25.6322892 109,26.9396887 L109,32 L105.67,32 L105.67,27.2898833 C105.67,26.5077782 105.298004,26.1167315 104.554,26.1167315 C104.157998,26.1167315 103.855001,26.2392984 103.645,26.4844358 C103.434999,26.7295732 103.33,27.0680912 103.33,27.5 L103.33,32 L100,32 L100,23.2451362 L103.33,23.2451362 L103.33,24.1031128 C103.882003,23.3677006 104.685995,23 105.742,23 Z" id="SantéFaçon" fill-rule="nonzero"></path>
                </g>
            </g>
        </g>
    </g>
</svg>