<?xml version="1.0" encoding="UTF-8"?>
<svg width="185px" height="111px" viewBox="0 0 185 111" version="1.1" xmlns="http://www.w3.org/2000/svg" xmlns:xlink="http://www.w3.org/1999/xlink">
    <!-- Generator: Sketch 53.1 (72631) - https://sketchapp.com -->
    <title>undraw_video_call_kxyp</title>
    <desc>Created with Sketch.</desc>
    <g id="Page-1" stroke="none" stroke-width="1" fill="none" fill-rule="evenodd">
        <g id="Inital-Screen---I-live-Copy" transform="translate(-28.000000, -475.000000)">
            <g id="undraw_video_call_kxyp" transform="translate(28.000000, 475.000000)">
                <path d="M183.051612,103.707213 C182.336658,105.477457 181.457567,107.176036 180.425983,108.780456 C179.94152,109.545687 179.410362,110.279969 178.835566,110.979076 L178.817966,111 L1,111 L1.03200035,110.977467 C1.19200212,110.851923 2.1312125,110.087396 3.59202865,108.778847 C4.64004024,107.83888 5.95525478,106.618855 7.4320711,105.150963 C19.5106046,93.2001917 42.7124611,64.9126764 23.3890475,38.99922 C5.42564892,14.9093628 24.7666627,10.5362658 37.5252038,10.0276539 C42.4275424,9.83620648 47.3179726,10.6403412 51.9045627,12.3920556 C57.7974279,14.6453996 68.5703469,18.1010636 82.6057021,19.6832331 C83.0665072,19.7358111 83.531579,19.7862431 84.0009175,19.834529 C91.4317427,20.5950307 98.9126485,20.7312393 106.365965,20.2417405 L106.365965,20.2417405 C106.585167,20.2304738 106.80597,20.2143784 107.028372,20.1982831 C114.401554,19.6760972 121.718673,18.5369012 128.903814,16.7925146 C129.369419,16.6782378 129.828624,16.5703992 130.286229,16.4706083 C154.227294,10.8984104 176.297938,29.889272 170.781077,51.3523739 C168.739454,59.2889735 169.25786,67.7518899 176.061135,74.5956176 C187.189258,85.772204 185.834043,96.774961 183.051612,103.707213 Z" id="Path" fill="#2082DC" fill-rule="nonzero" opacity="0.1"></path>
                <ellipse id="Oval" fill="#3F3D56" fill-rule="nonzero" transform="translate(143.657282, 43.156287) rotate(-60.790000) translate(-143.657282, -43.156287) " cx="143.657282" cy="43.156287" rx="2.23932263" ry="1.7149906"></ellipse>
                <ellipse id="Oval" fill="#3F3D56" fill-rule="nonzero" transform="translate(144.997686, 40.770258) rotate(-60.790000) translate(-144.997686, -40.770258) " cx="144.997686" cy="40.7702581" rx="2.23932263" ry="1.7149906"></ellipse>
                <ellipse id="Oval" fill="#3F3D56" fill-rule="nonzero" transform="translate(146.339488, 38.385006) rotate(-60.790000) translate(-146.339488, -38.385006) " cx="146.339488" cy="38.3850059" rx="2.23932263" ry="1.7149906"></ellipse>
                <ellipse id="Oval" fill="#3F3D56" fill-rule="nonzero" transform="translate(147.679892, 35.997385) rotate(-60.790000) translate(-147.679892, -35.997385) " cx="147.679892" cy="35.9973851" rx="2.23932263" ry="1.7149906"></ellipse>
                <ellipse id="Oval" fill="#3F3D56" fill-rule="nonzero" transform="translate(149.019515, 33.612746) rotate(-60.790000) translate(-149.019515, -33.612746) " cx="149.019515" cy="33.6127455" rx="2.23932263" ry="1.7149906"></ellipse>
                <ellipse id="Oval" fill="#3F3D56" fill-rule="nonzero" transform="translate(150.361520, 31.226717) rotate(-60.790000) translate(-150.361520, -31.226717) " cx="150.36152" cy="31.2267166" rx="2.23932263" ry="1.7149906"></ellipse>
                <ellipse id="Oval" fill="#3F3D56" fill-rule="nonzero" transform="translate(151.703321, 28.841464) rotate(-60.790000) translate(-151.703321, -28.841464) " cx="151.703321" cy="28.8414644" rx="2.23932263" ry="1.7149906"></ellipse>
                <path d="M166.816998,15.7551901 C167.175787,15.6099419 167.523979,15.4412454 167.85917,15.2502656 L164.196821,12.4223708 L168.537564,14.8167926 C170.411436,13.4918075 171.639947,11.4779312 171.934455,9.24833281 L164.385264,9.01968775 L172,8.10034409 C171.975697,5.03174229 170.177379,2.23560177 167.345118,0.862634143 C164.512858,-0.510333489 161.125228,-0.228135237 158.576358,1.59309425 C156.027489,3.41432373 154.748067,6.46684777 155.264622,9.49444381 C154.705687,9.72017563 154.173361,10.0033687 153.676785,10.3391603 L157.394847,15.8107635 L152.860744,10.9711098 C150.747493,12.8201779 149.740939,15.5783515 150.184854,18.3036298 C146.130127,19.9406734 144.054589,24.3223239 145.417118,28.3687546 C146.779647,32.4151854 151.122683,34.7675348 155.39354,33.7723556 C159.664398,32.7771764 162.428849,28.7686669 161.743784,24.564376 C165.332503,23.1161549 167.43173,19.4757374 166.823552,15.7551901 L166.816998,15.7551901 Z" id="Path" fill="#2082DC" fill-rule="nonzero"></path>
                <path d="M150.179056,13.0388494 C149.253086,14.637418 148.912935,16.4901519 149.213509,18.2979877 C145.136373,19.9356197 143.049364,24.3188452 144.419423,28.3667305 C145.789483,32.4146157 150.156521,34.7678107 154.450983,33.7722738 C158.745445,32.7767368 161.525175,28.7667865 160.836323,24.5609843 C162.521911,23.8827445 150.643705,12.2446576 150.179056,13.0388494 Z" id="Path" fill="#000000" fill-rule="nonzero" opacity="0.1"></path>
                <path d="M162.025117,100 L163.974883,100 C166.197894,100 168,101.802106 168,104.025117 L168,110 L158,110 L158,104.025117 C158,101.802106 159.802106,100 162.025117,100 L162.025117,100 Z" id="Path" fill="#3F3D56" fill-rule="nonzero"></path>
                <path d="M162.025117,100 L163.974883,100 C166.197894,100 168,101.802106 168,104.025117 L168,110 L158,110 L158,104.025117 C158,101.802106 159.802106,100 162.025117,100 L162.025117,100 Z" id="Path" fill="#000000" fill-rule="nonzero" opacity="0.1"></path>
                <circle id="Oval" fill="#3F3D56" fill-rule="nonzero" cx="162" cy="102" r="1"></circle>
                <circle id="Oval" fill="#3F3D56" fill-rule="nonzero" cx="162" cy="101" r="1"></circle>
                <circle id="Oval" fill="#3F3D56" fill-rule="nonzero" cx="162" cy="101" r="1"></circle>
                <circle id="Oval" fill="#3F3D56" fill-rule="nonzero" cx="162" cy="99" r="1"></circle>
                <circle id="Oval" fill="#3F3D56" fill-rule="nonzero" cx="162" cy="98" r="1"></circle>
                <circle id="Oval" fill="#3F3D56" fill-rule="nonzero" cx="162" cy="97" r="1"></circle>
                <circle id="Oval" fill="#3F3D56" fill-rule="nonzero" cx="162" cy="96" r="1"></circle>
                <circle id="Oval" fill="#3F3D56" fill-rule="nonzero" cx="164" cy="96" r="1"></circle>
                <circle id="Oval" fill="#3F3D56" fill-rule="nonzero" cx="165" cy="96" r="1"></circle>
                <circle id="Oval" fill="#3F3D56" fill-rule="nonzero" cx="166" cy="95" r="1"></circle>
                <circle id="Oval" fill="#3F3D56" fill-rule="nonzero" cx="162" cy="94" r="1"></circle>
                <circle id="Oval" fill="#3F3D56" fill-rule="nonzero" cx="162" cy="94" r="1"></circle>
                <circle id="Oval" fill="#3F3D56" fill-rule="nonzero" cx="162" cy="94" r="1"></circle>
                <circle id="Oval" fill="#3F3D56" fill-rule="nonzero" cx="162" cy="92" r="1"></circle>
                <path d="M165.925356,88.9070243 C165.720784,88.9368806 165.515106,88.9584434 165.308321,88.9717129 C165.499536,88.8048732 165.677034,88.6229386 165.839104,88.4276657 C165.724888,88.0812636 165.556973,87.7549504 165.341495,87.4606549 C165.137061,87.5754874 164.911251,87.6471814 164.678017,87.6713073 C164.473997,87.7011636 164.268319,87.7227264 164.062641,87.7359959 C164.339454,87.4733814 164.602436,87.1965615 164.850521,86.9066556 C163.625046,85.7959465 161.789323,85.6947217 160.449154,86.6639569 C159.108984,87.6331921 158.630261,89.4082664 159.301358,90.9199131 C159.972454,92.4315598 161.610146,93.2670685 163.227923,92.9231468 C164.845701,92.5792251 166.001878,91.1497706 165.999998,89.4958559 C166.000057,89.2939847 165.982295,89.0925023 165.946919,88.8937549 L165.925356,88.9070243 Z" id="Path" fill="#2082DC" fill-rule="nonzero"></path>
                <path d="M169.191721,93.3938661 C168.987778,93.5190487 168.757951,93.5960254 168.519753,93.6189304 C168.322021,93.6478672 168.122682,93.6687661 167.923342,93.6816269 C168.13521,93.491585 168.332931,93.2863389 168.514931,93.0675228 C168.348023,93.0237196 168.176278,93.0010359 168.003721,93.0000035 C167.021579,92.9981804 166.183477,93.7098287 166.026043,94.6792871 C165.868609,95.6487456 166.438445,96.5890418 167.370692,96.8981135 C168.302938,97.2071851 169.321637,96.793543 169.774527,95.922038 C170.227416,95.050533 169.980434,93.9791421 169.191721,93.3938661 L169.191721,93.3938661 Z" id="Path" fill="#2082DC" fill-rule="nonzero"></path>
                <circle id="Oval" fill="#3F3D56" fill-rule="nonzero" cx="161" cy="96" r="1"></circle>
                <circle id="Oval" fill="#3F3D56" fill-rule="nonzero" cx="160" cy="96" r="1"></circle>
                <circle id="Oval" fill="#3F3D56" fill-rule="nonzero" cx="160" cy="95" r="1"></circle>
                <path d="M155.808279,93.3938661 C156.012222,93.5190487 156.242049,93.5960254 156.480247,93.6189304 C156.677979,93.6478672 156.877318,93.6687661 157.076658,93.6816269 C156.86479,93.491585 156.667069,93.2863389 156.485069,93.0675228 C156.651977,93.0237196 156.823722,93.0010359 156.996279,93.0000035 C157.978421,92.9981804 158.816523,93.7098287 158.973957,94.6792871 C159.131391,95.6487456 158.561555,96.5890418 157.629308,96.8981135 C156.697062,97.2071851 155.678363,96.793543 155.225473,95.922038 C154.772584,95.050533 155.019566,93.9791421 155.808279,93.3938661 L155.808279,93.3938661 Z" id="Path" fill="#2082DC" fill-rule="nonzero"></path>
                <path d="M162.025117,101 L163.974883,101 C166.197894,101 168,102.802106 168,105.025117 L168,110.31734 C168,110.694363 167.694363,111 167.31734,111 L158.68266,111 C158.305637,111 158,110.694363 158,110.31734 L158,105.025117 C158,102.802106 159.802106,101 162.025117,101 L162.025117,101 Z" id="Path" fill="#3F3D56" fill-rule="nonzero"></path>
                <g id="Group" opacity="0.1" transform="translate(159.000000, 86.000000)" fill="#000000" fill-rule="nonzero">
                    <path d="M6.82906977,3.02923077 C6.74745446,3.11274054 6.65988539,3.19087192 6.56697674,3.26307692 C6.65976744,3.26307692 6.75255814,3.24923077 6.84372093,3.24 C6.84046512,3.16923077 6.8372093,3.09846154 6.82906977,3.02923077 Z" id="Path"></path>
                    <path d="M5.35418605,2.11538462 C5.55604651,2.10307692 5.75790698,2.08307692 5.95813953,2.05538462 C6.13939798,2.03443625 6.31650052,1.98883654 6.48395349,1.92 C6.40124537,1.76638908 6.30656575,1.61880273 6.20069767,1.47846154 C6.09944259,1.53671903 5.9897706,1.58076861 5.87511628,1.60923077 C5.71560087,1.79044005 5.54143371,1.95966689 5.35418605,2.11538462 L5.35418605,2.11538462 Z" id="Path"></path>
                    <path d="M0.379302326,3.75692308 C0.376833643,2.56875923 1.06208176,1.47444269 2.16534471,0.904677793 C3.26860766,0.334912892 4.61323333,0.380929162 5.67,1.02461538 L5.72209302,0.972307692 C4.80083338,0.197651253 3.51087405,-0.0508602479 2.34226793,0.321182198 C1.1736618,0.693224645 0.305754351,1.62872385 0.0682618352,2.77228558 C-0.169230681,3.91584731 0.260139609,5.09196966 1.19325581,5.85384615 C0.666773741,5.26855291 0.378198897,4.52512068 0.379302326,3.75692308 L0.379302326,3.75692308 Z" id="Path"></path>
                </g>
                <g id="Group" opacity="0.1" transform="translate(166.000000, 93.000000)" fill="#000000" fill-rule="nonzero">
                    <path d="M1.88923077,1.46 C2.08,1.442 2.27076923,1.416 2.46,1.38 C2.68784314,1.35218275 2.90779218,1.25709951 3.10307692,1.102 C3.54052412,1.51956022 3.82031741,2.15972728 3.87230769,2.862 C3.87977124,2.77433942 3.88336687,2.6861951 3.88307692,2.598 C3.88576973,1.81028446 3.60020986,1.06782881 3.11384615,0.598 C2.91867166,0.75373835 2.69872611,0.849504116 2.47076923,0.878 L2.31692308,0.902 C2.18605535,1.10255551 2.04303334,1.28915292 1.88923077,1.46 Z" id="Path"></path>
                    <path d="M1.96923077,0.61 C2.03384615,0.61 2.09692308,0.61 2.16,0.628 C2.26,0.49 2.35846154,0.342 2.45846154,0.198 C2.29872971,0.143504944 2.13436861,0.115284452 1.96923077,0.114 C0.913942063,0.114 0.0584615385,1.22612468 0.0584615385,2.598 C0.0584615385,2.682 0.0584615385,2.766 0.0676923077,2.846 C0.166370759,1.57682852 0.987970863,0.610717202 1.96923077,0.61 Z" id="Path"></path>
                </g>
                <g id="Group" opacity="0.1" transform="translate(155.000000, 93.000000)" fill="#000000" fill-rule="nonzero">
                    <path d="M2.1,1.46 C1.90923077,1.442 1.71846154,1.416 1.52923077,1.38 C1.30138763,1.35218275 1.08143859,1.25709951 0.886153846,1.102 C0.448706654,1.51956022 0.168913358,2.15972728 0.116923077,2.862 C0.109459534,2.77433942 0.105863903,2.6861951 0.106153846,2.598 C0.103461044,1.81028446 0.389020908,1.06782881 0.875384615,0.598 C1.07055911,0.75373835 1.29050466,0.849504116 1.51846154,0.878 L1.67230769,0.902 C1.80359263,1.10205603 1.94658313,1.28861235 2.1,1.46 L2.1,1.46 Z" id="Path"></path>
                    <path d="M2.02307692,0.61 C1.95846154,0.61 1.89538462,0.61 1.83230769,0.628 C1.73230769,0.49 1.63384615,0.342 1.53384615,0.198 C1.69357798,0.143504944 1.85793909,0.115284452 2.02307692,0.114 C3.07836563,0.114 3.93384615,1.22612468 3.93384615,2.598 C3.93384615,2.682 3.93384615,2.766 3.92461538,2.846 C3.82593693,1.57682852 3.00433683,0.610717202 2.02307692,0.61 Z" id="Path"></path>
                </g>
                <path d="M9.12257799,85 L24.877422,85 C27.154259,85 29,86.8463754 29,89.1239948 L29,109 L5,109 L5,89.1239948 C5,86.8463754 6.84574103,85 9.12257799,85 Z" id="Path" fill="#3F3D56" fill-rule="nonzero"></path>
                <path d="M9.12257799,85 L24.877422,85 C27.154259,85 29,86.8463754 29,89.1239948 L29,109 L5,109 L5,89.1239948 C5,86.8463754 6.84574103,85 9.12257799,85 Z" id="Path" fill="#000000" fill-rule="nonzero" opacity="0.1"></path>
                <circle id="Oval" fill="#3F3D56" fill-rule="nonzero" cx="16" cy="89" r="2"></circle>
                <circle id="Oval" fill="#3F3D56" fill-rule="nonzero" cx="16" cy="86" r="2"></circle>
                <circle id="Oval" fill="#3F3D56" fill-rule="nonzero" cx="16" cy="83" r="2"></circle>
                <circle id="Oval" fill="#3F3D56" fill-rule="nonzero" cx="16" cy="83" r="2"></circle>
                <circle id="Oval" fill="#3F3D56" fill-rule="nonzero" cx="16" cy="80" r="2"></circle>
                <circle id="Oval" fill="#3F3D56" fill-rule="nonzero" cx="16" cy="77" r="2"></circle>
                <circle id="Oval" fill="#3F3D56" fill-rule="nonzero" cx="16" cy="75" r="2"></circle>
                <circle id="Oval" fill="#3F3D56" fill-rule="nonzero" cx="18" cy="76" r="2"></circle>
                <circle id="Oval" fill="#3F3D56" fill-rule="nonzero" cx="21" cy="75" r="2"></circle>
                <circle id="Oval" fill="#3F3D56" fill-rule="nonzero" cx="22" cy="74" r="2"></circle>
                <circle id="Oval" fill="#3F3D56" fill-rule="nonzero" cx="16" cy="72" r="2"></circle>
                <circle id="Oval" fill="#3F3D56" fill-rule="nonzero" cx="16" cy="70" r="2"></circle>
                <circle id="Oval" fill="#3F3D56" fill-rule="nonzero" cx="16" cy="68" r="2"></circle>
                <circle id="Oval" fill="#3F3D56" fill-rule="nonzero" cx="16" cy="65" r="2"></circle>
                <path d="M23.8039838,59.610558 C23.3383369,59.6783089 22.8705392,59.7277778 22.4005907,59.7589647 C22.8354934,59.3780671 23.2394967,58.9632707 23.6087992,58.5184783 C23.3526281,57.7301693 22.9749141,56.9867052 22.4893109,56.3149613 C22.0272451,56.5789845 21.5152224,56.7438008 20.985906,56.7988962 C20.5213345,56.8666471 20.0519237,56.9166537 19.5825129,56.9489161 C20.2003285,56.44885 20.7729774,55.6922984 21.3778882,55.0777011 C18.4817657,52.4474353 14.1081318,52.2978314 11.0390524,54.7240524 C7.96997294,57.1502734 7.10601198,61.4403902 8.99673454,64.8654619 C10.8874571,68.2905337 14.978066,69.8455371 18.6665273,68.5413355 C22.3549887,67.2371339 24.5589924,63.4564208 23.8765731,59.6041056 L23.8039838,59.610558 Z" id="Path" fill="#2082DC" fill-rule="nonzero"></path>
                <path d="M30.1788704,69.88499 C29.7556511,70.1830886 29.1934182,70.3112864 28.6667109,70.3885141 C28.2203227,70.4549298 27.7723898,70.5012664 27.3229124,70.5321574 C27.7862912,70.1599203 28.2125997,69.6409507 28.6543542,69.1513276 C26.4116195,68.5561595 24.0840767,69.7640555 23.2797757,71.9405058 C22.4754748,74.1169561 23.4582239,76.5480917 25.5490626,77.5542926 C27.6399013,78.5604935 30.1530409,77.8117289 31.3522065,75.8253043 C32.5513721,73.8388798 32.0432411,71.2663364 30.1788704,69.88499 L30.1788704,69.88499 Z" id="Path" fill="#2082DC" fill-rule="nonzero"></path>
                <circle id="Oval" fill="#3F3D56" fill-rule="nonzero" cx="13" cy="76" r="2"></circle>
                <circle id="Oval" fill="#3F3D56" fill-rule="nonzero" cx="11" cy="75" r="2"></circle>
                <circle id="Oval" fill="#3F3D56" fill-rule="nonzero" cx="9" cy="74" r="2"></circle>
                <path d="M1.82112955,69.88499 C2.24434887,70.1830886 2.80658183,70.3112864 3.33483368,70.3885141 C3.77967734,70.4549298 4.22761019,70.5012664 4.67708764,70.5321574 C4.21370883,70.1599203 3.78740032,69.6409507 3.34564585,69.1513276 C5.58838051,68.5561595 7.91592332,69.7640555 8.72022426,71.9405058 C9.5245252,74.1169561 8.54177606,76.5480917 6.45093739,77.5542926 C4.36009871,78.5604935 1.84695914,77.8117289 0.647793535,75.8253043 C-0.551372068,73.8388798 -0.0432410872,71.2663364 1.82112955,69.88499 Z" id="Path" fill="#2082DC" fill-rule="nonzero"></path>
                <path d="M9.12257799,86 L24.877422,86 C27.154259,86 29,87.8456136 29,90.1222934 L29,109.300851 C29,109.686976 28.6869623,109.999992 28.3008108,109.999992 L5.70248729,109.999992 C5.51648,110.00087 5.33779004,109.927598 5.20595245,109.796388 C5.07411486,109.665179 4.99999793,109.486848 5,109.300851 L5,90.1222934 C5,87.8456136 6.84574103,86 9.12257799,86 Z" id="Path" fill="#3F3D56" fill-rule="nonzero"></path>
                <g id="Group" opacity="0.1" transform="translate(8.000000, 52.000000)" fill="#000000" fill-rule="nonzero">
                    <path d="M16.8504,7.06681818 C16.6514858,7.26912041 16.4379134,7.45835641 16.2112,7.63318182 C16.4373,7.61886364 16.6651,7.59977273 16.8912,7.57909091 C16.8827,7.40727273 16.8708,7.23545455 16.8504,7.06681818 Z" id="Path"></path>
                    <path d="M13.243,4.85545455 C13.7377,4.82363636 14.2307,4.77590909 14.7203,4.7075 C15.1637754,4.6591231 15.5976496,4.55199064 16.0089,4.38931818 C15.8078614,4.0155514 15.5759572,3.65703852 15.3153,3.31704545 C15.0695057,3.45919457 14.8025313,3.56642301 14.5231,3.63522727 C14.130846,4.07240913 13.7028557,4.48038153 13.243,4.85545455 L13.243,4.85545455 Z" id="Path"></path>
                    <path d="M1.071,8.83113636 C1.06491339,5.95226062 2.74164382,3.30077116 5.4412074,1.92033029 C8.14077098,0.539889414 11.4308789,0.651551041 14.0165,2.21136364 C14.059,2.17 14.1015,2.12386364 14.144,2.08409091 C11.8935682,0.181449553 8.72235017,-0.439021109 5.845886,0.460507703 C2.96942182,1.36003651 0.833897294,3.64003342 0.257867136,6.42656689 C-0.318163021,9.21310035 0.754652727,12.0739343 3.0651,13.9125 C1.77590845,12.4944902 1.0689175,10.6929366 1.071,8.83113636 L1.071,8.83113636 Z" id="Path"></path>
                </g>
                <g id="Group" opacity="0.1" transform="translate(23.000000, 68.000000)" fill="#000000" fill-rule="nonzero">
                    <path d="M4.37033898,2.92909091 C4.81372881,2.89515152 5.25610169,2.83878788 5.69745763,2.76 C6.21762712,2.67090909 6.76525424,2.52 7.19084746,2.16727273 C8.20317526,3.05874721 8.84982919,4.42112695 8.96949153,5.91454545 C8.98474576,5.73272727 8.99389831,5.55090909 8.99389831,5.35636364 C8.9948052,3.68037895 8.32717319,2.10370099 7.19542373,1.10909091 C6.77745763,1.46 6.22220339,1.61090909 5.7020339,1.70181818 C5.58457627,1.72181818 5.46864407,1.73818182 5.35271186,1.75454545 C5.05180963,2.17638796 4.72332297,2.56913345 4.37033898,2.92909091 L4.37033898,2.92909091 Z" id="Path"></path>
                    <path d="M4.54576271,1.12181818 C4.69466692,1.12469531 4.8433437,1.13683303 4.99118644,1.15818182 C5.22305085,0.863636364 5.44881356,0.550909091 5.68220339,0.249090909 C4.35029851,-0.178986719 2.92709121,0.158012207 1.8336061,1.16039396 C0.740120987,2.16277571 0.101542354,3.71578568 0.106779661,5.36 C0.106779661,5.54181818 0.11440678,5.72363636 0.128135593,5.88909091 C0.354623876,3.18335041 2.26442179,1.12239613 4.54576271,1.12181818 Z" id="Path"></path>
                </g>
                <g id="Group" opacity="0.1" transform="translate(0.000000, 68.000000)" fill="#000000" fill-rule="nonzero">
                    <path d="M4.61898305,2.92909091 C4.17559322,2.89515152 3.73372881,2.83878788 3.29338983,2.76 C2.77169491,2.67090909 2.21644068,2.52 1.79847458,2.16727273 C0.787870998,3.05980371 0.142954018,4.42202888 0.0244067793,5.91454545 C0.00915254198,5.73272727 -3.90550194e-10,5.55090909 -3.90550194e-10,5.35636364 C-0.00054979081,3.68005524 0.66767482,2.10331515 1.8,1.10909091 C2.2179661,1.46 2.77322034,1.61090909 3.29491525,1.70181818 C3.41084746,1.72181818 3.52677966,1.73818182 3.64271186,1.75454545 C3.94206512,2.17566994 4.2684754,2.56837201 4.61898305,2.92909091 L4.61898305,2.92909091 Z" id="Path"></path>
                    <path d="M4.44050847,1.12181818 C4.29160426,1.12469531 4.14292749,1.13683303 3.99508475,1.15818182 C3.76322034,0.863636364 3.53745763,0.550909091 3.3040678,0.249090909 C4.63597267,-0.178986719 6.05917998,0.158012207 7.15266509,1.16039396 C8.2461502,2.16277571 8.88472883,3.71578568 8.87949153,5.36 C8.87949153,5.54181818 8.87949153,5.72363636 8.85813559,5.88909091 C8.63164731,3.18335041 6.7218494,1.12239613 4.44050847,1.12181818 Z" id="Path"></path>
                </g>
                <polygon id="Path" fill="#D0D2D5" fill-rule="nonzero" points="109 110 78 109.611111 78.0906154 108.833333 79.5897436 96 106.814103 96 108.817179 108.833333 108.969795 109.805556"></polygon>
                <polygon id="Path" fill="#000000" fill-rule="nonzero" opacity="0.1" points="109 110 93.5151173 110 78 109.8 78.0907038 109 108.847236 109"></polygon>
                <rect id="Rectangle" fill="#D0D2D5" fill-rule="nonzero" x="73" y="109" width="41" height="1"></rect>
                <path d="M152.999968,17.5924817 C153.007068,16.1683036 151.845633,15.007856 150.40528,15 L34.5963217,15 C33.9043398,15.0033539 33.2420481,15.2783759 32.7551475,15.7645623 C32.2682468,16.2507487 31.9966229,16.9082725 32.0000317,17.5924817 L32,87 L153,87 L152.999968,17.5924817 Z" id="Path" fill="#444053" fill-rule="nonzero"></path>
                <path d="M32,87 L32.0000124,94.5958546 C31.9978819,95.2330485 32.2705294,95.8447977 32.7577058,96.2959192 C33.2448822,96.7470407 33.906481,97.0003961 34.5963035,96.9999995 L150.405312,96.9999995 C151.838318,96.9999995 153,95.9269411 153,94.6032565 L153,87 L32,87 Z" id="Path" fill="#D0D2D5" fill-rule="nonzero"></path>
                <rect id="Rectangle" fill="#2082DC" fill-rule="nonzero" opacity="0.1" x="38" y="19" width="111" height="63"></rect>
                <path d="M93.010318,93.9999994 C93.9277751,94.0005889 94.7947682,93.5810356 95.3624074,92.8617818 L95.3624074,92.8617818 C95.4469854,92.7531513 95.5244851,92.6392129 95.5944283,92.52067 L93.9543418,92.2520224 L95.7254935,92.2643943 C96.0706605,91.5183395 96.0911748,90.6630344 95.7821704,89.9013556 L93.4035136,91.1385486 L95.5979706,89.5301977 C95.0487514,88.5467467 93.9912443,87.9558633 92.8639839,88.0025793 C91.7367235,88.0492953 90.7319552,88.7256438 90.2663435,89.7511515 C89.8007319,90.7766592 89.9536833,91.9764341 90.6617708,92.8529447 L90.6617708,92.8529447 C91.2265154,93.574961 92.0924704,93.9979023 93.010318,93.9999994 L93.010318,93.9999994 Z" id="Path" fill="#2082DC" fill-rule="nonzero"></path>
                <polygon id="Path" fill="#000000" fill-rule="nonzero" opacity="0.1" points="97 97 109 109 107.159661 97"></polygon>
                <rect id="Rectangle" fill="#FFFFFF" fill-rule="nonzero" x="40" y="27" width="86" height="46"></rect>
                <rect id="Rectangle" fill="#2082DC" fill-rule="nonzero" opacity="0.1" x="44" y="39" width="25" height="2"></rect>
                <rect id="Rectangle" fill="#2082DC" fill-rule="nonzero" opacity="0.1" x="47" y="33" width="3" height="7"></rect>
                <rect id="Rectangle" fill="#2082DC" fill-rule="nonzero" opacity="0.1" x="51" y="33" width="3" height="7"></rect>
                <rect id="Rectangle" fill="#2082DC" fill-rule="nonzero" opacity="0.1" x="53" y="33" width="3" height="7"></rect>
                <rect id="Rectangle" fill="#2082DC" fill-rule="nonzero" opacity="0.1" x="58" y="33" width="3" height="7"></rect>
                <rect id="Rectangle" fill="#2082DC" fill-rule="nonzero" opacity="0.1" x="61" y="33" width="3" height="7"></rect>
                <rect id="Rectangle" fill="#2082DC" fill-rule="nonzero" opacity="0.1" x="63" y="33" width="3" height="7"></rect>
                <rect id="Rectangle" fill="#2082DC" fill-rule="nonzero" opacity="0.1" x="47" y="34" width="3" height="1"></rect>
                <rect id="Rectangle" fill="#2082DC" fill-rule="nonzero" opacity="0.1" x="51" y="34" width="3" height="1"></rect>
                <rect id="Rectangle" fill="#2082DC" fill-rule="nonzero" opacity="0.1" x="53" y="34" width="3" height="1"></rect>
                <rect id="Rectangle" fill="#2082DC" fill-rule="nonzero" opacity="0.1" x="58" y="34" width="3" height="1"></rect>
                <rect id="Rectangle" fill="#2082DC" fill-rule="nonzero" opacity="0.1" x="61" y="34" width="3" height="1"></rect>
                <rect id="Rectangle" fill="#2082DC" fill-rule="nonzero" opacity="0.1" x="63" y="34" width="3" height="1"></rect>
                <rect id="Rectangle" fill="#2082DC" fill-rule="nonzero" opacity="0.1" x="47" y="38" width="3" height="1"></rect>
                <rect id="Rectangle" fill="#2082DC" fill-rule="nonzero" opacity="0.1" x="51" y="38" width="3" height="1"></rect>
                <rect id="Rectangle" fill="#2082DC" fill-rule="nonzero" opacity="0.1" x="53" y="38" width="3" height="1"></rect>
                <rect id="Rectangle" fill="#2082DC" fill-rule="nonzero" opacity="0.1" x="58" y="38" width="3" height="1"></rect>
                <rect id="Rectangle" fill="#2082DC" fill-rule="nonzero" opacity="0.1" x="61" y="38" width="3" height="1"></rect>
                <rect id="Rectangle" fill="#2082DC" fill-rule="nonzero" opacity="0.1" x="63" y="38" width="3" height="1"></rect>
                <rect id="Rectangle" fill="#2082DC" fill-rule="nonzero" opacity="0.1" x="97" y="43" width="25" height="2"></rect>
                <rect id="Rectangle" fill="#2082DC" fill-rule="nonzero" opacity="0.1" x="100" y="36" width="3" height="7"></rect>
                <rect id="Rectangle" fill="#2082DC" fill-rule="nonzero" opacity="0.1" x="103" y="36" width="3" height="7"></rect>
                <rect id="Rectangle" fill="#2082DC" fill-rule="nonzero" opacity="0.1" x="107" y="36" width="3" height="7"></rect>
                <rect id="Rectangle" fill="#2082DC" fill-rule="nonzero" opacity="0.1" x="109" y="36" width="3" height="7"></rect>
                <rect id="Rectangle" fill="#2082DC" fill-rule="nonzero" opacity="0.1" x="114" y="36" width="3" height="7"></rect>
                <rect id="Rectangle" fill="#2082DC" fill-rule="nonzero" opacity="0.1" x="117" y="36" width="3" height="7"></rect>
                <rect id="Rectangle" fill="#2082DC" fill-rule="nonzero" opacity="0.1" x="100" y="38" width="3" height="1"></rect>
                <rect id="Rectangle" fill="#2082DC" fill-rule="nonzero" opacity="0.1" x="103" y="38" width="3" height="1"></rect>
                <rect id="Rectangle" fill="#2082DC" fill-rule="nonzero" opacity="0.1" x="107" y="38" width="3" height="1"></rect>
                <rect id="Rectangle" fill="#2082DC" fill-rule="nonzero" opacity="0.1" x="109" y="38" width="3" height="1"></rect>
                <rect id="Rectangle" fill="#2082DC" fill-rule="nonzero" opacity="0.1" x="114" y="38" width="3" height="1"></rect>
                <rect id="Rectangle" fill="#2082DC" fill-rule="nonzero" opacity="0.1" x="117" y="38" width="3" height="1"></rect>
                <rect id="Rectangle" fill="#2082DC" fill-rule="nonzero" opacity="0.1" x="100" y="40" width="3" height="1"></rect>
                <rect id="Rectangle" fill="#2082DC" fill-rule="nonzero" opacity="0.1" x="103" y="40" width="3" height="1"></rect>
                <rect id="Rectangle" fill="#2082DC" fill-rule="nonzero" opacity="0.1" x="107" y="40" width="3" height="1"></rect>
                <rect id="Rectangle" fill="#2082DC" fill-rule="nonzero" opacity="0.1" x="109" y="40" width="3" height="1"></rect>
                <rect id="Rectangle" fill="#2082DC" fill-rule="nonzero" opacity="0.1" x="114" y="40" width="3" height="1"></rect>
                <rect id="Rectangle" fill="#2082DC" fill-rule="nonzero" opacity="0.1" x="117" y="40" width="3" height="1"></rect>
                <rect id="Rectangle" fill="#2082DC" fill-rule="nonzero" opacity="0.1" x="97" y="51" width="25" height="2"></rect>
                <rect id="Rectangle" fill="#2082DC" fill-rule="nonzero" opacity="0.1" x="100" y="45" width="3" height="7"></rect>
                <rect id="Rectangle" fill="#2082DC" fill-rule="nonzero" opacity="0.1" x="103" y="45" width="3" height="7"></rect>
                <rect id="Rectangle" fill="#2082DC" fill-rule="nonzero" opacity="0.1" x="107" y="45" width="3" height="7"></rect>
                <rect id="Rectangle" fill="#2082DC" fill-rule="nonzero" opacity="0.1" x="109" y="45" width="3" height="7"></rect>
                <rect id="Rectangle" fill="#2082DC" fill-rule="nonzero" opacity="0.1" x="114" y="45" width="3" height="7"></rect>
                <rect id="Rectangle" fill="#2082DC" fill-rule="nonzero" opacity="0.1" x="117" y="45" width="3" height="7"></rect>
                <rect id="Rectangle" fill="#2082DC" fill-rule="nonzero" opacity="0.1" x="100" y="46" width="3" height="1"></rect>
                <rect id="Rectangle" fill="#2082DC" fill-rule="nonzero" opacity="0.1" x="103" y="46" width="3" height="1"></rect>
                <rect id="Rectangle" fill="#2082DC" fill-rule="nonzero" opacity="0.1" x="107" y="46" width="3" height="1"></rect>
                <rect id="Rectangle" fill="#2082DC" fill-rule="nonzero" opacity="0.1" x="109" y="46" width="3" height="1"></rect>
                <rect id="Rectangle" fill="#2082DC" fill-rule="nonzero" opacity="0.1" x="114" y="46" width="3" height="1"></rect>
                <rect id="Rectangle" fill="#2082DC" fill-rule="nonzero" opacity="0.1" x="117" y="46" width="3" height="1"></rect>
                <rect id="Rectangle" fill="#2082DC" fill-rule="nonzero" opacity="0.1" x="100" y="49" width="3" height="1"></rect>
                <rect id="Rectangle" fill="#2082DC" fill-rule="nonzero" opacity="0.1" x="103" y="49" width="3" height="1"></rect>
                <rect id="Rectangle" fill="#2082DC" fill-rule="nonzero" opacity="0.1" x="107" y="49" width="3" height="1"></rect>
                <rect id="Rectangle" fill="#2082DC" fill-rule="nonzero" opacity="0.1" x="109" y="49" width="3" height="1"></rect>
                <rect id="Rectangle" fill="#2082DC" fill-rule="nonzero" opacity="0.1" x="114" y="49" width="3" height="1"></rect>
                <rect id="Rectangle" fill="#2082DC" fill-rule="nonzero" opacity="0.1" x="117" y="49" width="3" height="1"></rect>
                <path d="M60.2890972,54.1355957 C60.11813,53.908478 59.9623449,53.669344 59.8228467,53.4198898 L63.1125029,52.8568678 L59.5485818,52.8870865 C58.8591681,51.3207169 58.8178379,49.5271975 59.4343047,47.92804 L64.2065155,50.5125335 L59.8060861,47.1359922 C60.926794,45.1039882 63.0416125,43.896304 65.2853598,44.0070089 C67.5291071,44.1177138 69.525363,45.5282353 70.45745,47.6615227 C71.389537,49.7948102 71.1010844,52.2929745 69.7100996,54.1340052 C69.9777299,54.4866934 70.2081251,54.8684918 70.3972858,55.2727728 L66.1309415,57.5868885 L70.6822166,55.9964309 C71.3323512,57.9993567 70.9689389,60.2095559 69.7161944,61.871581 C71.6500982,64.4371482 71.3699465,68.123389 69.0727072,70.3385953 C66.775468,72.5538016 63.232871,72.5538016 60.9356318,70.3385953 C58.6383925,68.123389 58.3582408,64.4371482 60.2921446,61.871581 C58.5817144,59.6013585 58.5817144,56.4042277 60.2921446,54.1340052 L60.2890972,54.1355957 Z" id="Path" fill="#2082DC" fill-rule="nonzero" opacity="0.1"></path>
                <path d="M70.9991444,58.0917719 C71.0009575,59.4862717 70.5485926,60.8405807 69.7153016,61.9353945 C71.6505503,64.4847975 71.3702037,68.1478133 69.071367,70.3490629 C66.7725302,72.5503124 63.2274698,72.5503124 60.928633,70.3490629 C58.6297963,68.1478133 58.3494497,64.4847975 60.2846984,61.9353945 C59.4811531,60.8780822 70.9991444,57.3932188 70.9991444,58.0917719 Z" id="Path" fill="#2082DC" fill-rule="nonzero" opacity="0.1"></path>
                <path d="M65.6904958,72.9428076 C65.7033073,72.9618718 65.7124583,72.9809359 65.7252697,73 L63.2801172,73 C63.2929286,72.9809359 63.3020797,72.9618718 63.3148911,72.9428076 C63.1049533,72.5958678 62.9963033,72.2022708 63.000096,71.8024263 C62.999769,71.5288153 63.0499391,71.257255 63.1483425,71 C63.1483425,71 63.1483425,71 63.1483425,71 C63.2837776,71.0207972 63.4521564,71.0433276 63.646158,71.0623917 C64.2133286,71.1160677 64.7847375,71.1160677 65.3519081,71.0623917 C65.5129661,71.0467938 65.683175,71.0242634 65.8552142,71 C65.8554479,71.0040409 65.8554479,71.0080908 65.8552142,71.0121317 C65.9516652,71.2655744 66.0005967,71.5330298 65.9998003,71.8024263 C66.0052641,72.2017951 65.8985175,72.5953612 65.6904958,72.9428076 L65.6904958,72.9428076 Z" id="Path" fill="#3F3D56" fill-rule="nonzero" opacity="0.2"></path>
                <path d="M58.6530906,74 L46.8945486,74 C46.8676448,73.9289953 46.8439062,73.854688 46.8233327,73.782032 C46.4087405,72.3906701 46.4572634,70.8939088 46.9610168,69.5349591 C44.5958054,67.8303135 43.6565995,64.6576792 44.6884373,61.8581932 C44.4519379,61.6869814 44.2267069,61.4994165 44.0142598,61.2967605 L47.1129442,59.6851185 L43.5917119,60.8509169 C42.4464017,59.5176158 41.8784865,57.7506666 42.0217962,55.9664528 L47.5165011,57.0018007 L42.1578978,55.0599042 C42.6742548,52.6858699 44.4191029,50.8121433 46.6785801,50.2053138 C48.9380572,49.5984843 51.333081,50.3603624 52.8837862,52.1792442 C54.4344914,53.9981261 54.8807092,56.5688499 54.0398807,58.839667 C54.4079643,59.1058416 54.7480035,59.4119323 55.0543121,59.7528207 L51.4966805,63.4153432 L55.5464933,60.3770017 C56.7795906,62.1569897 57.0677133,64.4663708 56.3124602,66.5164329 C58.6164131,68.1781981 59.5740829,71.2401024 58.6530906,74 L58.6530906,74 Z" id="Path" fill="#2082DC" fill-rule="nonzero" opacity="0.1"></path>
                <path d="M58.6650501,73 L47.337454,73 C47.3115363,72.9336861 47.2886676,72.8642878 47.2688481,72.7964316 C46.8694505,71.4969872 46.9161951,70.0991063 47.4014862,68.8299328 C46.3342833,68.0819733 56.3446462,61.3950609 56.5489393,62.0443206 C56.9467716,63.3445004 56.9000468,64.7423346 56.4163013,66.0123616 C58.6328728,67.5658779 59.5527524,70.4242613 58.6650501,73 Z" id="Path" fill="#2082DC" fill-rule="nonzero" opacity="0.1"></path>
                <path d="M112.126528,63.879837 C111.419101,65.0111336 110.331081,65.8818317 109.038823,66.3508017 C109.093976,66.770042 109.102906,67.193625 109.065469,67.6146345 L104.125141,67.3326222 L108.949484,68.3368247 C108.63061,69.7401262 107.78386,70.9840439 106.56866,71.8343737 L99.8446733,71.8343737 L99.8446733,72 L93,72 C93.0141063,71.9432991 93.0282125,71.8880904 93.0438862,71.8343737 C93.5541208,70.0085994 94.9530285,68.5264622 96.8055568,67.8488986 C96.4457073,65.1600831 98.0645172,62.5858194 100.723964,61.6177702 C100.68713,61.3491525 100.669848,61.0784318 100.672241,60.8075445 L103.861824,62.0012472 L100.70829,60.2375514 C100.890376,58.6313301 101.758069,57.1670052 103.107923,56.1879148 L106.013813,60.6643002 L103.836746,55.7402763 C106.275271,54.4490699 109.320716,54.8778025 111.262326,56.7856368 C113.203935,58.6934711 113.557727,61.6048442 112.124961,63.8843134 L112.126528,63.879837 Z" id="Path" fill="#2082DC" fill-rule="nonzero" opacity="0.1"></path>
                <path d="M108.991817,71.882905 C108.550537,72.6388983 107.962526,73.2960135 107.263462,73.8143779 L100.195164,73.8143779 L100.195164,74 L93,74 C93.0148286,73.9364537 93.0296572,73.8745797 93.0461334,73.8143779 C93.5824953,71.7681805 95.053036,70.1071071 97.0004257,69.3477423 C96.9394637,68.8678005 98.336647,68.9330191 100.196812,69.2507505 C103.833113,69.8694908 109.23896,71.463165 108.991817,71.882905 Z" id="Path" fill="#2082DC" fill-rule="nonzero" opacity="0.1"></path>
                <path d="M77.6566742,54.3706681 C77.6566742,54.3706681 78.5494072,59.2631521 76.5470156,60.8581991 C74.5446239,62.4532462 78.2390365,72.0252057 84.3763668,70.9098468 C90.5136971,69.794488 93,61.7622269 93,61.7622269 C93,61.7622269 86.8626697,60.487531 89.1370528,54 L77.6566742,54.3706681 Z" id="Path" fill="#EFB7B9" fill-rule="nonzero"></path>
                <path d="M77.6566742,54.3706681 C77.6566742,54.3706681 78.5494072,59.2631521 76.5470156,60.8581991 C74.5446239,62.4532462 78.2390365,72.0252057 84.3763668,70.9098468 C90.5136971,69.794488 93,61.7622269 93,61.7622269 C93,61.7622269 86.8626697,60.487531 89.1370528,54 L77.6566742,54.3706681 Z" id="Path" fill="#000000" fill-rule="nonzero" opacity="0.1"></path>
                <circle id="Oval" fill="#EFB7B9" fill-rule="nonzero" cx="84.5" cy="49.5" r="9.5"></circle>
                <path d="M98.9967981,66.6637445 L98.9967981,73 L67,73 L67,66.9531481 C67.0006085,65.3851132 67.9759417,63.9694066 69.4769661,63.3578055 L70.3954811,62.9826526 C72.7164429,62.0317549 75.5356633,60.8511717 76.4573621,60.3596449 C76.5583257,60.3112629 76.6533647,60.2522005 76.7407168,60.1835527 C77.2453429,59.6981509 77.1450544,60.3290202 77.1450544,60.3290202 C77.1450544,60.3290202 77.1307275,60.4484566 77.1211762,60.6567047 C77.0670523,62.0822857 77.2803643,67.6896728 84.1095316,67.2226457 C90.7731434,66.7632748 91.0660494,62.4390637 91.005558,61.1666064 C91.0017747,61.0487328 90.9911456,60.9311546 90.9737204,60.8144221 C90.9737204,60.7807349 91.5467973,60.9675457 92.323635,61.2370433 C93.7197142,61.7316326 95.7716482,62.5278754 96.3240307,62.9030283 C96.4959538,63.017871 96.7044902,63.1403699 96.9305372,63.2613376 C98.2120014,63.9493463 99.004372,65.2520953 98.9999819,66.6637445 L98.9967981,66.6637445 Z" id="Path" fill="#2082DC" fill-rule="nonzero"></path>
                <path d="M93,61.292137 C92.3963637,63.9281939 90.5001955,68.8663856 83.6606896,68.9980279 C76.377835,69.132881 75.9583589,62.3131676 76.0026938,60.3786679 C76.1117237,60.3278815 76.2141473,60.2653909 76.3079223,60.1924422 C76.8484667,59.6835323 76.7410399,60.3449546 76.7410399,60.3449546 C76.7410399,60.3449546 75.821944,68.1327206 84.201234,67.5692273 C92.5805239,67.005734 91.5540012,60.8506537 91.5540012,60.8506537 C91.5540012,60.8137296 92.1678686,61.0031661 93,61.292137 Z" id="Path" fill="#000000" fill-rule="nonzero" opacity="0.1"></path>
                <path d="M72.6563865,47.8376382 C73.3083085,47.6438826 74.0857255,47.9717767 74.449172,48.4338093 C74.8126185,48.8958419 74.8631425,49.4547523 74.9071472,49.9898159 C75.3390455,50.0732798 75.5818865,49.6261515 75.6210018,49.2908053 C75.7839823,47.9181213 75.7921313,46.5201001 76.295741,45.1966003 C76.7993508,43.8731005 77.8994691,42.5913326 79.5912067,42.0816064 C80.1665165,41.8990787 80.7813108,41.8454124 81.3839921,41.9251115 C81.7409194,41.9802573 82.0782891,42.0935298 82.4352163,42.1471852 C83.6689787,42.3334886 85.0135678,41.7984251 86.1723591,42.171032 C86.8976223,42.4050292 87.3653764,42.9460544 87.6978566,43.4885701 C87.8460477,43.779847 88.0465751,44.0463507 88.2911056,44.2770064 C88.7800471,44.6794219 89.5558343,44.7852423 90.25991,44.9119286 C90.9639857,45.038615 91.7365133,45.2562174 92.0380272,45.7540203 C92.3102046,46.2011486 92.1097386,46.7227983 92.0184696,47.2116586 C91.8791041,47.9819126 92.0205553,48.772704 92.4210314,49.4622045 C92.5514158,49.6887495 92.8154442,49.945103 93.1267369,49.8720721 C93.2684259,49.8283663 93.3881805,49.7394858 93.4641066,49.6216802 C94.279009,48.5783808 94.2529322,47.2250724 95.2683007,46.2935551 C95.6089299,45.9820557 96.0473474,45.7376256 96.3781978,45.4201645 C96.8868126,44.9504842 97.1030153,44.2783701 96.953519,43.6316512 C96.7709808,42.9147555 96.1386165,42.3170939 95.6382664,41.6940952 C94.9805605,40.8957619 94.5014917,39.9866413 94.2284851,39.0187774 C94.1803383,38.9066929 94.1803383,38.7821018 94.2284851,38.6700173 C94.3242498,38.5559483 94.4475108,38.4636301 94.588672,38.4002499 C95.1608979,38.0532295 95.3613602,37.3710518 95.056426,36.8084731 C94.77284,36.2674478 94.1355862,35.8665228 93.4363999,35.6250735 C92.7372135,35.3836242 91.9695754,35.2807847 91.2100863,35.1779451 C90.711366,35.2450144 90.126266,34.9841895 89.9714345,34.6190347 C89.9029827,34.4565781 89.9029827,34.2807077 89.8329011,34.118251 C89.6976273,33.8067516 89.3081039,33.5861683 88.889244,33.5101565 C88.4632263,33.4463078 88.0267875,33.4743786 87.6147365,33.59213 C87.1453527,33.7128547 86.6009978,33.8902156 86.1919168,33.6845366 C85.9767825,33.5727545 85.856177,33.3700563 85.6247447,33.2791402 C85.1553608,33.0958176 84.6599001,33.4654437 84.3209007,33.7709814 C83.9919827,34.0892812 83.5893693,34.3362642 83.1425517,34.4938388 C82.6715381,34.6428816 82.0913275,34.6428816 81.6855061,34.4059036 C81.3595451,34.2166193 81.1965646,33.912572 80.9374256,33.6711227 C80.5120465,33.2731785 79.838937,33.0570665 79.1674574,33.0078824 C78.4939924,32.9755176 77.8192357,33.0429606 77.1693165,33.2075997 C75.9285196,33.482479 74.743113,33.9352075 73.6570868,34.5489846 C73.1143617,34.860484 72.5944539,35.2241484 72.3108679,35.6936331 C72.1094146,36.0597301 72.0055374,36.4642202 72.0077242,36.8740519 C71.9572002,38.1573102 72.4233244,39.5106185 73.6375291,40.4093465 C72.8975977,40.6925277 72.6466077,41.3855766 72.4738484,42.0011233 C72.1967815,42.9818247 71.9180849,43.9804113 72.0223924,44.9819787 C72.0745462,45.4991571 72.2293776,46.0163356 72.1462576,46.5305331 C72.1071423,46.7794346 72.0126136,47.0238647 72.0354308,47.275747 C72.0973135,47.5615334 72.3432392,47.7840669 72.6563865,47.8376382 L72.6563865,47.8376382 Z" id="Path" fill="#454B69" fill-rule="nonzero"></path>
                <g id="Group" opacity="0.1" transform="translate(71.000000, 37.000000)" fill="#000000" fill-rule="nonzero">
                    <path d="M24.6935484,7.57903226 C24.5872784,7.80891785 24.4439733,8.0197889 24.2693548,8.20322581 C23.9467742,8.54677419 23.5080645,8.81129032 23.1709677,9.15 C22.166129,10.1564516 22.1870968,11.6258065 21.3854839,12.7516129 C21.3102737,12.8786847 21.1917163,12.9743324 21.0516129,13.0209677 C20.7435484,13.1 20.4822581,12.8225806 20.3532258,12.5774194 C20.196497,12.2792505 20.0788608,11.9621208 20.0032258,11.633871 C19.9860215,11.7155914 19.9698925,11.7978495 19.9548387,11.8806452 C19.8169185,12.7141946 19.9569028,13.569969 20.3532258,14.316129 C20.4822581,14.5612903 20.7435484,14.8387097 21.0516129,14.7596774 C21.1918325,14.7123802 21.3103452,14.6161959 21.3854839,14.4887097 C22.1919355,13.3596774 22.166129,11.8951613 23.1709677,10.8870968 C23.5080645,10.55 23.9419355,10.2854839 24.2693548,9.94193548 C24.772695,9.43365935 24.9866556,8.70631442 24.8387097,8.00645161 C24.8042955,7.85960886 24.7556795,7.71646174 24.6935484,7.57903226 L24.6935484,7.57903226 Z" id="Path"></path>
                    <path d="M22.5016129,0.614516129 C22.3616676,0.681990419 22.2395606,0.781444091 22.1451613,0.90483871 C22.0975138,1.0261337 22.0975138,1.16096307 22.1451613,1.28225806 C22.2381696,1.64785093 22.3572928,2.00629834 22.5016129,2.35483871 L22.5016129,2.35483871 C23.0751256,1.97588539 23.2717617,1.22616676 22.9580645,0.614516129 C22.9126663,0.518448471 22.8586836,0.426677774 22.7967742,0.340322581 C22.7127091,0.446018925 22.6132063,0.538453187 22.5016129,0.614516129 L22.5016129,0.614516129 Z" id="Path"></path>
                    <path d="M1.75967742,2.78870968 C0.927866587,2.10097629 0.379336785,1.13027957 0.219354839,0.0629032258 C0.177679602,0.275591067 0.153940263,0.491403247 0.148387097,0.708064516 C0.0965997458,1.73294479 0.367355793,2.74827997 0.922580645,3.61129032 C1.0913738,3.24377398 1.38926488,2.95104864 1.75967742,2.78870968 Z" id="Path"></path>
                    <path d="M19.9548387,10.1419355 C20.0451613,9.61290323 20.2435484,9.05 19.9741935,8.56451613 C19.6758065,8.02580645 18.9129032,7.78870968 18.2145161,7.65322581 C17.516129,7.51774194 16.7532258,7.4016129 16.266129,6.96612903 C16.0241345,6.71651931 15.8256866,6.42811568 15.6790323,6.11290323 C15.3564516,5.52580645 14.8870968,4.94032258 14.1693548,4.68709677 C13.0225806,4.28387097 11.6919355,4.86290323 10.4709677,4.66129032 C10.1177419,4.60322581 9.78387097,4.48064516 9.43064516,4.42096774 C8.83485704,4.33213195 8.22645314,4.38744139 7.65645161,4.58225806 C5.98225806,5.13387097 4.89354839,6.51774194 4.39516129,7.95322581 C3.89677419,9.38870968 3.88548387,10.8983871 3.72741935,12.383871 C3.68870968,12.7467742 3.4483871,13.2306452 3.02096774,13.1403226 C2.97741935,12.5612903 2.92419355,11.9564516 2.56774194,11.4564516 C2.21129032,10.9564516 1.45,10.6 0.793548387,10.8112903 C0.594805295,10.7664021 0.418630768,10.6520031 0.296774194,10.4887097 C0.319240398,10.703382 0.315991592,10.9199691 0.287096774,11.133871 C0.248387097,11.4032258 0.15483871,11.6677419 0.177419355,11.9403226 C0.237845461,12.2497496 0.48058104,12.4912076 0.790322581,12.55 C1.43548387,12.3403226 2.20483871,12.6951613 2.56451613,13.1951613 C2.92419355,13.6951613 2.97419355,14.3 3.01774194,14.8790323 C3.44516129,14.9693548 3.68548387,14.4854839 3.72419355,14.1225806 C3.88548387,12.6370968 3.89354839,11.1241935 4.39193548,9.69193548 C4.89032258,8.25967742 5.97903226,6.87258065 7.65322581,6.32096774 C8.22256947,6.12344094 8.83098807,6.06536462 9.42741935,6.1516129 C9.78064516,6.21129032 10.1145161,6.33387097 10.4677419,6.39193548 C11.6887097,6.59354839 13.0193548,6.01451613 14.166129,6.41774194 C14.883871,6.67096774 15.3467742,7.25645161 15.6758065,7.84354839 C15.8224608,8.15876084 16.0209087,8.44716447 16.2629032,8.69677419 C16.7467742,9.13225806 17.5145161,9.24677419 18.2112903,9.38387097 C18.9080645,9.52096774 19.616129,9.74032258 19.9354839,10.2403226 C19.9435484,10.2129032 19.9483871,10.1774194 19.9548387,10.1419355 Z" id="Path"></path>
                    <path d="M0.290322581,9.40967742 C0.328104298,8.97167304 0.302025262,8.53050268 0.212903226,8.1 C0.143907059,8.55415728 0.128748465,9.01487024 0.167741935,9.47258065 C0.177419355,9.59032258 0.193548387,9.70645161 0.209677419,9.82419355 C0.229032258,9.68548387 0.264516129,9.5483871 0.290322581,9.40967742 Z" id="Path"></path>
                </g>
                <rect id="Rectangle" fill="#FFFFFF" fill-rule="nonzero" x="132" y="64" width="14" height="10"></rect>
                <path d="M143.750718,71.1309756 C143.538084,71.5311277 143.210541,71.8388411 142.821527,72.0039152 C142.838349,72.1520601 142.841125,72.3017803 142.829808,72.4505785 L141.339127,72.3504963 L142.790057,72.7063443 C142.693229,73.2012819 142.438932,73.6399659 142.07453,73.940692 L140.057141,73.940692 L140.057141,74 L138,74 C138,73.9796129 138,73.9610791 138.013251,73.940692 C138.057393,73.7522649 138.125442,73.5718894 138.215321,73.4050666 C138.427838,73.005522 138.754656,72.6979407 139.142856,72.532127 C139.033823,71.5819293 139.520598,70.6718139 140.320494,70.3303176 C140.308965,70.2357491 140.303981,70.1403253 140.305588,70.0448979 L141.264593,70.4674673 L140.315525,69.8447334 C140.369697,69.2758469 140.631659,68.7573379 141.039334,68.4120745 L141.912211,69.9948567 L141.257967,68.2526843 C141.990717,67.8063488 142.8996,67.96227 143.479198,68.6337421 C144.058796,69.3052141 144.166508,70.327032 143.742437,71.1309756 L143.750718,71.1309756 Z" id="Path" fill="#2082DC" fill-rule="nonzero" opacity="0.1"></path>
                <path d="M142.997406,72.1535809 C142.858692,72.4559627 142.67392,72.7183802 142.454406,72.9247627 L140.248018,72.9247627 L140.248018,73 L138,73 C138,72.9741372 138,72.9506256 138.01448,72.9247627 C138.062719,72.6857268 138.137081,72.4569051 138.2353,72.2452763 C138.467536,71.7384198 138.824679,71.3482267 139.248899,71.1378779 C139.230799,70.9474336 139.667009,70.9732964 140.248018,71.1002593 C141.384697,71.3494827 143.075236,71.9866482 142.997406,72.1535809 Z" id="Path" fill="#2082DC" fill-rule="nonzero" opacity="0.1"></path>
                <path d="M132.244245,71.1309756 C132.456821,71.5311277 132.784273,71.8388411 133.17318,72.0039152 C133.156362,72.1520601 133.153587,72.3017803 133.164901,72.4505785 L134.655171,72.3504963 L133.204642,72.7063443 C133.301443,73.2012819 133.555669,73.6399659 133.919971,73.940692 L135.941771,73.940692 L135.941771,74 L138,74 C138,73.9796129 137.990065,73.9610791 137.986753,73.940692 C137.941182,73.7528172 137.873235,73.5726593 137.784739,73.4050666 C137.571262,73.0057725 137.244112,72.6983425 136.855804,72.532127 C136.964807,71.5819293 136.478166,70.6718139 135.67849,70.3303176 C135.689773,70.2357067 135.695306,70.1403475 135.695049,70.0448979 L134.736308,70.4674673 L135.683458,69.8447334 C135.629301,69.2758469 135.367412,68.7573379 134.959849,68.4120745 L134.087213,69.9948567 L134.741276,68.2526843 C134.008728,67.8063488 133.100096,67.96227 132.520658,68.6337421 C131.94122,69.3052141 131.833538,70.327032 132.257492,71.1309756 L132.244245,71.1309756 Z" id="Path" fill="#2082DC" fill-rule="nonzero" opacity="0.1"></path>
                <path d="M133.002949,72.1535809 C133.141502,72.4559627 133.326061,72.7183802 133.545321,72.9247627 L135.752774,72.9247627 L135.752774,73 L138,73 C138,72.9741372 137.989153,72.9506256 137.985537,72.9247627 C137.935781,72.6864275 137.861594,72.4578818 137.764972,72.2452763 C137.531893,71.7387375 137.174702,71.3487364 136.750737,71.1378779 C136.768816,70.9474336 136.333111,70.9732964 135.752774,71.1002593 C134.613793,71.3494827 132.919786,71.9866482 133.002949,72.1535809 Z" id="Path" fill="#2082DC" fill-rule="nonzero" opacity="0.1"></path>
                <rect id="Rectangle" fill="#464353" fill-rule="nonzero" x="137" y="65" width="4" height="4"></rect>
                <rect id="Rectangle" fill="#000000" fill-rule="nonzero" opacity="0.1" x="137" y="65" width="4" height="4"></rect>
                <polygon id="Path" fill="#A1616A" fill-rule="nonzero" points="135.067213 71.4863459 135 73 135.940984 73 136 71"></polygon>
                <polygon id="Path" fill="#A1616A" fill-rule="nonzero" points="139.155635 71.4863459 139 73 139.940966 73 140 71"></polygon>
                <path d="M138.161264,66.1948481 C138.161264,66.1948481 138.127276,66.9029691 138.008319,67.0879079 C137.889362,67.2728467 139.070435,68.9105285 140,67.2923139 C140,67.2923139 139.600644,66.8056329 139.69411,66.2605501 C139.787577,65.7154672 138.161264,66.1948481 138.161264,66.1948481 Z" id="Path" fill="#A1616A" fill-rule="nonzero"></path>
                <path d="M138.161264,66.1948481 C138.161264,66.1948481 138.127276,66.9029691 138.008319,67.0879079 C137.889362,67.2728467 139.070435,68.9105285 140,67.2923139 C140,67.2923139 139.600644,66.8056329 139.69411,66.2605501 C139.787577,65.7154672 138.161264,66.1948481 138.161264,66.1948481 Z" id="Path" fill="#000000" fill-rule="nonzero" opacity="0.1"></path>
                <circle id="Oval" fill="#A1616A" fill-rule="nonzero" cx="139" cy="65" r="2"></circle>
                <path d="M138.954284,67.6683717 C138.954284,67.6683717 138.287951,67.6564365 138.188475,67 C138.056453,67.1232213 137.917214,67.2371261 137.771623,67.341006 C137.706884,67.3648764 137.070553,67.7536232 136.95055,67.7774936 C136.833177,67.8031842 136.724209,67.862017 136.634753,67.9479966 C136.317107,68.2174655 136.124908,68.6238246 136.10895,69.059676 C136.086844,69.8286445 136,71.3307758 136,71.3307758 L136.033159,71.8746803 L136.033159,72.2293265 C136.033159,72.2293265 136.6237,72.3998295 136.980551,72.0588235 C136.980551,72.0588235 136.980551,71.9292413 137.046868,71.8883205 C137.113185,71.8473998 137.122659,71.6751918 137.111606,71.6035806 C137.105928,71.4973888 137.105928,71.3909317 137.111606,71.28474 C137.12304,71.3424778 137.154729,71.3931944 137.20003,71.4262575 C137.226239,71.5224503 137.233765,71.6234523 137.222136,71.7229327 C137.188977,71.7928389 137.155818,71.9582268 137.188977,71.9940324 C137.223308,72.0590655 137.214342,72.1406728 137.166871,72.1952259 C137.106639,72.2862919 137.058784,72.3861961 137.024762,72.4919011 C137.024762,72.4919011 136.991603,72.7033248 136.958445,72.7271952 C136.92106,72.8136789 136.895529,72.9055766 136.882653,73 L140.83012,73 C140.760459,72.784053 140.707642,72.5621946 140.672221,72.3367434 C140.683274,72.2310315 140.574324,71.7928389 140.650115,71.6751918 C140.7617,71.5192615 140.823225,71.3283336 140.825383,71.1312873 L140.869594,71.5916454 L140.749591,72.6146633 C140.749591,72.6146633 141.482241,72.8635976 141.559611,72.7084399 C141.641519,72.438439 141.703815,72.1619553 141.745932,71.8815004 C141.745932,71.8815004 141.921199,71.0289855 141.965411,70.9113384 C142.009622,70.7936914 142.10752,68.428815 141.5154,68.086104 C140.92328,67.743393 139.806936,67.1534527 139.778515,67.1824382 C139.648151,67.5377664 139.30158,67.7420903 138.954284,67.6683717 L138.954284,67.6683717 Z" id="Path" fill="#2082DC" fill-rule="nonzero"></path>
                <path d="M136.063563,71 C135.907513,71.1461892 135.840501,71.3252788 135.875668,71.5021459 C135.912429,71.6773292 135.999932,71.8463058 136.133478,72" id="Path" stroke="#000000" opacity="0.1"></path>
                <path d="M138.953851,71 C139.001794,71.0927963 139.039278,71.1879647 139.065972,71.2846715 C139.163045,71.5292556 139.098667,71.7906288 138.889782,72" id="Path" stroke="#000000" opacity="0.1"></path>
                <path d="M137.694349,65.3894884 C137.824207,65.3565391 137.96226,65.3699435 138.082431,65.4271695 C138.200627,65.4851491 138.324528,65.5319517 138.452348,65.5669034 C138.538221,65.5841738 138.617489,65.5841738 138.713271,65.5967342 C139.039594,65.6530817 139.297136,65.8923411 139.363927,66.2012009 C139.438241,66.5874316 139.198786,66.9673821 139.198786,67.361463 C139.199689,67.5869804 139.28319,67.8051559 139.434938,67.9784901 C139.562284,68.0888767 139.673381,68.2150956 139.765221,68.3537305 C139.813111,68.4542132 139.82302,68.5688264 139.869259,68.6677392 C139.97027,68.8455746 140.13755,68.9810923 140.338261,69.0476897 C140.537269,69.1112469 140.729209,69.1932852 140.911301,69.2926164 C141.241583,69.5014322 141.43645,69.9017933 141.819578,69.9881457 C141.858043,70.0039514 141.901666,70.0039514 141.940131,69.9881457 C141.9754,69.9614952 141.99605,69.9210741 141.996279,69.8782426 C142.015593,69.7225528 141.959029,69.5670051 141.842697,69.455901 C141.748567,69.3664085 141.6115,69.2988966 141.581774,69.1780033 C141.552049,69.0571099 141.631317,68.9534871 141.674253,68.843584 C141.811321,68.4871842 141.583426,68.0993834 141.324154,67.8104954 C141.064882,67.5216074 140.754417,67.2358595 140.691663,66.8684694 C140.676821,66.7444459 140.671853,66.6195339 140.6768,66.494799 C140.672027,66.2377532 140.625228,65.9829774 140.538082,65.7396081 C140.496205,65.6080957 140.42901,65.4851183 140.339912,65.3769281 C140.257341,65.2827255 140.151651,65.2105035 140.065778,65.119441 C139.951706,64.9696019 139.849056,64.8121958 139.758615,64.6484279 C139.492107,64.2543421 139.037472,64.0114678 138.544827,64 C138.08078,64 137.641504,64.1946854 137.248468,64.4286219 C137.103917,64.5035946 136.978695,64.6081675 136.881854,64.7347803 C136.716713,64.9844172 136.766255,65.3141264 136.670473,65.5967342 C136.574692,65.879342 136.348448,66.0881578 136.26918,66.3644854 C136.244793,66.4456851 136.240833,66.5311993 136.25762,66.6141223 C136.287093,66.7016214 136.326403,66.7858439 136.374871,66.8653293 C136.462594,67.0674838 136.51234,67.2827009 136.521846,67.5011969 C136.546618,67.7649642 136.558177,68.049142 136.412853,68.2736582 C136.30007,68.4097744 136.159675,68.5229633 136,68.6065075 C136.161939,68.7314294 136.368585,68.7916634 136.576343,68.7745021 C136.890111,68.7870625 137.253422,68.7745021 137.448289,68.5389956 C137.564903,68.3698995 137.611933,68.1658963 137.580402,67.9659297 C137.564993,67.7474031 137.518324,67.5318933 137.441683,67.325352 C137.334341,67.034894 137.1692,66.7601364 137.121309,66.4555479 C137.08338,66.2335335 137.143091,66.0064562 137.28645,65.8275306 C137.345901,65.7568786 137.451592,65.7207676 137.501134,65.6454055 C137.563888,65.5449227 137.545722,65.4397298 137.694349,65.3894884 Z" id="Path" fill="#464353" fill-rule="nonzero"></path>
                <g id="Group" opacity="0.1" transform="translate(136.000000, 64.000000)" fill="#000000" fill-rule="nonzero">
                    <path d="M0.484736842,2.173125 C0.568611041,2.41454485 0.616173875,2.67156452 0.625263158,2.9325 C0.625263158,3.015 0.636315789,3.099375 0.637894737,3.18375 C0.654472927,3.0005273 0.654472927,2.8157227 0.637894737,2.6325 C0.628213609,2.37468594 0.580655752,2.12086592 0.497368421,1.8825 C0.451973194,1.78766153 0.414429091,1.68781933 0.385263158,1.584375 C0.36190164,1.68069744 0.358113743,1.78222663 0.374210526,1.880625 C0.402303213,1.98246234 0.439349647,2.08050308 0.484736842,2.173125 Z" id="Path"></path>
                    <path d="M1.52526316,3.901875 C1.33894737,4.18125 0.991578947,4.198125 0.691578947,4.185 C0.56466206,4.18547218 0.438442558,4.16270474 0.317368421,4.1175 C0.257368421,4.175625 0.192631579,4.23 0.129473684,4.2825 C0.284306557,4.43168609 0.48188505,4.50361967 0.680526316,4.483125 C0.980526316,4.498125 1.32789474,4.483125 1.51421053,4.201875 C1.62096261,4.0143049 1.66695181,3.78719816 1.64368421,3.5625 C1.62965616,3.68590393 1.58884723,3.80285551 1.52526316,3.901875 L1.52526316,3.901875 Z" id="Path"></path>
                    <path d="M5.47421053,4.651875 C5.47860774,4.67325864 5.4849613,4.69400701 5.49315789,4.71375 C5.51210526,4.66125 5.53421053,4.606875 5.55157895,4.5525 C5.58947374,4.42900142 5.60033959,4.29609842 5.58315789,4.16625 C5.57778701,4.1960805 5.57093291,4.22550703 5.56263158,4.254375 C5.52157895,4.385625 5.44736842,4.516875 5.47421053,4.651875 Z" id="Path"></path>
                    <path d="M3.35210526,1.494375 C3.37027236,1.36589935 3.37027236,1.23472565 3.35210526,1.10625 C3.28864585,0.737139212 3.0422133,0.451185199 2.73,0.384375 C2.64631579,0.3675 2.56263158,0.3675 2.48052632,0.34875 C2.35855184,0.306190629 2.24015299,0.25032778 2.12684211,0.181875 C2.0121436,0.112904996 1.88014002,0.0962290119 1.75578947,0.135 C1.61368421,0.195 1.63105263,0.3225 1.56789474,0.44625 C1.52210526,0.53625 1.41947368,0.58125 1.36263158,0.66375 C1.23748841,0.861945734 1.18099012,1.10951416 1.20473684,1.355625 C1.2245099,1.21218466 1.27508414,1.07721806 1.35157895,0.96375 C1.40842105,0.879375 1.50947368,0.83625 1.55684211,0.74625 C1.62,0.620625 1.60263158,0.495 1.74473684,0.435 C1.86889608,0.395650786 2.00089185,0.411658784 2.11578947,0.48 C2.22879919,0.549241269 2.34726257,0.605134566 2.46947368,0.646875 C2.55157895,0.6675 2.62736842,0.6675 2.71894737,0.6825 C3.03095123,0.749792136 3.27719233,1.03552399 3.34105263,1.404375 C3.34629392,1.43407612 3.34998516,1.46413336 3.35210526,1.494375 L3.35210526,1.494375 Z" id="Path"></path>
                    <path d="M5.81052632,5.62125 C5.773478,5.63849812 5.73231147,5.63849812 5.69526316,5.62125 C5.32894737,5.518125 5.13947368,5.04 4.82684211,4.790625 C4.65209082,4.6735193 4.46869741,4.57561259 4.27894737,4.498125 C4.08715572,4.41937272 3.92716813,4.25815283 3.83052632,4.04625 C3.78631579,3.924375 3.77684211,3.789375 3.73105263,3.67125 C3.64316505,3.50575464 3.53695181,3.35503143 3.41526316,3.223125 C3.28369898,3.03715522 3.20422324,2.80711023 3.18789474,2.565 C3.1784535,2.63758763 3.1737028,2.71092665 3.17368421,2.784375 C3.17653429,3.05727326 3.26040862,3.32021928 3.41052632,3.526875 C3.53228434,3.6587025 3.63850586,3.80943747 3.72631579,3.975 C3.77210526,4.095 3.78157895,4.231875 3.82578947,4.35 C3.92236787,4.56237721 4.08230716,4.72421719 4.27421053,4.80375 C4.4644862,4.87965221 4.64800367,4.97762516 4.82210526,5.09625 C5.13789474,5.345625 5.32421053,5.82375 5.69052632,5.926875 C5.72730333,5.94575078 5.76901246,5.94575078 5.80578947,5.926875 C5.8393293,5.89487588 5.85902903,5.84671294 5.85947368,5.795625 C5.86661236,5.72487905 5.86340736,5.65320046 5.85,5.58375 C5.83988841,5.60020054 5.82626114,5.61314645 5.81052632,5.62125 Z" id="Path"></path>
                </g>
                <rect id="Rectangle" fill="#2082DC" fill-rule="nonzero" opacity="0.1" x="131" y="63" width="3" height="4"></rect>
                <rect id="Rectangle" fill="#2082DC" fill-rule="nonzero" opacity="0.1" x="132" y="64" width="2" height="3"></rect>
                <rect id="Rectangle" fill="#2082DC" fill-rule="nonzero" opacity="0.1" x="141" y="64" width="4" height="2"></rect>
                <rect id="Rectangle" fill="#2082DC" fill-rule="nonzero" opacity="0.1" x="142" y="64" width="3" height="2"></rect>
            </g>
        </g>
    </g>
</svg>