<?xml version="1.0" encoding="UTF-8"?>
<svg width="185px" height="124px" viewBox="0 0 185 124" version="1.1" xmlns="http://www.w3.org/2000/svg" xmlns:xlink="http://www.w3.org/1999/xlink">
    <!-- Generator: Sketch 53.1 (72631) - https://sketchapp.com -->
    <title>undraw_calling_kpbp</title>
    <desc>Created with Sketch.</desc>
    <defs>
        <linearGradient x1="49.9999886%" y1="100.001193%" x2="49.9999886%" y2="-0.00476393389%" id="linearGradient-1">
            <stop stop-color="#808080" stop-opacity="0.25" offset="0%"></stop>
            <stop stop-color="#808080" stop-opacity="0.12" offset="54%"></stop>
            <stop stop-color="#808080" stop-opacity="0.1" offset="100%"></stop>
        </linearGradient>
    </defs>
    <g id="Page-1" stroke="none" stroke-width="1" fill="none" fill-rule="evenodd">
        <g id="Inital-Screen---I-live-Copy" transform="translate(-30.000000, -114.000000)">
            <g id="undraw_calling_kpbp" transform="translate(30.000000, 114.000000)">
                <ellipse id="Oval" fill="#2082DC" fill-rule="nonzero" opacity="0.1" cx="125" cy="122" rx="23" ry="2"></ellipse>
                <path d="M185,72.3288174 C184.992405,84.828856 179.431991,96.697781 169.785795,104.804145 C160.1396,112.910508 147.376607,116.440006 134.864153,114.461429 L66.2848238,114.461429 C63.6360254,114.819967 60.9655159,114.999839 58.2918951,114.999793 C56.3725157,114.999793 54.4762808,114.909535 52.6031904,114.729018 C22.7406611,111.868967 -0.0305752092,87.0952108 3.08157072e-05,57.4998967 C3.08157072e-05,25.7427515 26.0989616,0 58.2918951,0 C84.2196642,0 106.189722,16.698862 113.761206,39.7880171 C121.571357,33.2337291 131.495184,29.6418502 141.749374,29.6578414 C165.632891,29.6578414 185,48.7618237 185,72.3288174 Z" id="Path" fill="#2082DC" fill-rule="nonzero" opacity="0.1"></path>
                <path d="M169,106.838024 C159.492814,114.234843 147.325643,117.356603 135.415586,115.454856 L66.7016627,115.454856 C64.0476658,115.817747 61.371915,115.999803 58.6930469,115.999756 C56.7699005,115.999756 54.8699441,115.908402 52.9931775,115.725694 C29.7325505,113.452399 10.0688924,97.586738 3,75.3886018 C8.59470576,63.4765769 22.9681488,55 39.8202179,55 C56.2419251,55 70.3176741,63.0509747 76.192277,74.4858093 C79.0850668,73.9616317 82.0194571,73.698862 84.9596889,73.7007022 C101.98002,73.7007022 116.47157,82.3530013 121.943315,94.4439725 C126.475898,93.0750267 131.187401,92.3844869 135.923608,92.3949559 C149.805208,92.4014044 162.005809,98.1518704 169,106.838024 Z" id="Path" fill="#2082DC" fill-rule="nonzero" opacity="0.1"></path>
                <path d="M56,107.537258 C56,111.599197 54.4367209,113.804566 51.8763146,115 C42.2317748,114.071536 32.9828212,110.71171 25,105.236761 C25.2046737,103.85581 25.5968362,102.509036 26.1657005,101.233485 L33.4477505,103.491174 L26.9624481,99.6860796 C27.8395257,98.1934232 28.9601671,96.8570484 30.2782537,95.7319521 L42.512543,99.5243631 L32.9277176,93.9118485 C36.9218913,91.7297084 41.6736764,91.3986391 45.9334743,93.0057035 C50.1932722,94.6127679 53.5347587,97.9971296 55.0792079,102.268788 L55.1126045,102.363915 C55.1380496,102.43526 55.1634946,102.506606 55.1873493,102.579537 C55.2732263,102.832153 55.3522119,103.087411 55.4243062,103.345312 C55.4513415,103.437269 55.4767865,103.529225 55.4990509,103.622767 C55.5213153,103.716309 55.5451701,103.800338 55.5658441,103.889124 C55.5865182,103.977909 55.6040117,104.047669 55.6199148,104.1206 C55.631047,104.168164 55.6421792,104.215728 55.6517211,104.263291 C55.6692146,104.339393 55.6851177,104.421837 55.6994306,104.493182 C55.721695,104.604164 55.7439594,104.716732 55.7630431,104.827714 C55.7821269,104.938696 55.802801,105.05919 55.8202945,105.174929 C55.8377879,105.290667 55.858462,105.431772 55.8743652,105.56178 C55.8902683,105.691787 55.9029908,105.793256 55.914123,105.908995 C55.914123,105.94546 55.9220746,105.98034 55.9252552,106.016806 C55.9363874,106.118275 55.944339,106.219744 55.9522906,106.321213 C55.9530764,106.334414 55.9530764,106.347649 55.9522906,106.36085 C55.9618325,106.487686 55.969784,106.614523 55.9761453,106.741359 C55.9825065,106.868196 55.9872775,106.991861 55.9904581,107.112356 C55.9912887,107.124497 55.9912887,107.13668 55.9904581,107.148821 C55.9984097,107.275658 56,107.405665 56,107.537258 Z" id="Path" fill="#2082DC" fill-rule="nonzero"></path>
                <path d="M56,107.989917 C56,112.349771 54.4483031,114.716889 51.9068666,116 C45.7161224,115.357314 39.6660278,113.618644 34,110.853943 L34.2588792,110.668454 C35.4285714,109.8329 36.6377269,108.978627 38.0142068,108.694437 C39.2249408,108.444282 40.4735596,108.655297 41.703236,108.580421 C43.8438938,108.439132 45.859054,107.443605 47.355959,105.787868 C48.2352013,104.807667 48.9344909,103.604538 49.9842147,102.855773 C51.1239148,102.049149 52.56985,101.875572 53.9210734,102.076377 C54.3136069,102.138092 54.702557,102.223885 55.08603,102.333339 L55.1191792,102.435443 C55.1444357,102.512022 55.1696922,102.5886 55.1933702,102.66688 C55.2786109,102.938024 55.3570113,103.212003 55.4285714,103.488819 C55.4554065,103.58752 55.480663,103.686221 55.5027624,103.786624 C55.5248619,103.887026 55.5485399,103.977218 55.5690608,104.072516 C55.5895817,104.167813 55.6069455,104.24269 55.6227309,104.32097 C55.6337806,104.372022 55.6448303,104.423074 55.6543015,104.474126 C55.6716654,104.555809 55.6874507,104.6443 55.7016575,104.720878 C55.7237569,104.84 55.7458564,104.960823 55.7647987,105.079945 C55.7837411,105.199067 55.804262,105.328399 55.8216259,105.452626 C55.8389897,105.576852 55.8595107,105.728307 55.875296,105.86785 C55.8910813,106.007392 55.9037096,106.116304 55.9147593,106.24053 C55.9147593,106.27967 55.9226519,106.317109 55.925809,106.356249 C55.9368587,106.46516 55.9447514,106.574071 55.952644,106.682982 C55.953424,106.697151 55.953424,106.711357 55.952644,106.725526 C55.9621152,106.861665 55.9700079,106.997804 55.976322,107.133943 C55.9826361,107.270082 55.9873717,107.402818 55.9905288,107.53215 C55.9913533,107.545181 55.9913533,107.558258 55.9905288,107.57129 C55.9984215,107.709131 56,107.848673 56,107.989917 Z" id="Path" fill="#000000" fill-rule="nonzero" opacity="0.1"></path>
                <path d="M151.999973,110.008483 C152.00131,110.450904 151.95367,110.892221 151.857846,111.325076 C151.84008,111.406515 151.820538,111.486257 151.800996,111.564303 C151.296446,113.496776 149.873405,114.910078 148.174993,115 C148.118143,115 148.061292,115 147.997335,115 C146.201212,115 144.682235,113.520529 144.181239,111.482864 C144.167026,111.428571 144.15459,111.374279 144.142154,111.3132 C144.04633,110.880345 143.99869,110.439028 144.000027,109.996607 C144.000027,107.236172 145.789045,105 147.997335,105 C150.205626,105 151.999973,107.248049 151.999973,110.008483 Z" id="Path" fill="#3F3D56" fill-rule="nonzero"></path>
                <path d="M151.999973,111.206714 C152.001311,111.667426 151.953629,112.126988 151.85772,112.577738 C151.839938,112.662544 151.820378,112.745583 151.800819,112.826855 C151.740361,112.826855 151.681682,112.826855 151.623003,112.826855 C151.182663,112.803296 150.744979,112.744209 150.314276,112.650177 C149.932667,112.76737 149.542749,112.855958 149.147803,112.915194 C148.844988,112.960488 148.539847,112.988801 148.233828,113 C148.130695,113 148.027561,113 147.924428,113 C147.558099,113.000037 147.192174,112.975837 146.829081,112.927562 C146.241938,112.849652 145.66527,112.707444 145.1096,112.503534 C144.805398,112.604161 144.495453,112.686756 144.1814,112.750883 C144.167175,112.694346 144.154727,112.637809 144.14228,112.574205 C144.046371,112.123454 143.998689,111.663892 144.000027,111.20318 C144.000027,108.328622 145.790635,106 148.000889,106 C150.211143,106 151.999973,108.332155 151.999973,111.206714 Z" id="Path" fill="#000000" fill-rule="nonzero" opacity="0.1"></path>
                <path d="M159.999993,101.767447 C160.001545,100.60456 159.727338,99.4576924 159.199628,98.4199291 L154.877652,99.7566625 L158.672039,97.5396017 C157.383442,95.6873921 155.318972,94.5169706 153.059678,94.357754 C152.882183,94.0899373 152.687399,93.8338553 152.476554,93.591122 L146.269635,95.5125747 L151.360942,92.5353788 C149.383038,91.0259145 146.778143,90.5972958 144.416681,91.3927453 C142.05522,92.1881949 140.248585,94.102821 139.600463,96.4968522 L144.91718,102.582806 L139.149645,98.4345471 C136.130008,100.564224 135.134163,104.571653 136.808725,107.854762 C138.483286,111.137871 142.323194,112.706451 145.83515,111.542005 C147.372162,112.103831 149.051848,112.150037 150.617745,111.673567 C152.828786,112.154873 155.140077,111.614438 156.903712,110.203759 C158.667348,108.793079 159.693511,106.663983 159.694548,104.413302 C159.694548,104.25088 159.694548,104.088458 159.678214,103.926036 C159.891997,103.226236 160.000432,102.498823 159.999993,101.767447 Z" id="Path" fill="#2082DC" fill-rule="nonzero"></path>
                <path d="M160,103.777071 C157.706259,103.329015 155.35413,103.298098 153.050047,103.685721 C150.441763,104.13063 147.776027,105.108413 145.225194,104.394529 C143.72818,103.974996 142.434708,103.00398 140.972164,102.464338 C139.561056,101.956974 138.040983,101.863273 136.581252,102.193671 C135.445198,104.994605 136.002618,108.221367 138.006855,110.446127 C140.011092,112.670887 143.092163,113.482953 145.886704,112.522987 C147.431302,113.108143 149.11928,113.156267 150.692907,112.660012 C152.916063,113.16426 155.241176,112.602768 157.015538,111.133157 C158.789899,109.663546 159.822226,107.444247 159.822722,105.098263 C159.822722,104.929096 159.822722,104.759929 159.806307,104.590763 C159.885256,104.323385 159.949917,104.051747 160,103.777071 Z" id="Path" fill="#000000" fill-rule="nonzero" opacity="0.1"></path>
                <rect id="Rectangle" fill="#3A3768" fill-rule="nonzero" x="113" y="41" width="2" height="12" rx="1"></rect>
                <rect id="Rectangle" fill="#3A3768" fill-rule="nonzero" x="67" y="30" width="1" height="5" rx="0.5"></rect>
                <rect id="Rectangle" fill="#3A3768" fill-rule="nonzero" x="67" y="38" width="1" height="8" rx="0.5"></rect>
                <rect id="Rectangle" fill="#3A3768" fill-rule="nonzero" x="67" y="46" width="1" height="8" rx="0.5"></rect>
                <rect id="Rectangle" fill="#3F3D56" fill-rule="nonzero" x="68" y="17" width="48" height="99" rx="6"></rect>
                <rect id="Rectangle" fill="#E6E8EC" fill-rule="nonzero" x="87" y="20" width="7" height="2" rx="1"></rect>
                <circle id="Oval" fill="#E6E8EC" fill-rule="nonzero" cx="94" cy="21" r="1"></circle>
                <path d="M109.103099,21 L103.491165,21 L103.491165,21.6589727 C103.491165,23.3834637 102.054787,24.7814399 100.282926,24.7814399 L82.3743987,24.7814399 C80.6025374,24.7814399 79.16616,23.3834637 79.16616,21.6589727 L79.16616,21 L73.8952457,21 C72.8618756,20.9999999 71.8708537,21.3996401 71.1403059,22.1109591 C70.409758,22.8222781 69.9995612,23.786975 70.0000004,24.7927182 L70.0000004,109.207282 C69.9995612,110.213025 70.409758,111.177722 71.1403059,111.889041 C71.8708537,112.60036 72.8618756,113 73.8952457,113 L109.103099,113 C111.255298,113 113,111.301942 113,109.207282 L113,24.7927182 C113,22.6980578 111.255298,21 109.103099,21 Z" id="Path" fill="#2082DC" fill-rule="nonzero"></path>
                <rect id="Rectangle" stroke="#2082DC" fill="#000000" fill-rule="nonzero" opacity="0.1" x="71" y="36" width="24" height="5"></rect>
                <circle id="Oval" stroke="#2082DC" fill="#000000" fill-rule="nonzero" opacity="0.1" cx="77.5" cy="56.5" r="5.5"></circle>
                <polygon id="Path" fill="#FFFFFF" fill-rule="nonzero" points="76 55.2248557 76 57.7772713 77.3333333 57.7772713 79 60 79 53 77.3333333 55.2248557"></polygon>
                <circle id="Oval" stroke="#2082DC" fill="#000000" fill-rule="nonzero" opacity="0.1" cx="92.5" cy="56.5" r="5.5"></circle>
                <path d="M92.0009969,59.5447564 C91.6925564,59.5432138 91.413588,59.7195103 91.2944323,59.991276 C91.1752765,60.2630417 91.2394571,60.576625 91.4569872,60.7855124 C91.6745173,60.9943997 92.0024526,61.0573528 92.2875738,60.9449586 C92.572695,60.8325643 92.758714,60.5670113 92.7587182,60.2723724 C92.758724,59.8720042 92.4201191,59.5468526 92.0009969,59.5447564 Z M89.767713,53.0000226 C89.4590975,52.9977073 89.1795199,53.1735098 89.0597347,53.4452097 C88.9399494,53.7169096 89.0036332,54.0308028 89.221002,54.240086 C89.4383708,54.4493692 89.7664596,54.5126754 90.051826,54.4003974 C90.3371923,54.2881193 90.5234308,54.0224497 90.5234403,53.7276385 C90.5234532,53.3280084 90.1860554,53.0031611 89.767713,53.0000226 L89.767713,53.0000226 Z M89.767713,55.1828704 C89.4589162,55.1805547 89.1792118,55.3565634 89.0595432,55.6284981 C88.9398745,55.9004328 89.0039245,56.2144767 89.2217081,56.4236103 C89.4394918,56.632744 89.7679089,56.6955791 90.0532113,56.5826995 C90.3385138,56.46982 90.5242392,56.203565 90.5234403,55.9085815 C90.523446,55.5092653 90.1857339,55.1849665 89.767713,55.1828704 L89.767713,55.1828704 Z M89.767713,57.3638134 C89.4590975,57.3614981 89.1795199,57.5373006 89.0597347,57.8090005 C88.9399494,58.0807004 89.0036332,58.3945936 89.221002,58.6038768 C89.4383708,58.81316 89.7664596,58.8764662 90.051826,58.7641882 C90.3371923,58.6519101 90.5234308,58.3862405 90.5234403,58.0914293 C90.5234532,57.6917992 90.1860554,57.3669519 89.767713,57.3638134 Z M94.2342808,54.4552544 C94.5427213,54.4567971 94.8216898,54.2805005 94.9408455,54.0087349 C95.0600012,53.7369692 94.9958206,53.4233858 94.7782905,53.2144985 C94.5607604,53.0056112 94.2328251,52.942658 93.9477039,53.0550523 C93.6625827,53.1674466 93.4765637,53.4329996 93.4765595,53.7276385 C93.47603,53.9201093 93.5555638,54.1048978 93.6976642,54.2413524 C93.8397647,54.377807 94.0327916,54.4547499 94.2342808,54.4552544 L94.2342808,54.4552544 Z M92.0009969,57.3638134 C91.6925564,57.3622708 91.413588,57.5385673 91.2944323,57.810333 C91.1752765,58.0820987 91.2394571,58.395682 91.4569872,58.6045693 C91.6745173,58.8134567 92.0024526,58.8764098 92.2875738,58.7640156 C92.572695,58.6516213 92.758714,58.3860683 92.7587182,58.0914293 C92.758724,57.6910612 92.4201191,57.3659096 92.0009969,57.3638134 L92.0009969,57.3638134 Z M94.2342808,57.3638134 C93.9258404,57.3622708 93.6468719,57.5385673 93.5277162,57.810333 C93.4085605,58.0820987 93.472741,58.395682 93.6902712,58.6045693 C93.9078013,58.8134567 94.2357366,58.8764098 94.5208578,58.7640156 C94.8059789,58.6516213 94.9919979,58.3860683 94.9920022,58.0914293 C94.9920079,57.6910612 94.653403,57.3659096 94.2342808,57.3638134 Z M94.2342808,55.1828704 C93.9256591,55.1813279 93.6465643,55.3578308 93.5275256,55.629831 C93.4084869,55.9018311 93.4730337,56.2155646 93.6909783,56.424302 C93.9089228,56.6330394 94.2371859,56.6955214 94.5222428,56.5825261 C94.8072998,56.4695307 94.9928059,56.2033927 94.9920022,55.9085815 C94.9920036,55.508525 94.6530811,55.1839204 94.2342808,55.1828704 L94.2342808,55.1828704 Z M92.0009969,55.1828704 C91.6923752,55.1813279 91.4132803,55.3578308 91.2942417,55.629831 C91.175203,55.9018311 91.2397498,56.2155646 91.4576943,56.424302 C91.6756389,56.6330394 92.0039019,56.6955214 92.2889589,56.5825261 C92.5740158,56.4695307 92.7595219,56.2033927 92.7587182,55.9085815 C92.7587197,55.508525 92.4197972,55.1839204 92.0009969,55.1828704 L92.0009969,55.1828704 Z M92.0009969,53.0000226 C91.6925564,52.99848 91.413588,53.1747765 91.2944323,53.4465422 C91.1752765,53.7183079 91.2394571,54.0318912 91.4569872,54.2407785 C91.6745173,54.4496659 92.0024526,54.512619 92.2875738,54.4002247 C92.572695,54.2878305 92.758714,54.0222775 92.7587182,53.7276385 C92.758724,53.3272704 92.4201191,53.0021188 92.0009969,53.0000226 L92.0009969,53.0000226 Z" id="Shape" fill="#FFFFFF" fill-rule="nonzero"></path>
                <g id="Group" opacity="0.4" transform="translate(72.000000, 68.000000)" fill-rule="nonzero">
                    <circle id="Oval" stroke="#2082DC" fill="#000000" opacity="0.1" cx="5.50507692" cy="5.49492308" r="5.41538462"></circle>
                    <polygon id="Path" fill="#FFFFFF" points="8.04353846 5.83338462 5.84353846 5.83338462 5.84353846 8.03338462 5.16661538 8.03338462 5.16661538 5.83338462 2.96661538 5.83338462 2.96661538 5.15646154 5.16661538 5.15646154 5.16661538 2.95646154 5.84353846 2.95646154 5.84353846 5.15646154 8.04353846 5.15646154"></polygon>
                </g>
                <circle id="Oval" stroke="#2082DC" fill="#000000" fill-rule="nonzero" opacity="0.1" cx="105.5" cy="56.5" r="5.5"></circle>
                <path d="M104.5,53 C103.559423,53.0113469 102.662263,53.367111 102.005927,53.9890118 C101.349591,54.6109126 100.987854,55.4479953 101.000311,56.3160728 L101.000311,58.8946424 C100.996159,59.1840016 101.116738,59.4630291 101.335517,59.6703294 C101.554295,59.8776297 101.853349,59.9962177 102.166874,60 L103.333437,60 L103.333437,57.0374263 L101.77802,57.0374263 L101.77802,56.3196616 C101.77802,54.9322249 102.996692,53.8074853 104.5,53.8074853 C106.003308,53.8074853 107.22198,54.9322249 107.22198,56.3196616 L107.22198,57.0374263 L105.666563,57.0374263 L105.666563,59.9982056 L106.833126,59.9982056 C107.146816,59.9948988 107.446173,59.8764604 107.665062,59.6690552 C107.883952,59.46165 108.00436,59.1823469 107.999689,58.892848 L107.999689,56.3160728 C108.012146,55.4479953 107.650409,54.6109126 106.994073,53.9890118 C106.337737,53.367111 105.440577,53.0113469 104.5,53 L104.5,53 Z" id="Path" fill="#FFFFFF" fill-rule="nonzero"></path>
                <g id="Group" opacity="0.4" transform="translate(87.000000, 68.000000)" fill-rule="nonzero">
                    <circle id="Oval" stroke="#2082DC" fill="#000000" opacity="0.1" cx="5.50507692" cy="5.49492308" r="5.41538462"></circle>
                    <path d="M7.53584615,4.91446154 L7.53584615,3.56061538 C7.53450838,3.45693334 7.49203337,3.3580303 7.41776704,3.28566824 C7.34350071,3.21330618 7.24352797,3.17341397 7.13984615,3.17476923 L2.34384615,3.17476923 C2.12859554,3.17288747 1.95232581,3.34537459 1.94953846,3.56061538 L1.94953846,7.42076923 C1.95324115,7.6356169 2.12896872,7.80757349 2.34384615,7.80661538 L7.13815385,7.80661538 C7.35368887,7.80850541 7.53044587,7.63628065 7.53415385,7.42076923 L7.53415385,6.06692308 L9.05723077,7.61030769 L9.05723077,3.37107692 L7.53584615,4.91446154 Z" id="Path" fill="#FFFFFF"></path>
                </g>
                <circle id="Oval" stroke="#2082DC" fill="#000000" fill-rule="nonzero" opacity="0.1" cx="105.5" cy="73.5" r="5.5"></circle>
                <path d="M104.524501,75.0975613 C103.889069,75.4851372 103.110931,75.4851372 102.475499,75.0975613 C101.673321,75.3609759 101.181488,76.2331709 101,77 L106,77 C105.818512,76.2331709 105.328494,75.3609759 104.524501,75.0975613 Z M103.500907,71.000001 C102.771665,70.9992118 102.113854,71.4709939 101.834446,72.1951875 C101.555037,72.9193812 101.709109,73.7532335 102.224761,74.3076229 C102.740414,74.8620124 103.516003,75.0276578 104.189595,74.7272599 C104.863187,74.426862 105.302004,73.7196351 105.30127,72.9356104 C105.30127,71.8666029 104.49522,71.000001 103.500907,71.000001 Z M103.500907,74.4107321 C102.947194,74.3996825 102.452396,74.0363497 102.241379,73.4858542 L104.758621,73.4858542 C104.548425,74.0364739 104.054395,74.4005324 103.500907,74.4126834 L103.500907,74.4107321 Z" id="Shape" fill="#FFFFFF" fill-rule="nonzero"></path>
                <path d="M106.333333,76 L109,76 C108.830879,75.1552533 108.272947,74.471302 107.531165,74.1994009 C107.219851,74.3946851 106.868181,74.4973839 106.510388,74.4975001 C106.27032,74.4999123 106.031765,74.4552068 105.805781,74.3654561 C105.679937,74.6102453 105.520214,74.8316732 105.33243,75.0216745 C105.74584,75.2314269 106.094055,75.5717879 106.333333,76 Z M106.062331,72.5488517 L107.764228,72.5488517 C107.553052,73.1117295 107.060728,73.4825179 106.510388,73.4931659 C106.363825,73.4919568 106.218482,73.4635541 106.080397,73.4091379 C106.05811,73.5695796 106.021185,73.7271044 105.97019,73.8792944 C106.644514,74.1175807 107.382329,73.8945339 107.853775,73.3098726 C108.325221,72.7252113 108.442161,71.8882388 108.152314,71.1731445 C107.862466,70.4580502 107.22002,69.9985221 106.512195,70.0000036 C105.899344,70.0009458 105.329238,70.3479063 105,70.9203098 C105.547992,71.2701129 105.934641,71.8628417 106.062331,72.5488517 L106.062331,72.5488517 Z" id="Shape" fill="#FFFFFF" fill-rule="nonzero"></path>
                <circle id="Oval" fill="#FF6F61" fill-rule="nonzero" cx="91.5" cy="93.5" r="5.5"></circle>
                <path d="M88.4993746,94.7594988 C88.8193459,94.4957559 89.183668,94.2762773 89.5797001,94.1086784 C89.7050159,94.0600562 89.7848984,93.9507835 89.7826038,93.8311227 L89.8136792,92.8389406 C90.9315615,92.5489838 92.1261718,92.5769169 93.2246559,92.918698 L93.1935806,93.9108801 C93.1917707,94.0281223 93.2613465,94.1374084 93.3763767,94.1980067 C93.7734801,94.3784047 94.1330942,94.6156514 94.4402505,94.8998718 C94.5068633,94.9615007 94.5988308,94.9974786 94.6958743,94.9998725 C94.7929179,95.0022663 94.8870676,94.9708796 94.9575637,94.912633 L95.8861683,94.1437717 C96.0320418,94.0228782 96.0385769,93.8218555 95.900792,93.6939399 C94.7671503,92.6494999 93.2044377,92.0408749 91.5565079,92.0019845 C89.908578,91.9630942 88.3104534,92.497125 87.1137796,93.4865707 C87.0434065,93.5449154 87.0025122,93.6252874 87.0001119,93.7099687 C86.9977116,93.7946501 87.0340023,93.8766881 87.1009838,93.9379976 L87.9802335,94.7483328 C88.0470937,94.809743 88.139196,94.8454288 88.2362367,94.8475234 C88.3332775,94.849618 88.427289,94.8179494 88.4975467,94.7594988 L88.4993746,94.7594988 Z" id="Path" fill="#FFFFFF" fill-rule="nonzero"></path>
                <circle id="Oval" stroke="#2082DC" fill="#000000" fill-rule="nonzero" opacity="0.1" cx="106.5" cy="39.5" r="4.5"></circle>
                <path d="M107.525036,40.0962292 C106.889178,40.4836384 106.110822,40.4836384 105.474964,40.0962292 C104.673077,40.3595581 104.181422,41.2314696 104,42 L109,42 C108.818578,41.2314696 108.326923,40.3595581 107.525036,40.0962292 L107.525036,40.0962292 Z M106.5,36.000001 C105.771187,35.9992119 105.113729,36.4706293 104.834316,37.1943479 C104.554903,37.9180665 104.708585,38.7514946 105.223674,39.3058575 C105.738764,39.8602203 106.513773,40.0262937 107.187179,39.7266083 C107.860586,39.4269229 108.299709,38.7205245 108.29971,37.9369317 C108.298712,36.8684003 107.493831,36.0021504 106.5,36.000001 Z M106.5,39.4115739 C105.946788,39.3995178 105.452635,39.036645 105.240929,38.4869967 L107.759071,38.4869967 C107.54716,39.0367448 107.053349,39.4001312 106.5,39.4135245 L106.5,39.4115739 Z" id="Shape" fill="#FFFFFF" fill-rule="nonzero"></path>
                <path d="M66,10.9286291 C65.5610399,10.674118 64.9675961,10.9173175 64.6661643,11.3264207 C64.3647325,11.7355238 64.2893745,12.2690547 64.2045968,12.7648802 C64.0369254,13.8790735 63.9144687,15.1591705 64.6661643,16 C63.4378297,12.2728252 59.9054258,9.41664422 56,9" id="Path" stroke="#2082DC" stroke-width="3" opacity="0.1"></path>
                <path d="M132,63.1076665 C131.692082,62.9618768 131.277419,63.1076665 131.065982,63.3355677 C130.878586,63.5840105 130.767329,63.8656736 130.741642,64.156682 C130.624633,64.7951403 130.536364,65.5257646 131.065982,66 C130.146187,63.8301233 127.792081,62.2777905 125,62" id="Path" stroke="#2082DC" stroke-width="3" opacity="0.1"></path>
                <path d="M50,43.1059908 C49.6920821,42.9618768 49.2774194,43.1059908 49.0659824,43.3338919 C48.8782731,43.5828295 48.7670042,43.8650978 48.7416422,44.156682 C48.6246334,44.7934646 48.5363636,45.5240888 49.0659824,46 C48.1453534,43.830601 45.7916838,42.2785559 43,42" id="Path" stroke="#2082DC" stroke-width="3" opacity="0.1"></path>
                <path d="M112.091451,117.699821 C112.253762,118.005452 112.558905,118.193036 112.852687,118.359597 C114.893828,119.525547 117.044365,120.490141 119.273686,121.239648 C119.386187,121.304524 119.522165,121.315014 119.643349,121.268166 C119.764533,121.221318 119.857821,121.122198 119.896958,120.998701 C120.153409,120.568553 120.434206,119.866732 120.367658,119.299131 C120.578668,119.171735 120.731731,118.967632 120.794535,118.729912 C120.882426,118.44108 121.016128,118.168115 121.190572,117.921363 C121.494092,117.465342 121.860914,117.007703 121.909607,116.453038 C121.905421,116.255294 121.924487,116.057741 121.966416,115.864415 C122.05244,115.608913 122.281298,115.440735 122.453347,115.236981 C122.721159,114.913561 122.849384,114.49635 122.971117,114.090458 C123.477526,112.403825 123.983934,110.717192 124.405941,109.004685 C124.542282,108.450021 124.668884,107.893739 124.855541,107.355245 C125.017851,106.883053 125.225608,106.430265 125.431743,105.977478 C126.169021,104.33636 127.026721,102.751623 127.99787,101.236147 C128.149722,101.745192 128.333494,102.244239 128.548102,102.730345 C128.658473,102.980996 128.77696,103.228412 128.888954,103.479062 C129.312584,104.423447 129.236298,105.63627 129.757315,106.524057 C129.973729,106.888443 130.186896,107.25229 130.396818,107.615598 C130.515983,107.793697 130.608394,107.988186 130.671122,108.192902 C130.705207,108.335207 130.708454,108.48398 130.7328,108.627902 C130.843171,109.274741 131.37068,109.730762 131.662839,110.308066 C131.930651,110.83524 131.98746,111.440035 132.14977,112.020573 C132.534446,113.362764 133.479092,114.528692 133.574855,115.927482 C133.586934,116.305022 133.577722,116.682939 133.547262,117.05945 C133.523033,117.718749 133.56709,118.378779 133.678734,119.029075 C133.687597,119.09467 133.70506,119.158824 133.730673,119.219893 C132.899094,120.452813 131.618348,121.314698 130.159845,121.622901 C129.883917,121.677882 129.567412,121.736097 129.422955,121.988365 C129.249283,122.289145 129.445679,122.703122 129.747576,122.864832 C130.049473,123.026542 130.396818,123.010371 130.721438,122.981263 C133.050105,122.787126 135.353727,122.363532 137.59853,121.716692 C137.711931,121.693373 137.815855,121.637102 137.897181,121.554982 C137.97716,121.436749 138.01226,121.294002 137.99619,121.152325 C137.995005,120.629799 137.872807,120.114592 137.639108,119.646807 L137.801418,119.590208 C137.892312,118.943369 137.557952,118.317552 137.298256,117.717609 C136.847033,116.671347 136.600321,115.540995 136.243238,114.452688 C135.555042,112.350461 134.443216,110.388921 134.175404,108.189668 C134.102364,107.584873 133.920576,106.970376 133.881622,106.362347 C133.803713,105.12365 133.719312,103.878485 133.448253,102.67213 C133.221019,101.679232 132.862313,100.731612 132.636701,99.7273945 C132.41109,98.7231767 132.33805,97.6672117 132.669163,96.7066555 C132.763303,96.4317489 132.889905,96.1713961 132.97593,95.8981066 C133.300551,94.8292048 132.990538,93.6713627 132.675656,92.5976097 C132.576105,92.2580191 132.477637,91.9195066 132.380251,91.5820722 C132.248779,91.1373702 132.118931,90.6910512 131.976098,90.2495835 C131.995575,90.2317954 132.013429,90.2140073 132.032906,90.192985 C132.318573,89.8695654 132.315327,89.3747335 132.519838,88.9882471 C132.62047,88.789344 132.773042,88.6260171 132.880167,88.4319654 C133.082585,88.0124204 133.13471,87.53647 133.027869,87.0833057 C132.941845,86.6305183 132.769796,86.2003702 132.639947,85.7589025 C132.287367,84.5473384 132.2605,83.264742 132.562038,82.0395772 C132.69351,81.5172546 132.886659,81.0046345 132.914252,80.4661409 C132.923585,80.1061298 132.890354,79.7462754 132.815243,79.394005 C132.563661,78.0356427 132.070238,76.6578753 131.068783,75.7603859 C130.534782,75.2752565 129.8125,74.8499598 129.755692,74.1125631 C129.669484,74.079459 129.574638,74.0760436 129.486256,74.1028605 C129.440515,73.9350653 129.410093,73.7634937 129.395363,73.5902405 L129.403478,73.5902405 C129.453095,73.5958357 129.503187,73.5958357 129.552804,73.5902405 C129.594803,73.5875267 129.635744,73.5759513 129.672913,73.5562814 C129.693897,73.5438444 129.713486,73.5292073 129.731345,73.5126198 C129.79446,73.448141 129.849009,73.3758593 129.893655,73.2975458 C129.960203,73.1875831 130.020258,73.069535 130.070574,72.9886801 C130.12089,72.9078252 130.202045,72.7784573 130.265346,72.6652605 C130.454708,72.3418409 130.630545,72.013031 130.792855,71.6788307 L130.792855,71.6658939 C130.809086,71.6351691 130.823694,71.6028271 130.838302,71.5721023 L130.857779,71.5284406 L130.886995,71.4621396 C130.886995,71.4459686 130.901603,71.4281805 130.908095,71.4120096 C130.914588,71.3958386 130.92595,71.3715821 130.934065,71.3505598 L130.956789,71.2971956 C130.964904,71.2777904 130.971397,71.2583853 130.979512,71.237363 C130.98752,71.2194221 130.994564,71.201069 131.000612,71.1823817 C131.008728,71.1629765 131.01522,71.1435713 131.021713,71.1241661 C131.028205,71.104761 131.034698,71.0869729 131.042813,71.0675677 C131.050929,71.0481625 131.054175,71.0287574 131.060667,71.0093522 L131.080144,70.9511367 C131.080144,70.9317315 131.089883,70.9139434 131.096376,70.8945382 L131.112607,70.8347056 L131.127214,70.7781072 L131.141822,70.7166575 C131.141822,70.6988694 131.141822,70.6810813 131.153184,70.6616761 C131.164546,70.642271 131.153184,70.6196316 131.164546,70.5986093 C131.175908,70.577587 131.164546,70.5630332 131.164546,70.5452451 L131.174284,70.4821783 L131.174284,70.428814 C131.174284,70.4061747 131.174284,70.3851524 131.174284,70.3641301 C131.174284,70.3431078 131.174284,70.328554 131.174284,70.3107659 C131.174284,70.2929778 131.174284,70.2671042 131.174284,70.246082 L131.174284,70.2088887 C131.174284,70.1862493 131.174284,70.1652271 131.174284,70.1425877 C131.174284,70.1199483 131.174284,70.1102457 131.174284,70.0940747 C131.174284,70.0779038 131.174284,70.048796 131.174284,70.0261566 C131.174284,70.0035173 131.174284,69.9954318 131.174284,69.9808779 C131.166544,69.9175115 131.154066,69.8548095 131.136953,69.7932945 C131.027601,69.4166598 130.80566,69.0821606 130.500696,68.8343555 C130.20574,68.5944035 129.877785,68.3978135 129.526834,68.2505831 C129.441425,68.2178361 129.363166,68.1689678 129.296353,68.1066614 C129.218314,67.993653 129.153509,67.8721192 129.103204,67.7444314 C128.960371,67.4953984 128.674704,67.3838186 128.406892,67.3175176 C128.13908,67.2512166 127.851791,67.209172 127.627802,67.0393767 C127.607785,67.022208 127.584641,67.0090323 127.559632,67.0005664 C127.525278,66.9978162 127.490866,67.0051228 127.460623,67.0215887 L126.835728,67.2981124 C126.823023,67.2200595 126.779494,67.1503183 126.71485,67.1044446 C126.650205,67.0585708 126.569822,67.0403804 126.49163,67.0539306 C126.337565,67.0911118 126.197354,67.1713365 126.087477,67.2851756 C126.048684,67.2461054 126.03437,67.1890643 126.050145,67.1364026 L125.563214,67.4598222 C125.503159,67.4986326 125.392788,67.5083351 125.400904,67.4339486 C125.130068,67.728702 124.895245,68.0543924 124.701346,68.4042074 C124.640685,68.5110885 124.589629,68.6231045 124.548774,68.7389467 L124.548774,68.7389467 C124.548774,68.7632031 124.534166,68.7874596 124.527674,68.8117161 C124.526914,68.8165378 124.526914,68.8214482 124.527674,68.82627 C124.527674,68.8472922 124.517935,68.8699316 124.514689,68.892571 C124.513907,68.8990159 124.513907,68.9055312 124.514689,68.9119762 C124.514689,68.9394668 124.514689,68.9685746 124.514689,68.9960652 L124.514689,68.9960652 C124.51303,69.0273073 124.51303,69.0586149 124.514689,69.0898569 C124.524997,69.2727391 124.631873,69.4364597 124.795486,69.520005 C124.857719,69.5430293 124.923931,69.5534741 124.990258,69.5507298 C125.1298,69.5342352 125.267706,69.5061069 125.402527,69.4666407 C125.446297,69.4559626 125.490774,69.4483971 125.535621,69.4440014 C125.556691,69.4423977 125.577853,69.4423977 125.598922,69.4440014 C125.683788,69.4420283 125.766605,69.470105 125.832649,69.5232392 L125.842388,69.5329418 C125.123005,70.0486349 124.699435,70.8799803 124.706215,71.7629198 C124.705517,72.1910685 124.803237,72.6136909 124.991882,72.9983826 C124.859494,73.0713513 124.780669,73.213339 124.788994,73.3638468 C124.746577,73.2398564 124.724117,73.109961 124.722446,72.9789775 C124.456257,72.9256132 124.263108,73.236096 124.167345,73.5029172 C123.970417,74.1060669 123.817981,74.7227445 123.711252,75.348026 C123.628474,75.7636201 123.548942,76.1792143 123.464541,76.5948085 C123.380139,77.0104026 123.30223,77.4567217 123.240552,77.8884868 C123.09721,79.0094771 123.148269,80.1466717 123.391501,81.2504334 C123.37527,81.2860096 123.360662,81.3232028 123.346054,81.358779 C123.297361,81.4881468 123.159397,81.5981095 123.143166,81.7355628 C123.055518,82.5586657 123.578158,83.3009136 124.071582,83.9461357 C124.111977,84.0121554 124.167627,84.0675991 124.233892,84.1078455 C124.306199,84.1377395 124.385224,84.1477904 124.46275,84.1369533 C124.659462,84.1274066 124.855566,84.1079768 125.050313,84.0787377 C125.061675,84.1887004 125.07466,84.2970459 125.087645,84.4021573 C125.227232,85.5632336 125.465828,86.72431 125.464205,87.8934718 C125.462582,89.0626336 125.240216,90.2479664 125.689816,91.2893774 C125.764479,91.4672582 125.908935,91.612797 125.923543,91.7971462 L125.951136,91.7971462 C125.676265,92.355229 125.451403,92.9364079 125.279171,93.5339094 C125.100629,94.2357299 125.063298,94.9731265 124.863656,95.6684787 C124.69323,96.2587194 124.409187,96.8004472 124.18033,97.3761341 C123.807646,98.3113065 123.588431,99.3001337 123.531088,100.304698 C123.524946,100.765958 123.431326,101.221901 123.25516,101.648507 C122.992657,102.160206 122.762802,102.687888 122.566964,103.228412 C122.242343,104.188968 121.695357,105.099394 121.593102,106.116548 C121.536293,106.692235 121.619071,107.306733 121.377229,107.827438 C121.283089,108.031192 121.143502,108.207456 121.033131,108.399891 C120.871958,108.708248 120.746185,109.033722 120.658194,109.370149 L119.051321,114.679082 C118.990509,114.970864 118.855226,115.2421 118.65853,115.466609 C118.509204,115.608913 118.312809,115.686534 118.171599,115.83369 C117.944364,116.063318 117.887555,116.399674 117.885932,116.742499 C117.713738,116.773544 117.546627,116.827953 117.389263,116.904209 C116.016108,117.488749 114.462815,117.488749 113.08966,116.904209 C112.829964,116.792629 112.534559,116.660027 112.278108,116.787778 C111.977834,116.943019 111.929141,117.394189 112.091451,117.699821 Z M124.892872,77.4858294 C124.98915,77.0463027 125.169937,76.6295065 125.42525,76.2584521 C125.788826,75.661743 126.171878,75.0715022 126.519222,74.4618563 L126.618232,74.3664475 C126.645824,74.4440682 126.671794,74.5281573 126.696141,74.6009267 C126.756352,74.8082258 126.804584,75.0187941 126.840597,75.2315949 C126.891888,75.4978837 126.907173,75.7698145 126.886044,76.0401439 L126.86332,76.0579319 C126.732046,76.1420183 126.626047,76.2599181 126.556554,76.3991396 C126.511067,76.5378361 126.511067,76.6873569 126.556554,76.8260535 L126.541946,76.8422244 L126.558177,76.8309048 C126.614985,77.0540643 126.720487,77.2836922 126.686402,77.5100859 C126.649071,77.7833754 126.428329,77.9822785 126.290365,78.2167577 C125.965744,78.7811249 126.069623,79.6381868 125.535621,79.9842457 L125.525883,80.0068851 L125.525883,80.0068851 C125.293627,79.9522694 125.099957,79.7933672 125.00162,79.5767371 L125.00162,79.5767371 C125.043821,78.8862362 124.784124,78.1779473 124.892872,77.4858294 Z" id="Shape" fill="url(#linearGradient-1)" fill-rule="nonzero"></path>
                <path d="M138.995391,119.931169 C139.014467,120.090191 138.973893,120.250683 138.881765,120.380619 C138.785726,120.473864 138.665647,120.537477 138.535477,120.564068 C135.931358,121.289103 133.265937,121.763269 130.574464,121.980293 C130.188498,122.009645 129.780888,122.031659 129.440011,121.850044 C129.099134,121.66843 128.871883,121.204304 129.079295,120.868593 C129.247028,120.586082 129.620369,120.52004 129.932389,120.459502 C131.621507,120.124411 133.118048,119.138539 134.109486,117.707769 C134.227965,117.502778 134.381949,117.321296 134.563989,117.172099 C134.910277,116.931781 135.37019,116.98865 135.779603,117.071202 C136.501036,117.22163 137.458739,117.399575 138.109832,117.759135 C138.760925,118.118695 138.984569,119.22856 138.995391,119.931169 Z" id="Path" fill="#3F3D56" fill-rule="nonzero"></path>
                <path d="M138.995391,119.931169 C139.014467,120.090191 138.973893,120.250683 138.881765,120.380619 C138.785726,120.473864 138.665647,120.537477 138.535477,120.564068 C135.931358,121.289103 133.265937,121.763269 130.574464,121.980293 C130.188498,122.009645 129.780888,122.031659 129.440011,121.850044 C129.099134,121.66843 128.871883,121.204304 129.079295,120.868593 C129.247028,120.586082 129.620369,120.52004 129.932389,120.459502 C131.621507,120.124411 133.118048,119.138539 134.109486,117.707769 C134.227965,117.502778 134.381949,117.321296 134.563989,117.172099 C134.910277,116.931781 135.37019,116.98865 135.779603,117.071202 C136.501036,117.22163 137.458739,117.399575 138.109832,117.759135 C138.760925,118.118695 138.984569,119.22856 138.995391,119.931169 Z" id="Path" fill="#000000" fill-rule="nonzero" opacity="0.1"></path>
                <path d="M120.42115,120.68158 C120.348719,120.822434 120.224959,120.932438 120.073669,120.990439 C119.940005,121.012204 119.80269,120.996629 119.677874,120.945547 C117.028044,120.128165 114.463607,119.071837 112.018416,117.79051 C111.669077,117.61094 111.304871,117.40264 111.109761,117.072232 C110.914651,116.741824 110.974114,116.233642 111.332744,116.066642 C111.633771,115.926578 111.986827,116.066642 112.295286,116.194137 C113.94046,116.835233 115.778717,116.835233 117.42389,116.194137 C117.639588,116.089561 117.8732,116.023842 118.113279,116.000201 C118.54252,115.991223 118.9123,116.283921 119.228192,116.57662 C119.770784,117.091984 120.497336,117.758187 120.861541,118.404638 C121.225746,119.051088 120.798363,120.097979 120.42115,120.68158 Z" id="Path" fill="#3F3D56" fill-rule="nonzero"></path>
                <path d="M120.42115,120.68158 C120.348719,120.822434 120.224959,120.932438 120.073669,120.990439 C119.940005,121.012204 119.80269,120.996629 119.677874,120.945547 C117.028044,120.128165 114.463607,119.071837 112.018416,117.79051 C111.669077,117.61094 111.304871,117.40264 111.109761,117.072232 C110.914651,116.741824 110.974114,116.233642 111.332744,116.066642 C111.633771,115.926578 111.986827,116.066642 112.295286,116.194137 C113.94046,116.835233 115.778717,116.835233 117.42389,116.194137 C117.639588,116.089561 117.8732,116.023842 118.113279,116.000201 C118.54252,115.991223 118.9123,116.283921 119.228192,116.57662 C119.770784,117.091984 120.497336,117.758187 120.861541,118.404638 C121.225746,119.051088 120.798363,120.097979 120.42115,120.68158 Z" id="Path" fill="#000000" fill-rule="nonzero" opacity="0.1"></path>
                <path d="M131.698796,90.0147223 C131.940484,90.6414306 132.143243,91.2681389 132.347624,91.8948472 L132.655817,92.8662451 C132.980231,93.89248 133.304645,94.9986201 132.968876,96.0217215 C132.879663,96.2865057 132.748275,96.5356223 132.644462,96.8051068 C132.300584,97.7232345 132.380065,98.7432023 132.610399,99.6942322 C132.840733,100.645262 133.213809,101.558689 133.450631,102.51442 C133.737737,103.667563 133.820463,104.864576 133.901566,106.041221 C133.942118,106.622493 134.130278,107.210032 134.208138,107.78817 C134.487134,109.88921 135.643669,111.772468 136.360624,113.774801 C136.732078,114.81357 136.988365,115.893075 137.460387,116.894242 C137.729651,117.46768 138.078396,118.061486 137.984316,118.683494 C136.665573,119.134724 135.204088,119.12689 133.961583,118.508016 C133.801393,118.452391 133.693112,118.307336 133.689075,118.142958 C133.575044,117.522687 133.531531,116.892236 133.55931,116.262833 C133.590379,115.904354 133.599586,115.544419 133.586885,115.184895 C133.487939,113.848439 132.503342,112.734465 132.104313,111.449713 C131.942106,110.90291 131.867491,110.318505 131.588495,109.814005 C131.283546,109.262501 130.735286,108.822239 130.615253,108.208065 C130.5893,108.070189 130.586056,107.929179 130.551993,107.79287 C130.485361,107.595723 130.388589,107.409306 130.264886,107.2398 L129.603082,106.191631 C129.059689,105.342441 129.13917,104.18303 128.699589,103.28057 C128.5828,103.040855 128.457901,102.810539 128.342734,102.566123 C128.120462,102.10213 127.929207,101.624853 127.770143,101.137228 C126.760067,102.578052 125.865329,104.091248 125.093728,105.663629 C124.870511,106.09266 124.670193,106.532455 124.493563,106.981283 C124.298914,107.495184 124.169149,108.027886 124.024784,108.557454 C123.586826,110.19473 123.051543,111.806937 122.530858,113.414444 C122.404337,113.803003 122.269705,114.197829 121.992331,114.511183 C121.813904,114.705463 121.577081,114.865274 121.486245,115.111257 C121.443092,115.295212 121.42348,115.483589 121.427851,115.672161 C121.375945,116.203296 120.994758,116.640425 120.678455,117.082254 C120.496883,117.319381 120.357628,117.584159 120.266449,117.86564 C120.190908,118.120793 120.004762,118.331893 119.755989,118.44453 C119.507216,118.557167 119.220154,118.560321 118.968793,118.453179 L118.955817,118.453179 C118.827156,118.391257 118.703526,118.320027 118.585985,118.240098 C118.27888,118.053848 117.98761,117.844284 117.714934,117.61339 C117.473668,117.3884 117.25631,117.140661 117.066106,116.873874 C116.999826,116.781722 116.982224,116.664844 117.018577,116.558272 C117.05493,116.4517 117.141012,116.367819 117.251022,116.331771 L117.251022,116.331771 C117.216958,115.896209 117.207226,115.399542 117.53164,115.098722 C117.682492,114.957713 117.886873,114.882508 118.042592,114.747766 C118.245283,114.536397 118.386329,114.276896 118.451353,113.995716 C119.00502,112.31196 119.557605,110.628203 120.109108,108.944447 C120.201281,108.620526 120.332485,108.30817 120.500027,108.013785 C120.615194,107.828906 120.759558,107.661262 120.858505,107.466982 C121.109925,106.968749 121.020712,106.382777 121.08235,105.831273 C121.187785,104.858309 121.752265,103.990318 122.094522,103.07219 C122.299262,102.553709 122.538754,102.048661 122.811476,101.560256 C122.994775,101.155289 123.09239,100.719009 123.098583,100.277071 C123.158672,99.313753 123.386809,98.3671616 123.773364,97.4772515 C124.010186,96.9320153 124.307025,96.4102806 124.48383,95.8446764 C124.693077,95.1803655 124.730385,94.4753187 124.918545,93.8078743 C125.099169,93.2325395 125.334281,92.6745002 125.620901,92.1408302 C125.856101,91.670799 126.097789,91.1898004 126.485464,90.8247428 C127.121315,90.2262363 128.05725,90.03039 128.944522,90.0037549 C129.831794,89.9771198 130.814768,90.1040282 131.698796,90.0147223 Z" id="Path" fill="#3F3D56" fill-rule="nonzero"></path>
                <path d="M127.475749,79 C128.663433,78.1863946 129.838184,77.346712 131,76.4809524 C130.721925,76.0463632 130.567974,75.5218826 130.559679,74.9808674 C130.559679,74.9593538 130.559679,74.9378402 130.559679,74.9163266 C130.542809,74.3902212 130.714888,73.9384355 130.142978,74.0068878 C129.59362,74.0890416 129.050491,74.2198088 128.518347,74.3980443 C128.366512,74.4430273 127.050612,75.0043368 127,74.9476191 C127.29332,75.3509749 127.510034,75.821456 127.636019,76.3284014 C127.700806,76.5756736 127.753192,76.8270862 127.792914,77.0813776 C127.907634,77.7541667 127.912695,78.5443027 127.475749,79 Z" id="Path" fill="#A0616A" fill-rule="nonzero"></path>
                <path d="M125.122487,85.3031031 C125.295215,86.350045 125.588853,87.3984655 125.586934,88.4513223 C125.585015,89.5041791 125.310569,90.5762593 125.865219,91.51969 C125.957341,91.679393 126.133908,91.8036064 126.1531,91.9780967 C126.920782,92.0801292 127.669271,91.8036064 128.400489,91.6039777 C129.070977,91.4229603 129.766598,91.3028633 130.47323,91.2461247 C131.048991,91.2017627 131.640106,91.1988053 132.212029,91.1145176 C132.781963,91.0458053 133.308484,90.8385613 133.714767,90.523025 C134.065981,90.2272787 134.062143,89.7836593 134.307801,89.4361574 C134.432549,89.2572309 134.620631,89.1108365 134.753056,88.9348675 C135.000578,88.5589781 135.064601,88.127084 134.933462,87.7178715 C134.800428,87.3136437 134.64093,86.914862 134.45558,86.5230565 C134.020256,85.4336611 133.987029,84.2724125 134.359619,83.1692937 C134.520833,82.6975783 134.754976,82.2347354 134.79336,81.7482328 C134.804825,81.4232649 134.764215,81.0984483 134.67245,80.7811424 C134.361539,79.5567528 133.753151,78.3131397 132.521021,77.5042736 C131.862734,77.0710053 130.972223,76.6820989 130.903132,76.0255422 C130.619089,75.9397758 130.313936,76.0861702 130.070197,76.2251709 L127.333411,77.7793176 C127.170996,77.8531635 127.038175,77.960106 126.94957,78.0883725 C126.77876,78.4033423 127.172197,78.7493655 127.108864,79.0894737 C127.062803,79.3364218 126.790276,79.5153483 126.621386,79.7282857 C126.218353,80.2354905 126.348859,81.0088671 125.690571,81.3208794 C125.631076,81.4155182 125.575419,81.5131145 125.52552,81.6166257 C125.290385,82.1334404 125.132628,82.6692558 125.055315,83.2136556 C124.963492,83.9095408 124.986061,84.6115741 125.122487,85.3031031 Z" id="Path" fill="#3F3D56" fill-rule="nonzero"></path>
                <path d="M126,74.8459263 C126.339628,75.1658364 126.590555,75.5389851 126.736429,75.9410544 C126.958302,75.9803967 127.184967,76.0001646 127.412304,75.999999 C128.549179,75.999999 129.311002,74.9653666 129.875533,74.2549294 C129.857952,73.8376639 130.293559,74.0455211 129.631359,74.0998121 C128.995272,74.16497 128.366397,74.2686843 127.750241,74.4100467 C127.574435,74.4457237 126.050788,74.8909103 126,74.8459263 Z" id="Path" fill="#000000" fill-rule="nonzero" opacity="0.1"></path>
                <circle id="Oval" fill="#A0616A" fill-rule="nonzero" cx="127.5" cy="73.5" r="3.5"></circle>
                <path d="M127.023465,71.5418293 L127.023465,71.5418293 C127.567302,71.5408191 128.008988,71.9808673 128.009998,72.5247044 C128.01,72.5259235 128.01,72.5271427 128.009998,72.5283618 L128.006529,74.396853 C128.005514,74.9433066 127.562779,75.3860422 127.016325,75.3870572 L127.016325,75.3870572 C126.472488,75.3880673 126.030802,74.9480192 126.029792,74.4041821 C126.02979,74.4029629 126.02979,74.4017438 126.029792,74.4005246 L126.033261,72.5320335 C126.034276,71.9855799 126.477011,71.5428443 127.023465,71.5418293 Z" id="Rectangle" fill="#3F3D56" fill-rule="nonzero" transform="translate(127.019895, 73.464443) rotate(-132.390000) translate(-127.019895, -73.464443) "></path>
                <path d="M127.023465,71.5418293 L127.023465,71.5418293 C127.567302,71.5408191 128.008988,71.9808673 128.009998,72.5247044 C128.01,72.5259235 128.01,72.5271427 128.009998,72.5283618 L128.006529,74.396853 C128.005514,74.9433066 127.562779,75.3860422 127.016325,75.3870572 L127.016325,75.3870572 C126.472488,75.3880673 126.030802,74.9480192 126.029792,74.4041821 C126.02979,74.4029629 126.02979,74.4017438 126.029792,74.4005246 L126.033261,72.5320335 C126.034276,71.9855799 126.477011,71.5428443 127.023465,71.5418293 Z" id="Rectangle" fill="#000000" fill-rule="nonzero" opacity="0.1" transform="translate(127.019895, 73.464443) rotate(-132.390000) translate(-127.019895, -73.464443) "></path>
                <circle id="Oval" fill="#FFFFFF" fill-rule="nonzero" cx="128.5" cy="73.5" r="1"></circle>
                <path d="M125.117968,85 C127.461374,84.6289809 129.58938,83.1169785 131.217879,81.241936 C131.52231,80.9334547 131.757825,80.5549828 131.906789,80.134863 C131.988647,79.7837007 132.016868,79.4205875 131.990349,79.0597056 L131.951354,77.6195133 C131.934642,76.9891799 131.910503,76.3349097 131.626397,75.7843653 C131.342292,75.2338209 130.709089,74.8368704 130.163161,75.0662639 C128.727779,75.6646817 127.793759,77.0330638 126.97301,78.4333616 C126.738273,78.8697608 126.482285,79.2925644 126.206111,79.7000127 C126.066843,79.8895116 125.87744,80.0830001 125.649041,80.0570686 C125.600824,80.0524978 125.553707,80.0390006 125.509774,80.0171741 C125.282273,80.7143283 125.129637,81.4371133 125.054834,82.1714783 C124.964591,83.1133994 124.985805,84.0638075 125.117968,85 Z" id="Path" fill="#000000" fill-rule="nonzero" opacity="0.1"></path>
                <path d="M125.029338,78.7129832 C125.142721,78.2199776 125.353121,77.7549225 125.648075,77.3453683 C126.532761,75.9504012 127.527806,74.5882567 128,73 C127.310705,73.1258206 127.202155,74.3220277 126.503814,74.3749088 L126.558089,73.5123997 C126.558089,73.3665208 126.558089,73.1896426 126.440493,73.1130562 C126.322897,73.0364697 126.113033,73.1367615 126.035238,73.2808169 C125.957444,73.4248724 125.941161,73.5999271 125.868794,73.7476295 C125.796427,73.8953319 125.626365,74.0266229 125.476204,73.9609774 L125.414692,73.67469 C125.283878,73.6470907 125.147742,73.681749 125.045622,73.7686499 C124.943502,73.8555508 124.886778,73.9850107 124.891841,74.1196207 C124.842545,73.9821084 124.816256,73.8372976 124.814046,73.6911014 C124.504678,73.6327498 124.28034,73.9773888 124.169981,74.2746171 C123.940918,74.9437161 123.763098,75.629534 123.638084,76.3260394 L123.354044,77.7137126 C123.254539,78.1932896 123.156844,78.6728665 123.091714,79.1560904 C122.921301,80.4387591 122.988782,81.7421748 123.290723,83 C123.669873,82.7881451 124.037648,82.5562388 124.392509,82.3052516 C124.665694,82.0718454 124.971444,81.8074398 125.074567,81.45186 C125.329661,80.5547046 124.879177,79.615609 125.029338,78.7129832 Z" id="Path" fill="#A0616A" fill-rule="nonzero"></path>
                <path d="M130.205662,74.0656927 C130.739231,73.8382765 131.358098,74.2318054 131.635771,74.7776044 C131.913444,75.3234033 131.937038,75.9641239 131.953371,76.5969343 L131.989668,78.0286678 C132.016997,78.3863319 131.990018,78.7464586 131.909815,79.0945578 C131.763755,79.5103084 131.534341,79.8852752 131.238317,80.1920883 C129.477904,82.2467445 127.124031,83.8584335 124.546932,83.9948832 C124.456673,84.008018 124.364831,83.995764 124.280147,83.9592876 C124.206874,83.908943 124.144865,83.8413754 124.098661,83.7615344 C123.523351,82.9823866 122.915373,82.0865644 123.009746,81.0938431 C123.02608,80.9277304 123.191232,80.7932582 123.245678,80.6390106 C123.591378,79.7401285 124.225519,79.0090802 125.029684,78.5823769 L125.185762,78.5032756 C125.307495,78.7684056 125.531982,78.9600281 125.797369,79.0253441 C126.015153,79.0490745 126.202083,78.8592314 126.341827,78.6713658 C126.611758,78.2667542 126.86195,77.8469361 127.091364,77.4136552 C127.889902,76.0115846 128.804591,74.66093 130.205662,74.0656927 Z" id="Path" fill="#3F3D56" fill-rule="nonzero"></path>
                <path d="M130.552165,75.917339 C130.294309,75.7920947 130.253498,75.4702864 130.227527,75.1989237 C130.198565,74.8829475 130.147127,74.5691382 130.073555,74.2595915 C129.993787,73.9116906 129.862077,73.5533528 129.546714,73.3689653 C129.321634,73.2383986 129.040809,73.2254014 128.803112,73.3345497 C128.565415,73.4436981 128.404174,73.6596873 128.376161,73.9064721 C128.379824,73.9644632 128.361417,74.0217911 128.324219,74.068246 C128.299364,74.0901409 128.268555,74.1051878 128.235175,74.1117336 C127.933457,74.1765639 127.628738,74.0152256 127.532101,73.7394797 C127.478304,73.5655293 127.519115,73.3411332 127.387405,73.1984939 C127.255695,73.0558545 127.099868,73.0593336 126.971868,72.9654003 C126.814813,72.8197216 126.737572,72.6146121 126.762244,72.408759 C126.762244,72.1495728 126.799346,71.8399411 126.576737,71.6799067 C126.240968,71.4346366 125.736387,71.8242856 125.341256,71.6799067 C125.117385,71.5777856 124.982783,71.3577697 125.001777,71.1250049 C125.024563,70.8973054 125.107442,70.6785067 125.242937,70.4883463 C125.47525,70.1153572 125.754934,69.7701561 126.075866,69.4602993 C126.075866,69.5368375 126.203866,69.52814 126.274359,69.4863919 L126.860563,69.1524071 C126.840496,69.2091121 126.858795,69.2715692 126.90694,69.310702 C127.040122,69.1895839 127.206389,69.105309 127.387405,69.0671714 C127.576607,69.0341219 127.759102,69.1494959 127.797377,69.3263575 L128.539407,69.0254233 C128.601624,68.9852976 128.685691,68.9934016 128.737901,69.0445578 C129.005031,69.2185082 129.346366,69.2689539 129.665439,69.338534 C129.984512,69.4081142 130.323991,69.52814 130.494658,69.7925446 C130.555679,69.9281946 130.633509,70.0566412 130.726542,70.1752356 C130.808657,70.2429564 130.903703,70.2954868 131.006659,70.3300514 C131.424792,70.484249 131.818103,70.6920693 132.175357,70.9475754 C132.533839,71.2062885 132.798735,71.562177 132.934083,71.9669249 C133.134431,72.643592 132.845039,73.3585283 132.50927,73.9830103 C132.25313,74.4602284 131.965659,74.9220843 131.648515,75.3659162 C131.52979,75.5398666 131.366543,75.8686329 131.175471,75.9695241 C130.967843,76.0237379 130.746266,76.0051868 130.552165,75.917339 Z" id="Path" fill="#3F3D56" fill-rule="nonzero"></path>
                <path d="M125.340772,70.2469634 C125.735344,70.4102778 126.239209,69.9641505 126.574502,70.2469634 C126.791239,70.4301942 126.759747,70.7847062 126.759747,71.0814605 C126.73511,71.3171514 126.812242,71.5519909 126.969074,71.7187853 C127.096893,71.8263339 127.278432,71.8522252 127.384022,71.9856651 C127.489611,72.119105 127.474792,72.3979346 127.528513,72.6050651 C127.625013,72.9207795 127.9293,73.1055033 128.23059,73.0312761 C128.263923,73.0237815 128.294689,73.0065535 128.319508,72.9814851 C128.356654,72.9282966 128.375035,72.8626593 128.371376,72.7962626 C128.39935,72.5137071 128.560362,72.2664109 128.797723,72.1414418 C129.035083,72.0164727 129.31551,72.0313538 129.540271,72.1808458 C129.855187,72.3919596 129.98671,72.810204 130.066366,73.2005655 C130.139833,73.55498 130.191198,73.914275 130.220119,74.2760511 C130.246053,74.5867469 130.286807,74.9552003 130.544297,75.0985984 C130.741308,75.2021767 130.96706,75.2234675 131.177834,75.1583476 C131.363079,75.0428325 131.531652,74.6604376 131.650208,74.4672485 C131.967236,73.9558631 132.254304,73.4237272 132.509744,72.8739365 C132.722447,72.4488959 132.875984,71.9925962 132.965446,71.5196213 C133.098822,72.2525448 132.82466,73.0133513 132.509744,73.6885173 C132.253966,74.2349067 131.966903,74.7637072 131.650208,75.2718711 C131.531652,75.4710351 131.368636,75.847455 131.177834,75.9629701 C130.96706,76.0280901 130.741308,76.0067993 130.544297,75.9032209 C130.286807,75.7598229 130.246053,75.3913695 130.220119,75.0806736 C130.191198,74.7188976 130.139833,74.3596026 130.066366,74.005188 C129.98671,73.60686 129.855187,73.1965822 129.540271,72.9854684 C129.31551,72.8359764 129.035083,72.8210953 128.797723,72.9460644 C128.560362,73.0710335 128.39935,73.3183296 128.371376,73.6008851 C128.375035,73.6672818 128.356654,73.7329192 128.319508,73.7861076 C128.294689,73.8111761 128.263923,73.8284041 128.23059,73.8358986 C127.9293,73.9101259 127.625013,73.7254021 127.528513,73.4096877 C127.474792,73.2105237 127.515546,72.9536021 127.384022,72.7902876 C127.252498,72.6269732 127.096893,72.6309564 126.969074,72.5234079 C126.812242,72.3566135 126.73511,72.121774 126.759747,71.8860831 C126.759747,71.5893287 126.796796,71.2348168 126.574502,71.0515859 C126.239209,70.7707647 125.735344,71.216892 125.340772,71.0515859 C125.117219,70.9346626 124.982808,70.6827561 125.001775,70.4162528 C125.008349,70.2725233 125.039758,70.1313666 125.094397,70 C125.147616,70.1103712 125.234644,70.1976059 125.340772,70.2469634 Z" id="Path" fill="#000000" fill-rule="nonzero" opacity="0.1"></path>
            </g>
        </g>
    </g>
</svg>