<?xml version="1.0" encoding="UTF-8"?>
<svg width="159px" height="126px" viewBox="0 0 159 126" version="1.1" xmlns="http://www.w3.org/2000/svg" xmlns:xlink="http://www.w3.org/1999/xlink">
    <!-- Generator: Sketch 53.1 (72631) - https://sketchapp.com -->
    <title>undraw_online_world_mc1t</title>
    <desc>Created with Sketch.</desc>
    <defs>
        <linearGradient x1="49.9973333%" y1="100%" x2="49.9973333%" y2="0%" id="linearGradient-1">
            <stop stop-color="#808080" stop-opacity="0.25" offset="0%"></stop>
            <stop stop-color="#808080" stop-opacity="0.12" offset="54%"></stop>
            <stop stop-color="#808080" stop-opacity="0.1" offset="100%"></stop>
        </linearGradient>
        <linearGradient x1="49.9970375%" y1="100.006358%" x2="49.9970375%" y2="0.00476573736%" id="linearGradient-2">
            <stop stop-color="#808080" stop-opacity="0.25" offset="0%"></stop>
            <stop stop-color="#808080" stop-opacity="0.12" offset="54%"></stop>
            <stop stop-color="#808080" stop-opacity="0.1" offset="100%"></stop>
        </linearGradient>
    </defs>
    <g id="Page-1" stroke="none" stroke-width="1" fill="none" fill-rule="evenodd">
        <g id="Inital-Screen---I-live-Copy" transform="translate(-41.000000, -292.000000)">
            <g id="undraw_online_world_mc1t" transform="translate(41.000000, 292.000000)">
                <path d="M77.6398763,11.0833497 C71.9470778,10.3926248 66.6223943,8.27100214 61.2488325,6.4769716 C55.2720914,4.49154191 49.1751331,2.89766858 42.9958297,1.70525213 C36.4125291,0.431969475 29.6260779,-0.397827595 23.0259754,0.195546846 C16.4258729,0.788921288 9.98615241,2.92290593 5.7765059,6.82465193 C-1.3551485,13.4429403 -0.753334011,23.474677 1.6019907,32.3165742 C4.39722042,42.8072489 9.23006568,53.1773944 17.1407185,62.1120065 C22.7632544,68.4629673 29.8185364,73.9609524 36.811193,79.418761 C40.7642283,82.4984362 44.7539223,85.5997448 49.3713974,88.0211452 C53.666581,90.2710233 58.4093068,91.88426 63.1184288,93.4743181 C68.1467874,95.1740886 73.1873655,96.8831306 78.3791611,98.1826825 C94.9504437,102.330123 112.395427,102.200322 129.452438,101.831008 C135.455308,101.702753 141.730064,101.491054 146.76606,99.1191015 C150.690074,97.2648064 153.486831,94.2608483 155.605401,91.0575534 C158.377719,86.8606655 160.128174,81.8525234 158.159294,77.1719734 C155.257143,70.2678146 145.310402,66.2007272 141.998895,59.4016451 C137.755645,50.6771865 145.997754,41.4551587 143.665341,32.3737483 C142.695411,28.595622 139.959752,25.1806285 137.060656,21.9958766 C130.145899,14.402538 120.955245,7.4860172 108.602773,8.49660804 C98.1443373,9.3495838 88.605425,12.4153518 77.6398763,11.0833497 Z" id="Path" fill="#2082DC" fill-rule="nonzero" opacity="0.1"></path>
                <path d="M52.712,7 L100.288,7 C102.884441,6.99998632 104.991624,9.12690712 105,11.7561367 L105,117.243863 C104.991624,119.873093 102.884441,122.000014 100.288,122 L52.712,122 C50.1155587,122.000014 48.0083756,119.873093 48,117.243863 L48,11.7545975 C48.0092111,9.12596943 50.1161499,6.99998345 52.712,7 Z" id="Path" fill="url(#linearGradient-1)" fill-rule="nonzero"></path>
                <rect id="Rectangle" fill="#3F3D56" fill-rule="nonzero" transform="translate(76.500000, 64.000000) rotate(-180.000000) translate(-76.500000, -64.000000) " x="48" y="7" width="57" height="114" rx="3"></rect>
                <rect id="Rectangle" fill="#FFFFFF" fill-rule="nonzero" transform="translate(76.000000, 64.500000) rotate(-180.000000) translate(-76.000000, -64.500000) " x="52" y="18" width="48" height="93"></rect>
                <circle id="Oval" fill="#FFFFFF" fill-rule="nonzero" cx="81.5" cy="12.5" r="1"></circle>
                <rect id="Rectangle" fill="#FFFFFF" fill-rule="nonzero" transform="translate(75.000000, 12.500000) rotate(180.000000) translate(-75.000000, -12.500000) " x="70" y="12" width="10" height="1" rx="0.5"></rect>
                <circle id="Oval" fill="#FFFFFF" fill-rule="nonzero" cx="76" cy="116" r="3"></circle>
                <ellipse id="Oval" fill="#2082DC" fill-rule="nonzero" opacity="0.1" cx="73.5" cy="118.5" rx="38.5" ry="7.5"></ellipse>
                <rect id="Rectangle" fill="#2082DC" fill-rule="nonzero" opacity="0.1" x="58" y="33" width="37" height="50"></rect>
                <path d="M88.6193136,57.4523875 C88.5298541,57.3486284 88.4389037,57.2479211 88.3449712,57.1472138 C89.0651199,56.311038 89.8121063,55.4519742 89.8046514,54.3777629 C89.7971964,53.0700938 88.6640433,52.0675983 88.2406019,50.831645 C87.6650794,49.1531899 88.4642505,47.3496136 88.7922685,45.6024945 C89.3104729,42.7274056 88.5484096,39.7656159 86.7138271,37.5245478 C86.3813362,37.1217186 85.9951695,36.7326222 85.4986695,36.5739319 C84.7457191,36.329793 83.943566,36.6685357 83.1593047,36.7677171 C80.5664715,37.094253 78.2077238,34.8085023 75.6029626,35.0129686 C75.4304215,35.0197465 75.2605851,35.0590605 75.1019896,35.1289346 C74.7650257,35.2937284 74.5831248,35.656885 74.374386,35.9712139 C73.564778,37.1919085 72.2064852,37.8022558 70.8541564,38.4126031 C70.6845829,38.464509 70.5229719,38.5405274 70.3740573,38.6384317 C69.9685078,38.8322169 69.5689222,39.0336315 69.1917015,39.2625118 C67.3130529,40.4160682 67.0148547,41.8946346 67.6008142,43.1275361 C67.6008142,43.1275361 67.6008142,43.1275361 67.6008142,43.1275361 C67.8236927,43.5821346 68.1340714,43.9859307 68.5133006,44.3146616 C68.4991101,44.3893011 68.4811947,44.463148 68.4596249,44.5359125 C68.0764403,45.9458148 66.7345484,47.2107596 66.9790709,48.677119 C67.0328343,48.9625552 67.1336734,49.2365456 67.2772691,49.4873551 L67.2772691,49.4873551 C67.6753637,50.2243495 68.3343817,50.8606365 68.5878502,51.6601915 L68.5878502,51.6601915 C68.6139417,51.7412297 68.6353495,51.8237693 68.6519628,51.9073822 C68.7891339,52.6062298 68.5714493,53.2715084 68.2717601,53.9322094 C65.4150214,54.608169 62.188517,55.8532775 61.9380305,58.0520537 C61.4996792,61.8758796 60.1816432,72.4379398 60.1816432,72.4379398 C60.1816432,72.4379398 59.2989765,77.3207183 61.4251296,77.9158069 C62.0945846,78.1019628 63.0652197,77.8593498 64.4578052,76.8995786 L64.3832557,77.1254071 C64.3668548,77.1757608 64.3504539,77.2245886 64.335544,77.277994 C63.7266937,79.1503277 63.2395666,81.0618383 62.8773548,83 L83.3933903,83 C83.2209324,81.7811889 82.9531858,80.5785053 82.5927282,79.4035285 C82.5673813,79.3180799 82.5420345,79.2402606 82.5196696,79.1670189 C83.1025239,79.4234865 83.7000129,79.643614 84.3088587,79.826194 C85.0647912,80.058126 85.6716245,80.0550742 86.1591785,79.907065 L86.1591785,79.907065 C87.9349487,79.3653818 88.1228136,76.9041562 88.1228136,76.9041562 L88.886201,70.9044422 L89.7986874,61.9582765 C89.9335051,61.5703745 90.0016075,61.1614941 89.9999712,60.7497888 C89.9999712,59.8876732 89.7137009,58.7280134 88.6193136,57.4523875 Z M73.0414401,51.8188818 C73.0518771,51.7151228 73.059332,51.6098379 73.065296,51.5060788 L73.0921338,51.5243892 C73.0921338,51.6235707 73.0816969,51.7227521 73.0712599,51.8204077 C73.0712599,51.8204077 73.0712599,51.8310888 73.0712599,51.8371922 C73.0423875,52.1491575 72.9773199,52.4564947 72.8774311,52.7527132 C72.9565378,52.4464534 73.0113852,52.1341643 73.0414401,51.8188818 L73.0414401,51.8188818 Z M83.3948813,73.4587457 L83.3948813,73.4587457 C82.9371471,73.6723672 82.3273318,73.3656677 82.3273318,73.3656677 C82.3795165,73.4633233 82.4287192,73.5579271 82.4764309,73.6525309 C82.4769203,73.6560737 82.4769203,73.6596693 82.4764309,73.663212 L82.4436291,73.6449016 L82.0932462,73.4617974 C82.2361777,72.7361901 82.4676017,72.0318293 82.782084,71.3652544 C83.0490143,70.8099382 83.2869145,70.2404947 83.4947777,69.6593337 L83.4947777,69.6593337 C83.5827461,69.4029878 83.6558047,69.1680041 83.7154443,68.9513308 C83.7048799,69.9124979 83.7501866,70.8734572 83.8511245,71.8291184 C83.9823317,72.8682347 83.7303543,73.304633 83.3948813,73.4587457 L83.3948813,73.4587457 Z" id="Shape" fill="url(#linearGradient-2)" fill-rule="nonzero"></path>
                <path d="M69.2558487,39.0539927 C68.7668195,39.3905415 68.2538623,39.7799117 68.0803841,40.3518936 C67.7992297,41.2740069 68.5051067,42.1991386 68.5738998,43.1619999 C68.7010175,44.9111477 66.7404143,46.3569489 67.0290462,48.0879865 C67.2264525,49.2742075 68.4318271,50.0801134 68.6636299,51.2572793 C69.0016134,52.9777526 67.1546684,54.4944856 67.2997321,56.2375966 C67.3774982,57.1687651 68.0190685,57.9595791 68.7458825,58.5360885 C69.7676899,59.3433051 70.990643,59.8499153 72.2797538,60 C72.1945102,58.5043956 71.0938207,57.1415997 71.2837495,55.6550504 C71.4138581,54.6363492 72.1242216,53.8017687 72.5354847,52.8615452 C73.2578122,51.2104945 73.0260093,49.2998637 72.5938093,47.5492067 C72.1616092,45.7985497 71.5349938,44.0675122 71.5035883,42.267052 C71.4841467,41.1804373 71.9896264,39.5852266 71.6187419,38.5544518 C71.1685958,37.3048449 70.0948254,38.4774833 69.2558487,39.0539927 Z" id="Path" fill="#B0605D" fill-rule="nonzero"></path>
                <path d="M69.2558487,39.0539927 C68.7668195,39.3905415 68.2538623,39.7799117 68.0803841,40.3518936 C67.7992297,41.2740069 68.5051067,42.1991386 68.5738998,43.1619999 C68.7010175,44.9111477 66.7404143,46.3569489 67.0290462,48.0879865 C67.2264525,49.2742075 68.4318271,50.0801134 68.6636299,51.2572793 C69.0016134,52.9777526 67.1546684,54.4944856 67.2997321,56.2375966 C67.3774982,57.1687651 68.0190685,57.9595791 68.7458825,58.5360885 C69.7676899,59.3433051 70.990643,59.8499153 72.2797538,60 C72.1945102,58.5043956 71.0938207,57.1415997 71.2837495,55.6550504 C71.4138581,54.6363492 72.1242216,53.8017687 72.5354847,52.8615452 C73.2578122,51.2104945 73.0260093,49.2998637 72.5938093,47.5492067 C72.1616092,45.7985497 71.5349938,44.0675122 71.5035883,42.267052 C71.4841467,41.1804373 71.9896264,39.5852266 71.6187419,38.5544518 C71.1685958,37.3048449 70.0948254,38.4774833 69.2558487,39.0539927 Z" id="Path" fill="#000000" fill-rule="nonzero" opacity="0.1"></path>
                <path d="M71.3057374,62 C71.3057374,62 63.1372523,53.4418297 69.3021467,54.0757682 C70.7000365,54.2199892 71.6463478,53.9632441 72.2736258,53.4814508 C72.9887536,52.933094 73.2892922,52.0931254 73.3725182,51.2167054 C73.5420528,49.4733744 72.846961,47.5715588 72.846961,47.5715588 C72.846961,47.5715588 81.1695684,40.7567194 79.4742224,49.3148898 C79.2880617,50.1845881 79.1797239,51.0699862 79.1505655,51.9599983 C79.1228235,53.7762323 79.7038648,54.4719798 80.519172,54.7572521 C81.8939435,55.2406303 83.937606,54.5639009 84.868505,56.1297291 C86.563851,58.9887919 71.3057374,62 71.3057374,62 Z" id="Path" fill="#FFB9B9" fill-rule="nonzero"></path>
                <path d="M78.7673579,50.1244853 C78.5772619,50.9551987 78.4666339,51.8009082 78.4368591,52.6510249 C78.2104085,52.7264456 77.979748,52.7896195 77.745959,52.8402505 C75.9533135,53.2290556 74.0733722,52.9012724 72.5366672,51.9319678 C72.7097857,50.2667829 72,48.4502175 72,48.4502175 C72,48.4502175 80.4985425,41.9499412 78.7673579,50.1244853 Z" id="Path" fill="#000000" fill-rule="nonzero" opacity="0.05"></path>
                <path d="M83,45.4953494 C83,49.0877687 80.0898509,52 76.5,52 C72.9101491,52 70,49.0877687 70,45.4953494 C70,45.3743326 70,45.2533159 70.0105814,45.1338118 C70.2110492,41.6211778 73.1662401,38.9047413 76.6807235,39.0025607 C80.1952069,39.1003802 82.9949476,41.9769951 83,45.4953494 L83,45.4953494 Z" id="Path" fill="#FFB9B9" fill-rule="nonzero"></path>
                <path d="M71.3057374,62 C71.3057374,62 63.1372523,53.9627907 69.3021467,54.5581395 C70.7000365,54.6935814 71.6463478,54.4524651 72.2736258,54 C71.0884249,55.9110698 69.738313,59.3432558 75.7752858,59.0232558 C81.3005724,58.7255814 81.2065578,56.600186 80.519172,55.204093 C81.8939435,55.6580465 83.937606,55.0225116 84.868505,56.4930233 C86.563851,59.172093 71.3057374,62 71.3057374,62 Z" id="Path" fill="#000000" fill-rule="nonzero" opacity="0.05"></path>
                <path d="M89.7972346,61.8344988 C89.7592549,61.948752 89.7117405,62.0594898 89.6552109,62.1655012 L87.5798322,63.7770008 L87.3156376,63.983683 L87.3156376,63.983683 L83.8536188,66.6721057 C83.8536188,66.6721057 84.1712632,67.2377622 83.7177037,68.8943279 C83.4772712,69.7337495 83.1650514,70.5501296 82.7846232,71.3341103 C82.4700175,72.0081153 82.2381839,72.7189828 82.0943574,73.4506605 C82.0950824,73.461526 82.0950824,73.472429 82.0943574,73.4832945 C82.0683961,73.6184926 82.045489,73.7521368 82.0271634,73.8842269 C81.8342001,75.205107 81.8719398,76.5502827 82.1386444,77.8578089 C82.1413213,77.8755946 82.1448892,77.8932296 82.1493343,77.9106449 C82.2226369,78.2649573 82.291358,78.5058275 82.3188465,78.5959596 L82.3325907,78.6379176 C82.3325907,78.6379176 82.4058933,78.8368298 82.5158471,79.1849262 L82.5250099,79.2160062 C82.9145253,80.4511086 83.2036184,81.7167006 83.3893693,83 L62.8936685,83 C63.2639872,81.0207934 63.7613724,79.0684099 64.3826268,77.1554002 L64.4574565,76.9285159 C64.3322312,77.01554 64.2100603,77.0979021 64.0924708,77.1724942 C62.6722337,78.0800311 61.7299904,78.1748252 61.1115001,77.8251748 C59.3904171,76.8508159 60.1814739,72.4219114 60.1814739,72.4219114 C60.1814739,72.4219114 61.4993928,61.7536908 61.937681,57.8919969 C62.1896586,55.6713287 65.4149711,54.4141414 68.2707166,53.7303807 C69.7208792,53.3884823 71.191663,53.1444903 72.6734515,53 L72.7039943,53 C72.7039943,53 72.6612344,53.0528361 72.589459,53.1554002 L72.5802962,53.1678322 C72.5268464,53.2393162 72.4581253,53.3310023 72.3817684,53.4428904 C72.3817684,53.4428904 72.3817684,53.4428904 72.3817684,53.4428904 C71.8767711,54.1452934 71.4577914,54.9077141 71.1340978,55.7132867 C70.6606855,56.981352 70.5797472,58.3659674 71.9648601,59.0699301 C72.6627616,59.4257964 73.7317572,59.6091686 75.3077622,59.5205905 C77.7435452,59.3838384 79.0782626,58.8663559 79.7486755,58.2074592 C80.0337717,57.9387057 80.2269441,57.5842251 80.2999719,57.1958042 L80.2999719,57.1958042 C80.4755926,56.2509713 79.910552,55.2564103 79.5180779,54.7000777 C79.5180779,54.7000777 79.5180779,54.7000777 79.5180779,54.7000777 C79.4096386,54.5469027 79.2934182,54.3995902 79.1698908,54.2587413 L79.1698908,54.2587413 L83.174043,54.5493395 C85.1357586,54.6804065 86.9804032,55.5456084 88.3525633,56.978244 C88.4472458,57.0761461 88.538874,57.1787102 88.6274479,57.2890443 C90.3775465,59.3543124 90.0507393,61.1258741 89.7972346,61.8344988 Z" id="Path" fill="#FFD6EF" fill-rule="nonzero"></path>
                <path d="M65.9150433,61 C65.9150433,61 66.25487,63.5396825 65.5752167,64.3333333 C64.8955633,65.1269841 64.72565,68.7777778 65.5752167,71 L65.9150433,61 Z" id="Path" fill="#000000" fill-rule="nonzero" opacity="0.05"></path>
                <rect id="Rectangle" fill="#CDD0DB" fill-rule="nonzero" x="67" y="66" width="11" height="4" rx="2"></rect>
                <rect id="Rectangle" fill="#000000" fill-rule="nonzero" opacity="0.05" x="67" y="66" width="11" height="4" rx="2"></rect>
                <rect id="Rectangle" fill="#CDD0DB" fill-rule="nonzero" x="67" y="67" width="11" height="4" rx="2"></rect>
                <circle id="Oval" fill="#9DA7C0" fill-rule="nonzero" cx="75.5" cy="69.5" r="1"></circle>
                <path d="M62.1259184,73.2657662 C62.4204884,72.4303788 63.0872635,71.7615137 63.9478601,71.4381134 C64.4992796,71.2200238 65.1716245,70.8237764 65.5118278,70.1003945 C66.1470889,68.7596039 67.2757254,67.3773455 70.1779334,68.2988511 C73.0801415,69.2203567 69.3717645,69.8346937 69.3717645,69.8346937 C69.3717645,69.8346937 75.9823495,68.9131881 73.402609,70.7561993 C70.8228685,72.5992105 67.5981929,73.6743003 67.5981929,73.6743003 L66.0100402,75.2761842 C65.0426375,76.254516 63.3625815,76.2499085 62.462897,75.2086071 C62.0598125,74.7386393 61.8485963,74.1058721 62.1259184,73.2657662 Z" id="Path" fill="#000000" fill-rule="nonzero" opacity="0.05"></path>
                <path d="M62.1259184,73.2657662 C62.4204884,72.4303788 63.0872635,71.7615137 63.9478601,71.4381134 C64.4992796,71.2200238 65.1716245,70.8237764 65.5118278,70.1003945 C66.1470889,68.7596039 67.2757254,67.3773455 70.1779334,68.2988511 C73.0801415,69.2203567 69.3717645,69.8346937 69.3717645,69.8346937 C69.3717645,69.8346937 75.9823495,68.9131881 73.402609,70.7561993 C70.8228685,72.5992105 67.5981929,73.6743003 67.5981929,73.6743003 L66.0100402,75.2761842 C65.0426375,76.254516 63.3625815,76.2499085 62.462897,75.2086071 C62.0598125,74.7386393 61.8485963,74.1058721 62.1259184,73.2657662 Z" id="Path" fill="#FFB9B9" fill-rule="nonzero"></path>
                <path d="M84,76.4318882 L82.8786408,79 L81.4368932,78.004479 L77.4320388,75.223365 L74.7087379,73.5616456 C70.8640777,70.8424684 74.7087379,70.3892722 74.7087379,70.3892722 C73.2669903,69.7850106 74.7087379,69.180749 74.7087379,69.180749 C79.8349515,68.1232912 78.8737864,72.0509916 78.8737864,72.0509916 L82.1209223,73.638689 L83.1990291,74.1659072 L84,76.4318882 Z" id="Path" fill="#000000" fill-rule="nonzero" opacity="0.05"></path>
                <path d="M84,76.4318882 L82.8786408,79 L81.4368932,78.004479 L77.4320388,75.223365 L74.7087379,73.5616456 C70.8640777,70.8424684 74.7087379,70.3892722 74.7087379,70.3892722 C73.2669903,69.7850106 74.7087379,69.180749 74.7087379,69.180749 C79.8349515,68.1232912 78.8737864,72.0509916 78.8737864,72.0509916 L82.1209223,73.638689 L83.1990291,74.1659072 L84,76.4318882 Z" id="Path" fill="#FFB9B9" fill-rule="nonzero"></path>
                <path d="M84,76.6049591 L83.125,79 L82,78.0715695 C83.01375,78.112426 84.21125,77.5601578 82.52875,74 L83.37,74.4916878 L84,76.6049591 Z" id="Path" fill="#000000" fill-rule="nonzero" opacity="0.05"></path>
                <path d="M89.7149188,61 L90,62.1943625 L89.1240768,71.0162548 L88.3855244,76.9349509 C88.3855244,76.9349509 88.0901034,80.8807482 84.6927622,79.8184182 C81.295421,78.7560881 81,77.693758 81,77.693758 C81,77.693758 85.8744461,79.3631338 82.7725258,73.4444378 C82.7725258,73.4444378 84.5450517,74.3550064 84.2496307,71.9268234 C83.9542097,69.4986405 84.2496307,65.2493202 84.2496307,65.2493202 L89.7149188,61 Z" id="Path" fill="#FFD6EF" fill-rule="nonzero"></path>
                <path d="M83,45.5764662 C83.0003399,48.6528416 80.8981401,51.3196202 77.9363806,52 C77.7186555,51.3628541 77.5644336,50.7287713 77.7231914,50.0839674 C78.0255873,48.8326495 79.45592,47.9198154 79.2971621,46.6409287 C79.281571,46.4962471 79.2295035,46.35806 79.1459642,46.2396493 C78.8269365,45.8138643 78.1767853,46.0252252 77.6596883,46.1309057 C76.3230984,46.4004674 74.8595022,45.4861017 74.4966271,44.1551406 C73.3125496,45.3348041 71.5755531,45.7424441 70,45.2104136 C70.2005145,41.6539122 73.1563928,38.9035517 76.6716937,39.0025927 C80.1869946,39.1016338 82.9873865,42.0141731 82.9924401,45.5764662 L83,45.5764662 Z" id="Path" fill="#000000" fill-rule="nonzero" opacity="0.05"></path>
                <path d="M75.3289733,44.1693575 C75.6862189,45.4959622 77.1346334,46.4073351 78.4544992,46.137129 C78.9657043,46.0333211 79.6084476,45.822652 79.9238402,46.2470434 C80.0043807,46.3649395 80.0533338,46.5022963 80.0658416,46.6454827 C80.2242853,47.92171 78.8147344,48.8300297 78.5112998,50.0787784 C78.1988967,51.3641652 79.1092005,52.605281 79.310992,53.9135666 C79.4171194,54.6295362 79.310992,55.3592451 79.310992,56.0828477 C79.310992,56.8064502 79.4784042,57.5850099 80.0045568,58.0674116 C80.5307094,58.5498133 81.4993086,58.5589729 81.8535648,57.9300188 C83.5351605,58.8383384 82.864017,61.6518395 84.140535,63.0914116 C84.8445631,63.8852372 86.0029957,64.0760607 87.0478272,63.9753059 C87.292506,63.9713257 87.5304171,63.8926368 87.7309288,63.7493709 C87.9036502,63.5752953 88.0204288,63.3516719 88.0657532,63.1082041 C88.3294788,62.0890622 88.2841325,61.0121727 87.9357098,60.0199173 C87.7682976,59.5451485 87.5276425,59.0658 87.5904221,58.5666058 C87.6382542,58.1757994 87.8669512,57.8353703 88.109101,57.5285262 C88.9117827,56.5118188 90.0074357,55.5286964 89.999962,54.2219373 C89.9924882,52.9151783 88.8833824,51.9320558 88.4693361,50.7107857 C87.9058147,49.0422254 88.6875699,47.2545912 89.0089415,45.5203876 C89.517183,42.6733367 88.7731432,39.7421061 86.9745844,37.5058024 C86.6487285,37.1058364 86.2705563,36.7196097 85.7787829,36.5608446 C85.0418703,36.3196438 84.2571256,36.6554931 83.4873285,36.7531947 C80.9462504,37.0783578 78.642838,34.8098486 76.0927914,35.0128847 C75.9238083,35.0195219 75.7575278,35.0583531 75.6025128,35.1273788 C75.2721727,35.2907237 75.0942972,35.652525 74.8895162,35.9639488 C73.7639681,37.68136 71.5517355,38.1713946 69.8178235,39.2369528 C64.7610782,42.3466119 71.4545766,47.9766672 75.3289733,44.1693575 Z" id="Path" fill="#B0605D" fill-rule="nonzero"></path>
                <path d="M106.501076,120 C106.501076,120 104.436809,108.72475 108.687946,100.996838 C110.489921,97.7679417 111.271786,93.9959755 110.916158,90.2472334 C110.732884,88.4689636 110.398848,86.7125417 109.918238,85" id="Path" stroke="#535461" stroke-width="2"></path>
                <path d="M112.985845,80.4602669 C112.860197,81.6757707 110.001719,85 110.001719,85 C110.001719,85 107.878278,81.2715289 108.005496,80.054636 C108.06974,79.2557261 108.617336,78.549974 109.43705,78.2096224 C110.256764,77.8692709 111.220473,77.9475173 111.956428,78.4141782 C112.692383,78.8808391 113.085553,79.6629749 112.984274,80.4588778 L112.985845,80.4602669 Z" id="Path" fill="#2082DC" fill-rule="nonzero"></path>
                <path d="M116.514455,88.1693852 C115.625924,89.3118822 111,91 111,91 C111,91 111.530173,86.0596512 112.418704,84.9171542 C113.327761,83.8478105 114.909205,83.6919383 116.005647,84.5636133 C117.10209,85.4352883 117.324253,87.0250332 116.509546,88.1693852 L116.514455,88.1693852 Z" id="Path" fill="#2082DC" fill-rule="nonzero"></path>
                <path d="M114.55024,100.839472 C113.346928,101.348026 109,100.485696 109,100.485696 C109,100.485696 111.630223,96.6699624 112.833535,96.1614086 C114.030745,95.6782701 115.367565,96.315726 115.836398,97.5933092 C116.305232,98.8708924 115.732658,100.316025 114.55024,100.839472 L114.55024,100.839472 Z" id="Path" fill="#2082DC" fill-rule="nonzero"></path>
                <path d="M111.785079,110.382724 C110.62714,111.056387 106,110.998771 106,110.998771 C106,110.998771 108.084907,107.035093 109.242847,106.36143 C109.992231,105.908917 110.937722,105.8793 111.716275,106.283952 C112.494828,106.688603 112.985422,107.464623 112.999681,108.314038 C113.01394,109.163453 112.549646,109.954228 111.785079,110.382724 L111.785079,110.382724 Z" id="Path" fill="#2082DC" fill-rule="nonzero"></path>
                <path d="M105.622222,90.3946702 C106.516694,91.5045939 111,93 111,93 C111,93 110.296307,88.0618367 109.403399,86.9535746 C108.829139,86.2200995 107.927638,85.8720501 107.044187,86.0427351 C106.160735,86.2134201 105.432247,86.8763872 105.137747,87.7777088 C104.843246,88.6790304 105.028374,89.6790222 105.622222,90.3946702 L105.622222,90.3946702 Z" id="Path" fill="#2082DC" fill-rule="nonzero"></path>
                <path d="M102.188258,101.317353 C103.34255,101.998538 108,102 108,102 C108,102 105.957911,98.0532212 104.80207,97.3705746 C104.054416,96.9163488 103.105491,96.8769648 102.318448,97.267495 C101.531404,97.6580251 101.028096,98.4180061 101.001138,99.2565936 C100.97418,100.095181 101.427747,100.882542 102.188258,101.317353 L102.188258,101.317353 Z" id="Path" fill="#2082DC" fill-rule="nonzero"></path>
                <path d="M99.9259037,112.311079 C101.027232,113.213379 106,114 106,114 C106,114 104.584725,109.550195 103.481718,108.647894 C102.771679,108.04817 101.765008,107.846429 100.847616,108.12001 C99.9302253,108.39359 99.2444382,109.100049 99.0531546,109.968562 C98.8618711,110.837075 99.1947668,111.732901 99.9242249,112.312621 L99.9259037,112.311079 Z" id="Path" fill="#2082DC" fill-rule="nonzero"></path>
                <path d="M68,23.8510909 C68,20.6196226 65.4153494,18 62.2270213,18 L30.7729787,18 C27.5846506,18 25,20.6196226 25,23.8510909 C25,27.0825592 27.5846506,29.7021818 30.7729787,29.7021818 L57.0715957,29.6511818 L63.1205674,35 L63.1205674,29.6233636 C65.9275832,29.1796195 67.997892,26.7304849 68,23.8510909 L68,23.8510909 Z" id="Path" fill="#2082DC" fill-rule="nonzero"></path>
                <circle id="Oval" fill="#FFFFFF" fill-rule="nonzero" opacity="0.2" cx="32" cy="24" r="2"></circle>
                <circle id="Oval" fill="#FFFFFF" fill-rule="nonzero" opacity="0.2" cx="38" cy="24" r="2"></circle>
                <circle id="Oval" fill="#FFFFFF" fill-rule="nonzero" opacity="0.2" cx="45" cy="24" r="2"></circle>
                <rect id="Rectangle" fill="#2082DC" fill-rule="nonzero" x="57" y="90" width="16" height="5"></rect>
                <rect id="Rectangle" fill="#2082DC" fill-rule="nonzero" opacity="0.1" x="78" y="90" width="16" height="5"></rect>
            </g>
        </g>
    </g>
</svg>